<?xml version="1.0" encoding="us-ascii" standalone="no"?><svg xmlns="http://www.w3.org/2000/svg" xmlns:xlink="http://www.w3.org/1999/xlink" contentStyleType="text/css" height="864px" preserveAspectRatio="none" style="width:1077px;height:864px;background:#FFFFFF;" version="1.1" viewBox="0 0 1077 864" width="1077px" zoomAndPan="magnify"><defs/><g><!--class Worker--><g id="elem_Worker"><rect codeLine="1" fill="#F1F1F1" height="118.4375" id="Worker" rx="2.5" ry="2.5" style="stroke:#181818;stroke-width:0.5;" width="78" x="406" y="7"/><ellipse cx="421" cy="23" fill="#ADD1B2" rx="11" ry="11" style="stroke:#181818;stroke-width:1.0;"/><path d="M423.7656,18.875 Q423.9219,18.6563 424.1094,18.5469 Q424.2969,18.4375 424.5156,18.4375 Q424.8906,18.4375 425.125,18.6953 Q425.3594,18.9531 425.3594,19.5625 L425.3594,21.0156 Q425.3594,21.625 425.125,21.8906 Q424.8906,22.1563 424.5156,22.1563 Q424.1719,22.1563 423.9688,21.9531 Q423.7656,21.7656 423.6563,21.25 Q423.6094,20.8906 423.4219,20.7031 Q423.0938,20.3281 422.4844,20.1094 Q421.875,19.8906 421.25,19.8906 Q420.4844,19.8906 419.8516,20.2188 Q419.2188,20.5469 418.7266,21.2969 Q418.2344,22.0469 418.2344,23.0781 L418.2344,24.1719 Q418.2344,25.4063 419.125,26.2266 Q420.0156,27.0469 421.6094,27.0469 Q422.5469,27.0469 423.2031,26.7969 Q423.5938,26.6406 424.0156,26.2031 Q424.2813,25.9375 424.4297,25.8594 Q424.5781,25.7813 424.7813,25.7813 Q425.1094,25.7813 425.3672,26.0391 Q425.625,26.2969 425.625,26.6406 Q425.625,26.9844 425.2813,27.3906 Q424.7813,27.9688 423.9844,28.2969 Q422.9063,28.75 421.6094,28.75 Q420.0938,28.75 418.8906,28.125 Q417.9063,27.625 417.2188,26.5547 Q416.5313,25.4844 416.5313,24.2031 L416.5313,23.0469 Q416.5313,21.7188 417.1484,20.5703 Q417.7656,19.4219 418.8594,18.8047 Q419.9531,18.1875 421.1875,18.1875 Q421.9219,18.1875 422.5703,18.3516 Q423.2188,18.5156 423.7656,18.875 Z " fill="#000000"/><text fill="#000000" font-family="sans-serif" font-size="14" lengthAdjust="spacing" textLength="46" x="435" y="28.7285">Worker</text><line style="stroke:#181818;stroke-width:0.5;" x1="407" x2="483" y1="39" y2="39"/><line style="stroke:#181818;stroke-width:0.5;" x1="407" x2="483" y1="47" y2="47"/><text fill="#000000" font-family="sans-serif" font-size="14" lengthAdjust="spacing" textLength="38" x="412" y="65.5332">start()</text><text fill="#000000" font-family="sans-serif" font-size="14" lengthAdjust="spacing" textLength="59" x="412" y="83.1426">execute()</text><text fill="#000000" font-family="sans-serif" font-size="14" lengthAdjust="spacing" textLength="37" x="412" y="100.752">stop()</text><text fill="#000000" font-family="sans-serif" font-size="14" lengthAdjust="spacing" textLength="48" x="412" y="118.3613">action()</text></g><!--class TaalcBot--><g id="elem_TaalcBot"><rect codeLine="9" fill="#F1F1F1" height="48" id="TaalcBot" rx="2.5" ry="2.5" style="stroke:#181818;stroke-width:0.5;" width="88" x="677" y="42"/><ellipse cx="692" cy="58" fill="#ADD1B2" rx="11" ry="11" style="stroke:#181818;stroke-width:1.0;"/><path d="M694.7656,53.875 Q694.9219,53.6563 695.1094,53.5469 Q695.2969,53.4375 695.5156,53.4375 Q695.8906,53.4375 696.125,53.6953 Q696.3594,53.9531 696.3594,54.5625 L696.3594,56.0156 Q696.3594,56.625 696.125,56.8906 Q695.8906,57.1563 695.5156,57.1563 Q695.1719,57.1563 694.9688,56.9531 Q694.7656,56.7656 694.6563,56.25 Q694.6094,55.8906 694.4219,55.7031 Q694.0938,55.3281 693.4844,55.1094 Q692.875,54.8906 692.25,54.8906 Q691.4844,54.8906 690.8516,55.2188 Q690.2188,55.5469 689.7266,56.2969 Q689.2344,57.0469 689.2344,58.0781 L689.2344,59.1719 Q689.2344,60.4063 690.125,61.2266 Q691.0156,62.0469 692.6094,62.0469 Q693.5469,62.0469 694.2031,61.7969 Q694.5938,61.6406 695.0156,61.2031 Q695.2813,60.9375 695.4297,60.8594 Q695.5781,60.7813 695.7813,60.7813 Q696.1094,60.7813 696.3672,61.0391 Q696.625,61.2969 696.625,61.6406 Q696.625,61.9844 696.2813,62.3906 Q695.7813,62.9688 694.9844,63.2969 Q693.9063,63.75 692.6094,63.75 Q691.0938,63.75 689.8906,63.125 Q688.9063,62.625 688.2188,61.5547 Q687.5313,60.4844 687.5313,59.2031 L687.5313,58.0469 Q687.5313,56.7188 688.1484,55.5703 Q688.7656,54.4219 689.8594,53.8047 Q690.9531,53.1875 692.1875,53.1875 Q692.9219,53.1875 693.5703,53.3516 Q694.2188,53.5156 694.7656,53.875 Z " fill="#000000"/><text fill="#000000" font-family="sans-serif" font-size="14" lengthAdjust="spacing" textLength="56" x="706" y="63.7285">TaalcBot</text><line style="stroke:#181818;stroke-width:0.5;" x1="678" x2="764" y1="74" y2="74"/><line style="stroke:#181818;stroke-width:0.5;" x1="678" x2="764" y1="82" y2="82"/></g><!--class TaalcTransaction--><g id="elem_TaalcTransaction"><rect codeLine="11" fill="#F1F1F1" height="118.4375" id="TaalcTransaction" rx="2.5" ry="2.5" style="stroke:#181818;stroke-width:0.5;" width="142" x="88" y="7"/><ellipse cx="103" cy="23" fill="#ADD1B2" rx="11" ry="11" style="stroke:#181818;stroke-width:1.0;"/><path d="M105.7656,18.875 Q105.9219,18.6563 106.1094,18.5469 Q106.2969,18.4375 106.5156,18.4375 Q106.8906,18.4375 107.125,18.6953 Q107.3594,18.9531 107.3594,19.5625 L107.3594,21.0156 Q107.3594,21.625 107.125,21.8906 Q106.8906,22.1563 106.5156,22.1563 Q106.1719,22.1563 105.9688,21.9531 Q105.7656,21.7656 105.6563,21.25 Q105.6094,20.8906 105.4219,20.7031 Q105.0938,20.3281 104.4844,20.1094 Q103.875,19.8906 103.25,19.8906 Q102.4844,19.8906 101.8516,20.2188 Q101.2188,20.5469 100.7266,21.2969 Q100.2344,22.0469 100.2344,23.0781 L100.2344,24.1719 Q100.2344,25.4063 101.125,26.2266 Q102.0156,27.0469 103.6094,27.0469 Q104.5469,27.0469 105.2031,26.7969 Q105.5938,26.6406 106.0156,26.2031 Q106.2813,25.9375 106.4297,25.8594 Q106.5781,25.7813 106.7813,25.7813 Q107.1094,25.7813 107.3672,26.0391 Q107.625,26.2969 107.625,26.6406 Q107.625,26.9844 107.2813,27.3906 Q106.7813,27.9688 105.9844,28.2969 Q104.9063,28.75 103.6094,28.75 Q102.0938,28.75 100.8906,28.125 Q99.9063,27.625 99.2188,26.5547 Q98.5313,25.4844 98.5313,24.2031 L98.5313,23.0469 Q98.5313,21.7188 99.1484,20.5703 Q99.7656,19.4219 100.8594,18.8047 Q101.9531,18.1875 103.1875,18.1875 Q103.9219,18.1875 104.5703,18.3516 Q105.2188,18.5156 105.7656,18.875 Z " fill="#000000"/><text fill="#000000" font-family="sans-serif" font-size="14" lengthAdjust="spacing" textLength="110" x="117" y="28.7285">TaalcTransaction</text><line style="stroke:#181818;stroke-width:0.5;" x1="89" x2="229" y1="39" y2="39"/><text fill="#000000" font-family="sans-serif" font-size="14" lengthAdjust="spacing" textLength="113" x="94" y="57.5332">transaction_batch</text><text fill="#000000" font-family="sans-serif" font-size="14" lengthAdjust="spacing" textLength="28" x="94" y="75.1426">from</text><text fill="#000000" font-family="sans-serif" font-size="14" lengthAdjust="spacing" textLength="12" x="94" y="92.752">to</text><text fill="#000000" font-family="sans-serif" font-size="14" lengthAdjust="spacing" textLength="104" x="94" y="110.3613">transaction_time</text><line style="stroke:#181818;stroke-width:0.5;" x1="89" x2="229" y1="117.4375" y2="117.4375"/></g><!--class CurrencyTransaction--><g id="elem_CurrencyTransaction"><rect codeLine="18" fill="#F1F1F1" height="83.2188" id="CurrencyTransaction" rx="2.5" ry="2.5" style="stroke:#181818;stroke-width:0.5;" width="165" x="166.5" y="264.5"/><ellipse cx="181.5" cy="280.5" fill="#ADD1B2" rx="11" ry="11" style="stroke:#181818;stroke-width:1.0;"/><path d="M184.2656,276.375 Q184.4219,276.1563 184.6094,276.0469 Q184.7969,275.9375 185.0156,275.9375 Q185.3906,275.9375 185.625,276.1953 Q185.8594,276.4531 185.8594,277.0625 L185.8594,278.5156 Q185.8594,279.125 185.625,279.3906 Q185.3906,279.6563 185.0156,279.6563 Q184.6719,279.6563 184.4688,279.4531 Q184.2656,279.2656 184.1563,278.75 Q184.1094,278.3906 183.9219,278.2031 Q183.5938,277.8281 182.9844,277.6094 Q182.375,277.3906 181.75,277.3906 Q180.9844,277.3906 180.3516,277.7188 Q179.7188,278.0469 179.2266,278.7969 Q178.7344,279.5469 178.7344,280.5781 L178.7344,281.6719 Q178.7344,282.9063 179.625,283.7266 Q180.5156,284.5469 182.1094,284.5469 Q183.0469,284.5469 183.7031,284.2969 Q184.0938,284.1406 184.5156,283.7031 Q184.7813,283.4375 184.9297,283.3594 Q185.0781,283.2813 185.2813,283.2813 Q185.6094,283.2813 185.8672,283.5391 Q186.125,283.7969 186.125,284.1406 Q186.125,284.4844 185.7813,284.8906 Q185.2813,285.4688 184.4844,285.7969 Q183.4063,286.25 182.1094,286.25 Q180.5938,286.25 179.3906,285.625 Q178.4063,285.125 177.7188,284.0547 Q177.0313,282.9844 177.0313,281.7031 L177.0313,280.5469 Q177.0313,279.2188 177.6484,278.0703 Q178.2656,276.9219 179.3594,276.3047 Q180.4531,275.6875 181.6875,275.6875 Q182.4219,275.6875 183.0703,275.8516 Q183.7188,276.0156 184.2656,276.375 Z " fill="#000000"/><text fill="#000000" font-family="sans-serif" font-size="14" lengthAdjust="spacing" textLength="133" x="195.5" y="286.2285">CurrencyTransaction</text><line style="stroke:#181818;stroke-width:0.5;" x1="167.5" x2="330.5" y1="296.5" y2="296.5"/><text fill="#000000" font-family="sans-serif" font-size="14" lengthAdjust="spacing" textLength="55" x="172.5" y="315.0332">currency</text><text fill="#000000" font-family="sans-serif" font-size="14" lengthAdjust="spacing" textLength="47" x="172.5" y="332.6426">amount</text><line style="stroke:#181818;stroke-width:0.5;" x1="167.5" x2="330.5" y1="339.7188" y2="339.7188"/></g><!--class NftTransaction--><g id="elem_NftTransaction"><rect codeLine="23" fill="#F1F1F1" height="48" id="NftTransaction" rx="2.5" ry="2.5" style="stroke:#181818;stroke-width:0.5;" width="124" x="7" y="282"/><ellipse cx="22" cy="298" fill="#ADD1B2" rx="11" ry="11" style="stroke:#181818;stroke-width:1.0;"/><path d="M24.7656,293.875 Q24.9219,293.6563 25.1094,293.5469 Q25.2969,293.4375 25.5156,293.4375 Q25.8906,293.4375 26.125,293.6953 Q26.3594,293.9531 26.3594,294.5625 L26.3594,296.0156 Q26.3594,296.625 26.125,296.8906 Q25.8906,297.1563 25.5156,297.1563 Q25.1719,297.1563 24.9688,296.9531 Q24.7656,296.7656 24.6563,296.25 Q24.6094,295.8906 24.4219,295.7031 Q24.0938,295.3281 23.4844,295.1094 Q22.875,294.8906 22.25,294.8906 Q21.4844,294.8906 20.8516,295.2188 Q20.2188,295.5469 19.7266,296.2969 Q19.2344,297.0469 19.2344,298.0781 L19.2344,299.1719 Q19.2344,300.4063 20.125,301.2266 Q21.0156,302.0469 22.6094,302.0469 Q23.5469,302.0469 24.2031,301.7969 Q24.5938,301.6406 25.0156,301.2031 Q25.2813,300.9375 25.4297,300.8594 Q25.5781,300.7813 25.7813,300.7813 Q26.1094,300.7813 26.3672,301.0391 Q26.625,301.2969 26.625,301.6406 Q26.625,301.9844 26.2813,302.3906 Q25.7813,302.9688 24.9844,303.2969 Q23.9063,303.75 22.6094,303.75 Q21.0938,303.75 19.8906,303.125 Q18.9063,302.625 18.2188,301.5547 Q17.5313,300.4844 17.5313,299.2031 L17.5313,298.0469 Q17.5313,296.7188 18.1484,295.5703 Q18.7656,294.4219 19.8594,293.8047 Q20.9531,293.1875 22.1875,293.1875 Q22.9219,293.1875 23.5703,293.3516 Q24.2188,293.5156 24.7656,293.875 Z " fill="#000000"/><text fill="#000000" font-family="sans-serif" font-size="14" lengthAdjust="spacing" textLength="92" x="36" y="303.7285">NftTransaction</text><line style="stroke:#181818;stroke-width:0.5;" x1="8" x2="130" y1="314" y2="314"/><line style="stroke:#181818;stroke-width:0.5;" x1="8" x2="130" y1="322" y2="322"/></g><!--class TransactionBatch--><g id="elem_TransactionBatch"><rect codeLine="25" fill="#F1F1F1" height="48" id="TransactionBatch" rx="2.5" ry="2.5" style="stroke:#181818;stroke-width:0.5;" width="143" x="168.5" y="496"/><ellipse cx="183.5" cy="512" fill="#ADD1B2" rx="11" ry="11" style="stroke:#181818;stroke-width:1.0;"/><path d="M186.2656,507.875 Q186.4219,507.6563 186.6094,507.5469 Q186.7969,507.4375 187.0156,507.4375 Q187.3906,507.4375 187.625,507.6953 Q187.8594,507.9531 187.8594,508.5625 L187.8594,510.0156 Q187.8594,510.625 187.625,510.8906 Q187.3906,511.1563 187.0156,511.1563 Q186.6719,511.1563 186.4688,510.9531 Q186.2656,510.7656 186.1563,510.25 Q186.1094,509.8906 185.9219,509.7031 Q185.5938,509.3281 184.9844,509.1094 Q184.375,508.8906 183.75,508.8906 Q182.9844,508.8906 182.3516,509.2188 Q181.7188,509.5469 181.2266,510.2969 Q180.7344,511.0469 180.7344,512.0781 L180.7344,513.1719 Q180.7344,514.4063 181.625,515.2266 Q182.5156,516.0469 184.1094,516.0469 Q185.0469,516.0469 185.7031,515.7969 Q186.0938,515.6406 186.5156,515.2031 Q186.7813,514.9375 186.9297,514.8594 Q187.0781,514.7813 187.2813,514.7813 Q187.6094,514.7813 187.8672,515.0391 Q188.125,515.2969 188.125,515.6406 Q188.125,515.9844 187.7813,516.3906 Q187.2813,516.9688 186.4844,517.2969 Q185.4063,517.75 184.1094,517.75 Q182.5938,517.75 181.3906,517.125 Q180.4063,516.625 179.7188,515.5547 Q179.0313,514.4844 179.0313,513.2031 L179.0313,512.0469 Q179.0313,510.7188 179.6484,509.5703 Q180.2656,508.4219 181.3594,507.8047 Q182.4531,507.1875 183.6875,507.1875 Q184.4219,507.1875 185.0703,507.3516 Q185.7188,507.5156 186.2656,507.875 Z " fill="#000000"/><text fill="#000000" font-family="sans-serif" font-size="14" lengthAdjust="spacing" textLength="111" x="197.5" y="517.7285">TransactionBatch</text><line style="stroke:#181818;stroke-width:0.5;" x1="169.5" x2="310.5" y1="528" y2="528"/><line style="stroke:#181818;stroke-width:0.5;" x1="169.5" x2="310.5" y1="536" y2="536"/></g><!--class TokensBag--><g id="elem_TokensBag"><rect codeLine="27" fill="#F1F1F1" height="83.2188" id="TokensBag" rx="2.5" ry="2.5" style="stroke:#181818;stroke-width:0.5;" width="104" x="342" y="774"/><ellipse cx="357" cy="790" fill="#ADD1B2" rx="11" ry="11" style="stroke:#181818;stroke-width:1.0;"/><path d="M359.7656,785.875 Q359.9219,785.6563 360.1094,785.5469 Q360.2969,785.4375 360.5156,785.4375 Q360.8906,785.4375 361.125,785.6953 Q361.3594,785.9531 361.3594,786.5625 L361.3594,788.0156 Q361.3594,788.625 361.125,788.8906 Q360.8906,789.1563 360.5156,789.1563 Q360.1719,789.1563 359.9688,788.9531 Q359.7656,788.7656 359.6563,788.25 Q359.6094,787.8906 359.4219,787.7031 Q359.0938,787.3281 358.4844,787.1094 Q357.875,786.8906 357.25,786.8906 Q356.4844,786.8906 355.8516,787.2188 Q355.2188,787.5469 354.7266,788.2969 Q354.2344,789.0469 354.2344,790.0781 L354.2344,791.1719 Q354.2344,792.4063 355.125,793.2266 Q356.0156,794.0469 357.6094,794.0469 Q358.5469,794.0469 359.2031,793.7969 Q359.5938,793.6406 360.0156,793.2031 Q360.2813,792.9375 360.4297,792.8594 Q360.5781,792.7813 360.7813,792.7813 Q361.1094,792.7813 361.3672,793.0391 Q361.625,793.2969 361.625,793.6406 Q361.625,793.9844 361.2813,794.3906 Q360.7813,794.9688 359.9844,795.2969 Q358.9063,795.75 357.6094,795.75 Q356.0938,795.75 354.8906,795.125 Q353.9063,794.625 353.2188,793.5547 Q352.5313,792.4844 352.5313,791.2031 L352.5313,790.0469 Q352.5313,788.7188 353.1484,787.5703 Q353.7656,786.4219 354.8594,785.8047 Q355.9531,785.1875 357.1875,785.1875 Q357.9219,785.1875 358.5703,785.3516 Q359.2188,785.5156 359.7656,785.875 Z " fill="#000000"/><text fill="#000000" font-family="sans-serif" font-size="14" lengthAdjust="spacing" textLength="72" x="371" y="795.7285">TokensBag</text><line style="stroke:#181818;stroke-width:0.5;" x1="343" x2="445" y1="806" y2="806"/><text fill="#000000" font-family="sans-serif" font-size="14" lengthAdjust="spacing" textLength="28" x="348" y="824.5332">user</text><text fill="#000000" font-family="sans-serif" font-size="14" lengthAdjust="spacing" textLength="70" x="348" y="842.1426">List[Token]</text><line style="stroke:#181818;stroke-width:0.5;" x1="343" x2="445" y1="849.2188" y2="849.2188"/></g><!--class TUser--><g id="elem_TUser"><rect codeLine="32" fill="#F1F1F1" height="48" id="TUser" rx="2.5" ry="2.5" style="stroke:#181818;stroke-width:0.5;" width="70" x="237" y="791.5"/><ellipse cx="252" cy="807.5" fill="#ADD1B2" rx="11" ry="11" style="stroke:#181818;stroke-width:1.0;"/><path d="M254.7656,803.375 Q254.9219,803.1563 255.1094,803.0469 Q255.2969,802.9375 255.5156,802.9375 Q255.8906,802.9375 256.125,803.1953 Q256.3594,803.4531 256.3594,804.0625 L256.3594,805.5156 Q256.3594,806.125 256.125,806.3906 Q255.8906,806.6563 255.5156,806.6563 Q255.1719,806.6563 254.9688,806.4531 Q254.7656,806.2656 254.6563,805.75 Q254.6094,805.3906 254.4219,805.2031 Q254.0938,804.8281 253.4844,804.6094 Q252.875,804.3906 252.25,804.3906 Q251.4844,804.3906 250.8516,804.7188 Q250.2188,805.0469 249.7266,805.7969 Q249.2344,806.5469 249.2344,807.5781 L249.2344,808.6719 Q249.2344,809.9063 250.125,810.7266 Q251.0156,811.5469 252.6094,811.5469 Q253.5469,811.5469 254.2031,811.2969 Q254.5938,811.1406 255.0156,810.7031 Q255.2813,810.4375 255.4297,810.3594 Q255.5781,810.2813 255.7813,810.2813 Q256.1094,810.2813 256.3672,810.5391 Q256.625,810.7969 256.625,811.1406 Q256.625,811.4844 256.2813,811.8906 Q255.7813,812.4688 254.9844,812.7969 Q253.9063,813.25 252.6094,813.25 Q251.0938,813.25 249.8906,812.625 Q248.9063,812.125 248.2188,811.0547 Q247.5313,809.9844 247.5313,808.7031 L247.5313,807.5469 Q247.5313,806.2188 248.1484,805.0703 Q248.7656,803.9219 249.8594,803.3047 Q250.9531,802.6875 252.1875,802.6875 Q252.9219,802.6875 253.5703,802.8516 Q254.2188,803.0156 254.7656,803.375 Z " fill="#000000"/><text fill="#000000" font-family="sans-serif" font-size="14" lengthAdjust="spacing" textLength="38" x="266" y="813.2285">TUser</text><line style="stroke:#181818;stroke-width:0.5;" x1="238" x2="306" y1="823.5" y2="823.5"/><line style="stroke:#181818;stroke-width:0.5;" x1="238" x2="306" y1="831.5" y2="831.5"/></g><!--class TMember--><g id="elem_TMember"><rect codeLine="36" fill="#F1F1F1" height="65.6094" id="TMember" rx="2.5" ry="2.5" style="stroke:#181818;stroke-width:0.5;" width="92" x="228" y="630.5"/><ellipse cx="243" cy="646.5" fill="#ADD1B2" rx="11" ry="11" style="stroke:#181818;stroke-width:1.0;"/><path d="M245.7656,642.375 Q245.9219,642.1563 246.1094,642.0469 Q246.2969,641.9375 246.5156,641.9375 Q246.8906,641.9375 247.125,642.1953 Q247.3594,642.4531 247.3594,643.0625 L247.3594,644.5156 Q247.3594,645.125 247.125,645.3906 Q246.8906,645.6563 246.5156,645.6563 Q246.1719,645.6563 245.9688,645.4531 Q245.7656,645.2656 245.6563,644.75 Q245.6094,644.3906 245.4219,644.2031 Q245.0938,643.8281 244.4844,643.6094 Q243.875,643.3906 243.25,643.3906 Q242.4844,643.3906 241.8516,643.7188 Q241.2188,644.0469 240.7266,644.7969 Q240.2344,645.5469 240.2344,646.5781 L240.2344,647.6719 Q240.2344,648.9063 241.125,649.7266 Q242.0156,650.5469 243.6094,650.5469 Q244.5469,650.5469 245.2031,650.2969 Q245.5938,650.1406 246.0156,649.7031 Q246.2813,649.4375 246.4297,649.3594 Q246.5781,649.2813 246.7813,649.2813 Q247.1094,649.2813 247.3672,649.5391 Q247.625,649.7969 247.625,650.1406 Q247.625,650.4844 247.2813,650.8906 Q246.7813,651.4688 245.9844,651.7969 Q244.9063,652.25 243.6094,652.25 Q242.0938,652.25 240.8906,651.625 Q239.9063,651.125 239.2188,650.0547 Q238.5313,648.9844 238.5313,647.7031 L238.5313,646.5469 Q238.5313,645.2188 239.1484,644.0703 Q239.7656,642.9219 240.8594,642.3047 Q241.9531,641.6875 243.1875,641.6875 Q243.9219,641.6875 244.5703,641.8516 Q245.2188,642.0156 245.7656,642.375 Z " fill="#000000"/><text fill="#000000" font-family="sans-serif" font-size="14" lengthAdjust="spacing" textLength="60" x="257" y="652.2285">TMember</text><line style="stroke:#181818;stroke-width:0.5;" x1="229" x2="319" y1="662.5" y2="662.5"/><text fill="#000000" font-family="sans-serif" font-size="14" lengthAdjust="spacing" textLength="74" x="234" y="681.0332">telegram_id</text><line style="stroke:#181818;stroke-width:0.5;" x1="229" x2="319" y1="688.1094" y2="688.1094"/></g><!--class Wallet--><g id="elem_Wallet"><rect codeLine="40" fill="#F1F1F1" height="100.8281" id="Wallet" rx="2.5" ry="2.5" style="stroke:#181818;stroke-width:0.5;" width="71" x="356.5" y="613"/><ellipse cx="371.5" cy="629" fill="#ADD1B2" rx="11" ry="11" style="stroke:#181818;stroke-width:1.0;"/><path d="M374.2656,624.875 Q374.4219,624.6563 374.6094,624.5469 Q374.7969,624.4375 375.0156,624.4375 Q375.3906,624.4375 375.625,624.6953 Q375.8594,624.9531 375.8594,625.5625 L375.8594,627.0156 Q375.8594,627.625 375.625,627.8906 Q375.3906,628.1563 375.0156,628.1563 Q374.6719,628.1563 374.4688,627.9531 Q374.2656,627.7656 374.1563,627.25 Q374.1094,626.8906 373.9219,626.7031 Q373.5938,626.3281 372.9844,626.1094 Q372.375,625.8906 371.75,625.8906 Q370.9844,625.8906 370.3516,626.2188 Q369.7188,626.5469 369.2266,627.2969 Q368.7344,628.0469 368.7344,629.0781 L368.7344,630.1719 Q368.7344,631.4063 369.625,632.2266 Q370.5156,633.0469 372.1094,633.0469 Q373.0469,633.0469 373.7031,632.7969 Q374.0938,632.6406 374.5156,632.2031 Q374.7813,631.9375 374.9297,631.8594 Q375.0781,631.7813 375.2813,631.7813 Q375.6094,631.7813 375.8672,632.0391 Q376.125,632.2969 376.125,632.6406 Q376.125,632.9844 375.7813,633.3906 Q375.2813,633.9688 374.4844,634.2969 Q373.4063,634.75 372.1094,634.75 Q370.5938,634.75 369.3906,634.125 Q368.4063,633.625 367.7188,632.5547 Q367.0313,631.4844 367.0313,630.2031 L367.0313,629.0469 Q367.0313,627.7188 367.6484,626.5703 Q368.2656,625.4219 369.3594,624.8047 Q370.4531,624.1875 371.6875,624.1875 Q372.4219,624.1875 373.0703,624.3516 Q373.7188,624.5156 374.2656,624.875 Z " fill="#000000"/><text fill="#000000" font-family="sans-serif" font-size="14" lengthAdjust="spacing" textLength="39" x="385.5" y="634.7285">Wallet</text><line style="stroke:#181818;stroke-width:0.5;" x1="357.5" x2="426.5" y1="645" y2="645"/><text fill="#000000" font-family="sans-serif" font-size="14" lengthAdjust="spacing" textLength="51" x="362.5" y="663.5332">member</text><text fill="#000000" font-family="sans-serif" font-size="14" lengthAdjust="spacing" textLength="55" x="362.5" y="681.1426">currency</text><text fill="#000000" font-family="sans-serif" font-size="14" lengthAdjust="spacing" textLength="47" x="362.5" y="698.752">amount</text><line style="stroke:#181818;stroke-width:0.5;" x1="357.5" x2="426.5" y1="705.8281" y2="705.8281"/></g><!--class TaalcToken--><g id="elem_TaalcToken"><rect codeLine="47" fill="#F1F1F1" height="65.6094" id="TaalcToken" rx="2.5" ry="2.5" style="stroke:#181818;stroke-width:0.5;" width="107" x="376.5" y="273"/><ellipse cx="391.5" cy="289" fill="#ADD1B2" rx="11" ry="11" style="stroke:#181818;stroke-width:1.0;"/><path d="M394.2656,284.875 Q394.4219,284.6563 394.6094,284.5469 Q394.7969,284.4375 395.0156,284.4375 Q395.3906,284.4375 395.625,284.6953 Q395.8594,284.9531 395.8594,285.5625 L395.8594,287.0156 Q395.8594,287.625 395.625,287.8906 Q395.3906,288.1563 395.0156,288.1563 Q394.6719,288.1563 394.4688,287.9531 Q394.2656,287.7656 394.1563,287.25 Q394.1094,286.8906 393.9219,286.7031 Q393.5938,286.3281 392.9844,286.1094 Q392.375,285.8906 391.75,285.8906 Q390.9844,285.8906 390.3516,286.2188 Q389.7188,286.5469 389.2266,287.2969 Q388.7344,288.0469 388.7344,289.0781 L388.7344,290.1719 Q388.7344,291.4063 389.625,292.2266 Q390.5156,293.0469 392.1094,293.0469 Q393.0469,293.0469 393.7031,292.7969 Q394.0938,292.6406 394.5156,292.2031 Q394.7813,291.9375 394.9297,291.8594 Q395.0781,291.7813 395.2813,291.7813 Q395.6094,291.7813 395.8672,292.0391 Q396.125,292.2969 396.125,292.6406 Q396.125,292.9844 395.7813,293.3906 Q395.2813,293.9688 394.4844,294.2969 Q393.4063,294.75 392.1094,294.75 Q390.5938,294.75 389.3906,294.125 Q388.4063,293.625 387.7188,292.5547 Q387.0313,291.4844 387.0313,290.2031 L387.0313,289.0469 Q387.0313,287.7188 387.6484,286.5703 Q388.2656,285.4219 389.3594,284.8047 Q390.4531,284.1875 391.6875,284.1875 Q392.4219,284.1875 393.0703,284.3516 Q393.7188,284.5156 394.2656,284.875 Z " fill="#000000"/><text fill="#000000" font-family="sans-serif" font-size="14" lengthAdjust="spacing" textLength="75" x="405.5" y="294.7285">TaalcToken</text><line style="stroke:#181818;stroke-width:0.5;" x1="377.5" x2="482.5" y1="305" y2="305"/><text fill="#000000" font-family="sans-serif" font-size="14" lengthAdjust="spacing" textLength="35" x="382.5" y="323.5332">name</text><line style="stroke:#181818;stroke-width:0.5;" x1="377.5" x2="482.5" y1="330.6094" y2="330.6094"/></g><!--class TMessage--><g id="elem_TMessage"><rect codeLine="51" fill="#F1F1F1" height="153.6563" id="TMessage" rx="2.5" ry="2.5" style="stroke:#181818;stroke-width:0.5;" width="98" x="556" y="229"/><ellipse cx="571" cy="245" fill="#ADD1B2" rx="11" ry="11" style="stroke:#181818;stroke-width:1.0;"/><path d="M573.7656,240.875 Q573.9219,240.6563 574.1094,240.5469 Q574.2969,240.4375 574.5156,240.4375 Q574.8906,240.4375 575.125,240.6953 Q575.3594,240.9531 575.3594,241.5625 L575.3594,243.0156 Q575.3594,243.625 575.125,243.8906 Q574.8906,244.1563 574.5156,244.1563 Q574.1719,244.1563 573.9688,243.9531 Q573.7656,243.7656 573.6563,243.25 Q573.6094,242.8906 573.4219,242.7031 Q573.0938,242.3281 572.4844,242.1094 Q571.875,241.8906 571.25,241.8906 Q570.4844,241.8906 569.8516,242.2188 Q569.2188,242.5469 568.7266,243.2969 Q568.2344,244.0469 568.2344,245.0781 L568.2344,246.1719 Q568.2344,247.4063 569.125,248.2266 Q570.0156,249.0469 571.6094,249.0469 Q572.5469,249.0469 573.2031,248.7969 Q573.5938,248.6406 574.0156,248.2031 Q574.2813,247.9375 574.4297,247.8594 Q574.5781,247.7813 574.7813,247.7813 Q575.1094,247.7813 575.3672,248.0391 Q575.625,248.2969 575.625,248.6406 Q575.625,248.9844 575.2813,249.3906 Q574.7813,249.9688 573.9844,250.2969 Q572.9063,250.75 571.6094,250.75 Q570.0938,250.75 568.8906,250.125 Q567.9063,249.625 567.2188,248.5547 Q566.5313,247.4844 566.5313,246.2031 L566.5313,245.0469 Q566.5313,243.7188 567.1484,242.5703 Q567.7656,241.4219 568.8594,240.8047 Q569.9531,240.1875 571.1875,240.1875 Q571.9219,240.1875 572.5703,240.3516 Q573.2188,240.5156 573.7656,240.875 Z " fill="#000000"/><text fill="#000000" font-family="sans-serif" font-size="14" lengthAdjust="spacing" textLength="66" x="585" y="250.7285">TMessage</text><line style="stroke:#181818;stroke-width:0.5;" x1="557" x2="653" y1="261" y2="261"/><text fill="#000000" font-family="sans-serif" font-size="14" lengthAdjust="spacing" textLength="38" x="562" y="279.5332">owner</text><text fill="#000000" font-family="sans-serif" font-size="14" lengthAdjust="spacing" textLength="45" x="562" y="297.1426">creator</text><text fill="#000000" font-family="sans-serif" font-size="14" lengthAdjust="spacing" textLength="67" x="562" y="314.752">taalc_offer</text><text fill="#000000" font-family="sans-serif" font-size="14" lengthAdjust="spacing" textLength="54" x="562" y="332.3613">taalc_nft</text><text fill="#000000" font-family="sans-serif" font-size="14" lengthAdjust="spacing" textLength="65" x="562" y="349.9707">taalc_chat</text><text fill="#000000" font-family="sans-serif" font-size="14" lengthAdjust="spacing" textLength="31" x="562" y="367.5801">tg_id</text><line style="stroke:#181818;stroke-width:0.5;" x1="557" x2="653" y1="374.6563" y2="374.6563"/></g><!--class NftState--><g id="elem_NftState"><rect codeLine="60" fill="#F1F1F1" height="100.8281" id="NftState" rx="2.5" ry="2.5" style="stroke:#181818;stroke-width:0.5;" width="91" x="468.5" y="613"/><ellipse cx="487.55" cy="629" fill="#EB937F" rx="11" ry="11" style="stroke:#181818;stroke-width:1.0;"/><path d="M486.4094,629.7969 L486.4094,632.2969 L490.7375,632.2969 L490.7375,631.375 Q490.7375,630.7656 490.9797,630.5 Q491.2219,630.2344 491.5969,630.2344 Q491.9719,630.2344 492.2063,630.5 Q492.4406,630.7656 492.4406,631.375 L492.4406,634 L484.4406,634 Q483.8156,634 483.5578,633.7656 Q483.3,633.5313 483.3,633.1406 Q483.3,632.7656 483.5656,632.5313 Q483.8313,632.2969 484.4406,632.2969 L484.7063,632.2969 L484.7063,625.6406 L484.4406,625.6406 Q483.8156,625.6406 483.5578,625.4063 Q483.3,625.1719 483.3,624.7813 Q483.3,624.4063 483.5578,624.1719 Q483.8156,623.9375 484.4406,623.9375 L492.0656,623.9375 L492.0656,626.5313 Q492.0656,627.1406 491.8391,627.3984 Q491.6125,627.6563 491.2219,627.6563 Q490.8469,627.6563 490.6125,627.3984 Q490.3781,627.1406 490.3781,626.5313 L490.3781,625.6406 L486.4094,625.6406 L486.4094,628.0938 L487.8938,628.0938 Q487.8938,627.4375 488.0188,627.25 Q488.2844,626.8438 488.7531,626.8438 Q489.1281,626.8438 489.3625,627.1016 Q489.5969,627.3594 489.5969,627.9688 L489.5969,629.9375 Q489.5969,630.4844 489.4719,630.6719 Q489.2063,631.0625 488.7531,631.0625 Q488.2844,631.0625 488.0188,630.6563 Q487.8938,630.4688 487.8938,629.7969 L486.4094,629.7969 Z " fill="#000000"/><text fill="#000000" font-family="sans-serif" font-size="14" lengthAdjust="spacing" textLength="50" x="502.45" y="634.7285">NftState</text><line style="stroke:#181818;stroke-width:0.5;" x1="469.5" x2="558.5" y1="645" y2="645"/><text fill="#000000" font-family="sans-serif" font-size="14" lengthAdjust="spacing" textLength="79" x="474.5" y="663.5332">is_published</text><text fill="#000000" font-family="sans-serif" font-size="14" lengthAdjust="spacing" textLength="70" x="474.5" y="681.1426">on_bidding</text><text fill="#000000" font-family="sans-serif" font-size="14" lengthAdjust="spacing" textLength="64" x="474.5" y="698.752">publishing</text><line style="stroke:#181818;stroke-width:0.5;" x1="469.5" x2="558.5" y1="705.8281" y2="705.8281"/></g><!--class TOffer--><g id="elem_TOffer"><rect codeLine="66" fill="#F1F1F1" height="241.7031" id="TOffer" rx="2.5" ry="2.5" style="stroke:#181818;stroke-width:0.5;" width="77" x="707.5" y="185"/><ellipse cx="724.3" cy="201" fill="#ADD1B2" rx="11" ry="11" style="stroke:#181818;stroke-width:1.0;"/><path d="M727.0656,196.875 Q727.2219,196.6563 727.4094,196.5469 Q727.5969,196.4375 727.8156,196.4375 Q728.1906,196.4375 728.425,196.6953 Q728.6594,196.9531 728.6594,197.5625 L728.6594,199.0156 Q728.6594,199.625 728.425,199.8906 Q728.1906,200.1563 727.8156,200.1563 Q727.4719,200.1563 727.2688,199.9531 Q727.0656,199.7656 726.9563,199.25 Q726.9094,198.8906 726.7219,198.7031 Q726.3938,198.3281 725.7844,198.1094 Q725.175,197.8906 724.55,197.8906 Q723.7844,197.8906 723.1516,198.2188 Q722.5188,198.5469 722.0266,199.2969 Q721.5344,200.0469 721.5344,201.0781 L721.5344,202.1719 Q721.5344,203.4063 722.425,204.2266 Q723.3156,205.0469 724.9094,205.0469 Q725.8469,205.0469 726.5031,204.7969 Q726.8938,204.6406 727.3156,204.2031 Q727.5813,203.9375 727.7297,203.8594 Q727.8781,203.7813 728.0813,203.7813 Q728.4094,203.7813 728.6672,204.0391 Q728.925,204.2969 728.925,204.6406 Q728.925,204.9844 728.5813,205.3906 Q728.0813,205.9688 727.2844,206.2969 Q726.2063,206.75 724.9094,206.75 Q723.3938,206.75 722.1906,206.125 Q721.2063,205.625 720.5188,204.5547 Q719.8313,203.4844 719.8313,202.2031 L719.8313,201.0469 Q719.8313,199.7188 720.4484,198.5703 Q721.0656,197.4219 722.1594,196.8047 Q723.2531,196.1875 724.4875,196.1875 Q725.2219,196.1875 725.8703,196.3516 Q726.5188,196.5156 727.0656,196.875 Z " fill="#000000"/><text fill="#000000" font-family="sans-serif" font-size="14" lengthAdjust="spacing" textLength="41" x="738.7" y="206.7285">TOffer</text><line style="stroke:#181818;stroke-width:0.5;" x1="708.5" x2="783.5" y1="217" y2="217"/><text fill="#000000" font-family="sans-serif" font-size="14" lengthAdjust="spacing" textLength="64" x="713.5" y="235.5332">from_user</text><text fill="#000000" font-family="sans-serif" font-size="14" lengthAdjust="spacing" textLength="48" x="713.5" y="253.1426">to_user</text><text fill="#000000" font-family="sans-serif" font-size="14" lengthAdjust="spacing" textLength="64" x="713.5" y="270.752">offer_type</text><text fill="#000000" font-family="sans-serif" font-size="14" lengthAdjust="spacing" textLength="45" x="713.5" y="288.3613">subject</text><text fill="#000000" font-family="sans-serif" font-size="14" lengthAdjust="spacing" textLength="55" x="713.5" y="305.9707">currency</text><text fill="#000000" font-family="sans-serif" font-size="14" lengthAdjust="spacing" textLength="31" x="713.5" y="323.5801">price</text><text fill="#000000" font-family="sans-serif" font-size="14" lengthAdjust="spacing" textLength="31" x="713.5" y="341.1895">state</text><text fill="#000000" font-family="sans-serif" font-size="14" lengthAdjust="spacing" textLength="26" x="713.5" y="358.7988">time</text><text fill="#000000" font-family="sans-serif" font-size="14" lengthAdjust="spacing" textLength="52" x="713.5" y="376.4082">duration</text><text fill="#000000" font-family="sans-serif" font-size="14" lengthAdjust="spacing" textLength="57" x="713.5" y="394.0176">message</text><text fill="#000000" font-family="sans-serif" font-size="14" lengthAdjust="spacing" textLength="65" x="713.5" y="411.627">bidding_id</text><line style="stroke:#181818;stroke-width:0.5;" x1="708.5" x2="783.5" y1="418.7031" y2="418.7031"/></g><!--class OfferState--><g id="elem_OfferState"><rect codeLine="79" fill="#F1F1F1" height="48" id="OfferState" rx="2.5" ry="2.5" style="stroke:#181818;stroke-width:0.5;" width="97" x="697.5" y="496"/><ellipse cx="712.5" cy="512" fill="#EB937F" rx="11" ry="11" style="stroke:#181818;stroke-width:1.0;"/><path d="M711.3594,512.7969 L711.3594,515.2969 L715.6875,515.2969 L715.6875,514.375 Q715.6875,513.7656 715.9297,513.5 Q716.1719,513.2344 716.5469,513.2344 Q716.9219,513.2344 717.1563,513.5 Q717.3906,513.7656 717.3906,514.375 L717.3906,517 L709.3906,517 Q708.7656,517 708.5078,516.7656 Q708.25,516.5313 708.25,516.1406 Q708.25,515.7656 708.5156,515.5313 Q708.7813,515.2969 709.3906,515.2969 L709.6563,515.2969 L709.6563,508.6406 L709.3906,508.6406 Q708.7656,508.6406 708.5078,508.4063 Q708.25,508.1719 708.25,507.7813 Q708.25,507.4063 708.5078,507.1719 Q708.7656,506.9375 709.3906,506.9375 L717.0156,506.9375 L717.0156,509.5313 Q717.0156,510.1406 716.7891,510.3984 Q716.5625,510.6563 716.1719,510.6563 Q715.7969,510.6563 715.5625,510.3984 Q715.3281,510.1406 715.3281,509.5313 L715.3281,508.6406 L711.3594,508.6406 L711.3594,511.0938 L712.8438,511.0938 Q712.8438,510.4375 712.9688,510.25 Q713.2344,509.8438 713.7031,509.8438 Q714.0781,509.8438 714.3125,510.1016 Q714.5469,510.3594 714.5469,510.9688 L714.5469,512.9375 Q714.5469,513.4844 714.4219,513.6719 Q714.1563,514.0625 713.7031,514.0625 Q713.2344,514.0625 712.9688,513.6563 Q712.8438,513.4688 712.8438,512.7969 L711.3594,512.7969 Z " fill="#000000"/><text fill="#000000" font-family="sans-serif" font-size="14" lengthAdjust="spacing" textLength="65" x="726.5" y="517.7285">OfferState</text><line style="stroke:#181818;stroke-width:0.5;" x1="698.5" x2="793.5" y1="528" y2="528"/><line style="stroke:#181818;stroke-width:0.5;" x1="698.5" x2="793.5" y1="536" y2="536"/></g><!--class OfferType--><g id="elem_OfferType"><rect codeLine="82" fill="#F1F1F1" height="48" id="OfferType" rx="2.5" ry="2.5" style="stroke:#181818;stroke-width:0.5;" width="96" x="830" y="496"/><ellipse cx="845" cy="512" fill="#EB937F" rx="11" ry="11" style="stroke:#181818;stroke-width:1.0;"/><path d="M843.8594,512.7969 L843.8594,515.2969 L848.1875,515.2969 L848.1875,514.375 Q848.1875,513.7656 848.4297,513.5 Q848.6719,513.2344 849.0469,513.2344 Q849.4219,513.2344 849.6563,513.5 Q849.8906,513.7656 849.8906,514.375 L849.8906,517 L841.8906,517 Q841.2656,517 841.0078,516.7656 Q840.75,516.5313 840.75,516.1406 Q840.75,515.7656 841.0156,515.5313 Q841.2813,515.2969 841.8906,515.2969 L842.1563,515.2969 L842.1563,508.6406 L841.8906,508.6406 Q841.2656,508.6406 841.0078,508.4063 Q840.75,508.1719 840.75,507.7813 Q840.75,507.4063 841.0078,507.1719 Q841.2656,506.9375 841.8906,506.9375 L849.5156,506.9375 L849.5156,509.5313 Q849.5156,510.1406 849.2891,510.3984 Q849.0625,510.6563 848.6719,510.6563 Q848.2969,510.6563 848.0625,510.3984 Q847.8281,510.1406 847.8281,509.5313 L847.8281,508.6406 L843.8594,508.6406 L843.8594,511.0938 L845.3438,511.0938 Q845.3438,510.4375 845.4688,510.25 Q845.7344,509.8438 846.2031,509.8438 Q846.5781,509.8438 846.8125,510.1016 Q847.0469,510.3594 847.0469,510.9688 L847.0469,512.9375 Q847.0469,513.4844 846.9219,513.6719 Q846.6563,514.0625 846.2031,514.0625 Q845.7344,514.0625 845.4688,513.6563 Q845.3438,513.4688 845.3438,512.7969 L843.8594,512.7969 Z " fill="#000000"/><text fill="#000000" font-family="sans-serif" font-size="14" lengthAdjust="spacing" textLength="64" x="859" y="517.7285">OfferType</text><line style="stroke:#181818;stroke-width:0.5;" x1="831" x2="925" y1="528" y2="528"/><line style="stroke:#181818;stroke-width:0.5;" x1="831" x2="925" y1="536" y2="536"/></g><!--class TChat--><g id="elem_TChat"><rect codeLine="85" fill="#F1F1F1" height="48" id="TChat" rx="2.5" ry="2.5" style="stroke:#181818;stroke-width:0.5;" width="71" x="591.5" y="496"/><ellipse cx="606.5" cy="512" fill="#ADD1B2" rx="11" ry="11" style="stroke:#181818;stroke-width:1.0;"/><path d="M609.2656,507.875 Q609.4219,507.6563 609.6094,507.5469 Q609.7969,507.4375 610.0156,507.4375 Q610.3906,507.4375 610.625,507.6953 Q610.8594,507.9531 610.8594,508.5625 L610.8594,510.0156 Q610.8594,510.625 610.625,510.8906 Q610.3906,511.1563 610.0156,511.1563 Q609.6719,511.1563 609.4688,510.9531 Q609.2656,510.7656 609.1563,510.25 Q609.1094,509.8906 608.9219,509.7031 Q608.5938,509.3281 607.9844,509.1094 Q607.375,508.8906 606.75,508.8906 Q605.9844,508.8906 605.3516,509.2188 Q604.7188,509.5469 604.2266,510.2969 Q603.7344,511.0469 603.7344,512.0781 L603.7344,513.1719 Q603.7344,514.4063 604.625,515.2266 Q605.5156,516.0469 607.1094,516.0469 Q608.0469,516.0469 608.7031,515.7969 Q609.0938,515.6406 609.5156,515.2031 Q609.7813,514.9375 609.9297,514.8594 Q610.0781,514.7813 610.2813,514.7813 Q610.6094,514.7813 610.8672,515.0391 Q611.125,515.2969 611.125,515.6406 Q611.125,515.9844 610.7813,516.3906 Q610.2813,516.9688 609.4844,517.2969 Q608.4063,517.75 607.1094,517.75 Q605.5938,517.75 604.3906,517.125 Q603.4063,516.625 602.7188,515.5547 Q602.0313,514.4844 602.0313,513.2031 L602.0313,512.0469 Q602.0313,510.7188 602.6484,509.5703 Q603.2656,508.4219 604.3594,507.8047 Q605.4531,507.1875 606.6875,507.1875 Q607.4219,507.1875 608.0703,507.3516 Q608.7188,507.5156 609.2656,507.875 Z " fill="#000000"/><text fill="#000000" font-family="sans-serif" font-size="14" lengthAdjust="spacing" textLength="39" x="620.5" y="517.7285">TChat</text><line style="stroke:#181818;stroke-width:0.5;" x1="592.5" x2="661.5" y1="528" y2="528"/><line style="stroke:#181818;stroke-width:0.5;" x1="592.5" x2="661.5" y1="536" y2="536"/></g><!--class Currency--><g id="elem_Currency"><rect codeLine="88" fill="#F1F1F1" height="48" id="Currency" rx="2.5" ry="2.5" style="stroke:#181818;stroke-width:0.5;" width="90" x="347" y="496"/><ellipse cx="362" cy="512" fill="#ADD1B2" rx="11" ry="11" style="stroke:#181818;stroke-width:1.0;"/><path d="M364.7656,507.875 Q364.9219,507.6563 365.1094,507.5469 Q365.2969,507.4375 365.5156,507.4375 Q365.8906,507.4375 366.125,507.6953 Q366.3594,507.9531 366.3594,508.5625 L366.3594,510.0156 Q366.3594,510.625 366.125,510.8906 Q365.8906,511.1563 365.5156,511.1563 Q365.1719,511.1563 364.9688,510.9531 Q364.7656,510.7656 364.6563,510.25 Q364.6094,509.8906 364.4219,509.7031 Q364.0938,509.3281 363.4844,509.1094 Q362.875,508.8906 362.25,508.8906 Q361.4844,508.8906 360.8516,509.2188 Q360.2188,509.5469 359.7266,510.2969 Q359.2344,511.0469 359.2344,512.0781 L359.2344,513.1719 Q359.2344,514.4063 360.125,515.2266 Q361.0156,516.0469 362.6094,516.0469 Q363.5469,516.0469 364.2031,515.7969 Q364.5938,515.6406 365.0156,515.2031 Q365.2813,514.9375 365.4297,514.8594 Q365.5781,514.7813 365.7813,514.7813 Q366.1094,514.7813 366.3672,515.0391 Q366.625,515.2969 366.625,515.6406 Q366.625,515.9844 366.2813,516.3906 Q365.7813,516.9688 364.9844,517.2969 Q363.9063,517.75 362.6094,517.75 Q361.0938,517.75 359.8906,517.125 Q358.9063,516.625 358.2188,515.5547 Q357.5313,514.4844 357.5313,513.2031 L357.5313,512.0469 Q357.5313,510.7188 358.1484,509.5703 Q358.7656,508.4219 359.8594,507.8047 Q360.9531,507.1875 362.1875,507.1875 Q362.9219,507.1875 363.5703,507.3516 Q364.2188,507.5156 364.7656,507.875 Z " fill="#000000"/><text fill="#000000" font-family="sans-serif" font-size="14" lengthAdjust="spacing" textLength="58" x="376" y="517.7285">Currency</text><line style="stroke:#181818;stroke-width:0.5;" x1="348" x2="436" y1="528" y2="528"/><line style="stroke:#181818;stroke-width:0.5;" x1="348" x2="436" y1="536" y2="536"/></g><!--class TaalcNft--><g id="elem_TaalcNft"><rect codeLine="89" fill="#F1F1F1" height="65.6094" id="TaalcNft" rx="2.5" ry="2.5" style="stroke:#181818;stroke-width:0.5;" width="84" x="472" y="487"/><ellipse cx="487" cy="503" fill="#ADD1B2" rx="11" ry="11" style="stroke:#181818;stroke-width:1.0;"/><path d="M489.7656,498.875 Q489.9219,498.6563 490.1094,498.5469 Q490.2969,498.4375 490.5156,498.4375 Q490.8906,498.4375 491.125,498.6953 Q491.3594,498.9531 491.3594,499.5625 L491.3594,501.0156 Q491.3594,501.625 491.125,501.8906 Q490.8906,502.1563 490.5156,502.1563 Q490.1719,502.1563 489.9688,501.9531 Q489.7656,501.7656 489.6563,501.25 Q489.6094,500.8906 489.4219,500.7031 Q489.0938,500.3281 488.4844,500.1094 Q487.875,499.8906 487.25,499.8906 Q486.4844,499.8906 485.8516,500.2188 Q485.2188,500.5469 484.7266,501.2969 Q484.2344,502.0469 484.2344,503.0781 L484.2344,504.1719 Q484.2344,505.4063 485.125,506.2266 Q486.0156,507.0469 487.6094,507.0469 Q488.5469,507.0469 489.2031,506.7969 Q489.5938,506.6406 490.0156,506.2031 Q490.2813,505.9375 490.4297,505.8594 Q490.5781,505.7813 490.7813,505.7813 Q491.1094,505.7813 491.3672,506.0391 Q491.625,506.2969 491.625,506.6406 Q491.625,506.9844 491.2813,507.3906 Q490.7813,507.9688 489.9844,508.2969 Q488.9063,508.75 487.6094,508.75 Q486.0938,508.75 484.8906,508.125 Q483.9063,507.625 483.2188,506.5547 Q482.5313,505.4844 482.5313,504.2031 L482.5313,503.0469 Q482.5313,501.7188 483.1484,500.5703 Q483.7656,499.4219 484.8594,498.8047 Q485.9531,498.1875 487.1875,498.1875 Q487.9219,498.1875 488.5703,498.3516 Q489.2188,498.5156 489.7656,498.875 Z " fill="#000000"/><text fill="#000000" font-family="sans-serif" font-size="14" lengthAdjust="spacing" textLength="52" x="501" y="508.7285">TaalcNft</text><line style="stroke:#181818;stroke-width:0.5;" x1="473" x2="555" y1="519" y2="519"/><text fill="#000000" font-family="sans-serif" font-size="14" lengthAdjust="spacing" textLength="50" x="478" y="537.5332">NftState</text><line style="stroke:#181818;stroke-width:0.5;" x1="473" x2="555" y1="544.6094" y2="544.6094"/></g><!--class SystemService--><g id="elem_SystemService"><rect codeLine="93" fill="#F1F1F1" height="65.6094" id="SystemService" rx="2.5" ry="2.5" style="stroke:#181818;stroke-width:0.5;" width="125" x="879.5" y="33"/><ellipse cx="894.5" cy="49" fill="#ADD1B2" rx="11" ry="11" style="stroke:#181818;stroke-width:1.0;"/><path d="M897.2656,44.875 Q897.4219,44.6563 897.6094,44.5469 Q897.7969,44.4375 898.0156,44.4375 Q898.3906,44.4375 898.625,44.6953 Q898.8594,44.9531 898.8594,45.5625 L898.8594,47.0156 Q898.8594,47.625 898.625,47.8906 Q898.3906,48.1563 898.0156,48.1563 Q897.6719,48.1563 897.4688,47.9531 Q897.2656,47.7656 897.1563,47.25 Q897.1094,46.8906 896.9219,46.7031 Q896.5938,46.3281 895.9844,46.1094 Q895.375,45.8906 894.75,45.8906 Q893.9844,45.8906 893.3516,46.2188 Q892.7188,46.5469 892.2266,47.2969 Q891.7344,48.0469 891.7344,49.0781 L891.7344,50.1719 Q891.7344,51.4063 892.625,52.2266 Q893.5156,53.0469 895.1094,53.0469 Q896.0469,53.0469 896.7031,52.7969 Q897.0938,52.6406 897.5156,52.2031 Q897.7813,51.9375 897.9297,51.8594 Q898.0781,51.7813 898.2813,51.7813 Q898.6094,51.7813 898.8672,52.0391 Q899.125,52.2969 899.125,52.6406 Q899.125,52.9844 898.7813,53.3906 Q898.2813,53.9688 897.4844,54.2969 Q896.4063,54.75 895.1094,54.75 Q893.5938,54.75 892.3906,54.125 Q891.4063,53.625 890.7188,52.5547 Q890.0313,51.4844 890.0313,50.2031 L890.0313,49.0469 Q890.0313,47.7188 890.6484,46.5703 Q891.2656,45.4219 892.3594,44.8047 Q893.4531,44.1875 894.6875,44.1875 Q895.4219,44.1875 896.0703,44.3516 Q896.7188,44.5156 897.2656,44.875 Z " fill="#000000"/><text fill="#000000" font-family="sans-serif" font-size="14" lengthAdjust="spacing" textLength="93" x="908.5" y="54.7285">SystemService</text><line style="stroke:#181818;stroke-width:0.5;" x1="880.5" x2="1003.5" y1="65" y2="65"/><line style="stroke:#181818;stroke-width:0.5;" x1="880.5" x2="1003.5" y1="73" y2="73"/><text fill="#000000" font-family="sans-serif" font-size="14" lengthAdjust="spacing" textLength="46" x="885.5" y="91.5332">install()</text></g><!--class WinService--><g id="elem_WinService"><rect codeLine="96" fill="#F1F1F1" height="48" id="WinService" rx="2.5" ry="2.5" style="stroke:#181818;stroke-width:0.5;" width="103" x="819.5" y="282"/><ellipse cx="834.5" cy="298" fill="#ADD1B2" rx="11" ry="11" style="stroke:#181818;stroke-width:1.0;"/><path d="M837.2656,293.875 Q837.4219,293.6563 837.6094,293.5469 Q837.7969,293.4375 838.0156,293.4375 Q838.3906,293.4375 838.625,293.6953 Q838.8594,293.9531 838.8594,294.5625 L838.8594,296.0156 Q838.8594,296.625 838.625,296.8906 Q838.3906,297.1563 838.0156,297.1563 Q837.6719,297.1563 837.4688,296.9531 Q837.2656,296.7656 837.1563,296.25 Q837.1094,295.8906 836.9219,295.7031 Q836.5938,295.3281 835.9844,295.1094 Q835.375,294.8906 834.75,294.8906 Q833.9844,294.8906 833.3516,295.2188 Q832.7188,295.5469 832.2266,296.2969 Q831.7344,297.0469 831.7344,298.0781 L831.7344,299.1719 Q831.7344,300.4063 832.625,301.2266 Q833.5156,302.0469 835.1094,302.0469 Q836.0469,302.0469 836.7031,301.7969 Q837.0938,301.6406 837.5156,301.2031 Q837.7813,300.9375 837.9297,300.8594 Q838.0781,300.7813 838.2813,300.7813 Q838.6094,300.7813 838.8672,301.0391 Q839.125,301.2969 839.125,301.6406 Q839.125,301.9844 838.7813,302.3906 Q838.2813,302.9688 837.4844,303.2969 Q836.4063,303.75 835.1094,303.75 Q833.5938,303.75 832.3906,303.125 Q831.4063,302.625 830.7188,301.5547 Q830.0313,300.4844 830.0313,299.2031 L830.0313,298.0469 Q830.0313,296.7188 830.6484,295.5703 Q831.2656,294.4219 832.3594,293.8047 Q833.4531,293.1875 834.6875,293.1875 Q835.4219,293.1875 836.0703,293.3516 Q836.7188,293.5156 837.2656,293.875 Z " fill="#000000"/><text fill="#000000" font-family="sans-serif" font-size="14" lengthAdjust="spacing" textLength="71" x="848.5" y="303.7285">WinService</text><line style="stroke:#181818;stroke-width:0.5;" x1="820.5" x2="921.5" y1="314" y2="314"/><line style="stroke:#181818;stroke-width:0.5;" x1="820.5" x2="921.5" y1="322" y2="322"/></g><!--class LinuxService--><g id="elem_LinuxService"><rect codeLine="97" fill="#F1F1F1" height="48" id="LinuxService" rx="2.5" ry="2.5" style="stroke:#181818;stroke-width:0.5;" width="112" x="958" y="282"/><ellipse cx="973" cy="298" fill="#ADD1B2" rx="11" ry="11" style="stroke:#181818;stroke-width:1.0;"/><path d="M975.7656,293.875 Q975.9219,293.6563 976.1094,293.5469 Q976.2969,293.4375 976.5156,293.4375 Q976.8906,293.4375 977.125,293.6953 Q977.3594,293.9531 977.3594,294.5625 L977.3594,296.0156 Q977.3594,296.625 977.125,296.8906 Q976.8906,297.1563 976.5156,297.1563 Q976.1719,297.1563 975.9688,296.9531 Q975.7656,296.7656 975.6563,296.25 Q975.6094,295.8906 975.4219,295.7031 Q975.0938,295.3281 974.4844,295.1094 Q973.875,294.8906 973.25,294.8906 Q972.4844,294.8906 971.8516,295.2188 Q971.2188,295.5469 970.7266,296.2969 Q970.2344,297.0469 970.2344,298.0781 L970.2344,299.1719 Q970.2344,300.4063 971.125,301.2266 Q972.0156,302.0469 973.6094,302.0469 Q974.5469,302.0469 975.2031,301.7969 Q975.5938,301.6406 976.0156,301.2031 Q976.2813,300.9375 976.4297,300.8594 Q976.5781,300.7813 976.7813,300.7813 Q977.1094,300.7813 977.3672,301.0391 Q977.625,301.2969 977.625,301.6406 Q977.625,301.9844 977.2813,302.3906 Q976.7813,302.9688 975.9844,303.2969 Q974.9063,303.75 973.6094,303.75 Q972.0938,303.75 970.8906,303.125 Q969.9063,302.625 969.2188,301.5547 Q968.5313,300.4844 968.5313,299.2031 L968.5313,298.0469 Q968.5313,296.7188 969.1484,295.5703 Q969.7656,294.4219 970.8594,293.8047 Q971.9531,293.1875 973.1875,293.1875 Q973.9219,293.1875 974.5703,293.3516 Q975.2188,293.5156 975.7656,293.875 Z " fill="#000000"/><text fill="#000000" font-family="sans-serif" font-size="14" lengthAdjust="spacing" textLength="80" x="987" y="303.7285">LinuxService</text><line style="stroke:#181818;stroke-width:0.5;" x1="959" x2="1069" y1="314" y2="314"/><line style="stroke:#181818;stroke-width:0.5;" x1="959" x2="1069" y1="322" y2="322"/></g><!--reverse link SystemService to WinService--><g id="link_SystemService_WinService"><path codeLine="99" d="M927.2757,116.3492 C912.7457,165.0692 890.61,239.28 877.87,281.96 " fill="none" id="SystemService-backto-WinService" style="stroke:#181818;stroke-width:1.0;"/><polygon fill="none" points="932.42,99.1,921.5259,114.6345,933.0254,118.064,932.42,99.1" style="stroke:#181818;stroke-width:1.0;"/></g><!--reverse link SystemService to LinuxService--><g id="link_SystemService_LinuxService"><path codeLine="100" d="M956.9225,116.3288 C971.6625,165.0488 994.12,239.28 1007.03,281.96 " fill="none" id="SystemService-backto-LinuxService" style="stroke:#181818;stroke-width:1.0;"/><polygon fill="none" points="951.71,99.1,951.1796,118.0662,962.6654,114.5913,951.71,99.1" style="stroke:#181818;stroke-width:1.0;"/></g><!--reverse link TMember to TUser--><g id="link_TMember_TUser"><path codeLine="102" d="M273.3293,714.6784 C272.9493,743.0884 272.65,765.82 272.31,791.19 " fill="none" id="TMember-backto-TUser" style="stroke:#181818;stroke-width:1.0;"/><polygon fill="none" points="273.57,696.68,267.3298,714.5981,279.3287,714.7586,273.57,696.68" style="stroke:#181818;stroke-width:1.0;"/></g><!--reverse link TaalcToken to Currency--><g id="link_TaalcToken_Currency"><path codeLine="103" d="M421.0516,356.9172 C413.3016,400.1172 402.92,458.08 396.12,495.99 " fill="none" id="TaalcToken-backto-Currency" style="stroke:#181818;stroke-width:1.0;"/><polygon fill="none" points="424.23,339.2,415.1459,355.8577,426.9573,357.9766,424.23,339.2" style="stroke:#181818;stroke-width:1.0;"/></g><!--reverse link TaalcToken to TaalcNft--><g id="link_TaalcToken_TaalcNft"><path codeLine="104" d="M449.3894,355.9347 C465.2194,395.8947 485.43,446.91 501.26,486.85 " fill="none" id="TaalcToken-backto-TaalcNft" style="stroke:#181818;stroke-width:1.0;"/><polygon fill="none" points="442.76,339.2,443.8112,358.1445,454.9676,353.7249,442.76,339.2" style="stroke:#181818;stroke-width:1.0;"/></g><!--link TMessage to TChat--><g id="link_TMessage_TChat"><path codeLine="105" d="M612.91,383.24 C617.03,422.89 621.1506,462.6121 623.9506,489.5921 " fill="none" id="TMessage-to-TChat" style="stroke:#181818;stroke-width:1.0;"/><polygon fill="#181818" points="624.57,495.56,627.6196,486.1952,624.0539,490.5867,619.6623,487.021,624.57,495.56" style="stroke:#181818;stroke-width:1.0;"/></g><!--link TMessage to TaalcNft--><g id="link_TMessage_TaalcNft"><path codeLine="106" d="M572.28,383.24 C556.99,418.85 541.9767,453.8265 530.2067,481.2465 " fill="none" id="TMessage-to-TaalcNft" style="stroke:#181818;stroke-width:1.0;"/><polygon fill="#181818" points="527.84,486.76,535.0657,480.0675,529.8122,482.1654,527.7143,476.9119,527.84,486.76" style="stroke:#181818;stroke-width:1.0;"/></g><!--link TaalcNft to NftState--><g id="link_TaalcNft_NftState"><path codeLine="107" d="M514,553.11 C514,570.72 514,586.94 514,606.75 " fill="none" id="TaalcNft-to-NftState" style="stroke:#181818;stroke-width:1.0;"/><polygon fill="#181818" points="514,612.75,518,603.75,514,607.75,510,603.75,514,612.75" style="stroke:#181818;stroke-width:1.0;"/></g><!--reverse link Currency to Wallet--><g id="link_Currency_Wallet"><path codeLine="109" d="M392,550.05 C392,568.61 392,589.37 392,612.76 " fill="none" id="Currency-backto-Wallet" style="stroke:#181818;stroke-width:1.0;"/><polygon fill="#181818" points="392,544.05,388,553.05,392,549.05,396,553.05,392,544.05" style="stroke:#181818;stroke-width:1.0;"/></g><!--reverse link TMember to Wallet--><g id="link_TMember_Wallet"><path codeLine="110" d="M326.09,663.5 C338.17,663.5 344.25,663.5 356.33,663.5 " fill="none" id="TMember-backto-Wallet" style="stroke:#181818;stroke-width:1.0;"/><polygon fill="#181818" points="320.09,663.5,329.09,667.5,325.09,663.5,329.09,659.5,320.09,663.5" style="stroke:#181818;stroke-width:1.0;"/></g><!--reverse link TaalcTransaction to CurrencyTransaction--><g id="link_TaalcTransaction_CurrencyTransaction"><path codeLine="111" d="M187.383,142.0578 C203.663,185.1378 219.09,225.89 233.56,264.16 " fill="none" id="TaalcTransaction-backto-CurrencyTransaction" style="stroke:#181818;stroke-width:1.0;"/><polygon fill="none" points="181.02,125.22,181.7704,144.1788,192.9956,139.9368,181.02,125.22" style="stroke:#181818;stroke-width:1.0;"/></g><!--reverse link TaalcTransaction to NftTransaction--><g id="link_TaalcTransaction_NftTransaction"><path codeLine="112" d="M130.6155,142.0572 C111.5755,192.4272 91.38,245.81 77.79,281.77 " fill="none" id="TaalcTransaction-backto-NftTransaction" style="stroke:#181818;stroke-width:1.0;"/><polygon fill="none" points="136.98,125.22,125.0031,139.9357,136.2279,144.1788,136.98,125.22" style="stroke:#181818;stroke-width:1.0;"/></g><!--link CurrencyTransaction to TransactionBatch--><g id="link_CurrencyTransaction_TransactionBatch"><path codeLine="113" d="M247.26,347.88 C245.4,391.91 242.7451,454.4454 241.2351,489.9354 " fill="none" id="CurrencyTransaction-to-TransactionBatch" style="stroke:#181818;stroke-width:1.0;"/><polygon fill="#181818" points="240.98,495.93,245.359,487.1082,241.1925,490.9345,237.3662,486.7681,240.98,495.93" style="stroke:#181818;stroke-width:1.0;"/></g><!--link CurrencyTransaction to Currency--><g id="link_CurrencyTransaction_Currency"><path codeLine="114" d="M276.57,347.88 C306.28,391.91 349.1447,455.4659 373.0847,490.9559 " fill="none" id="CurrencyTransaction-to-Currency" style="stroke:#181818;stroke-width:1.0;"/><polygon fill="#181818" points="376.44,495.93,374.7231,486.2319,373.6439,491.7849,368.0909,490.7057,376.44,495.93" style="stroke:#181818;stroke-width:1.0;"/></g><!--link TOffer to OfferType--><g id="link_TOffer_OfferType"><path codeLine="116" d="M784.66,396.5 C790.1,406.99 795.92,417.38 802,427 C817.83,452.04 835.6474,473.3772 851.8674,491.2472 " fill="none" id="TOffer-to-OfferType" style="stroke:#181818;stroke-width:1.0;"/><polygon fill="#181818" points="855.9,495.69,852.813,486.3374,852.5395,491.9877,846.8893,491.7142,855.9,495.69" style="stroke:#181818;stroke-width:1.0;"/></g><!--link TOffer to OfferState--><g id="link_TOffer_OfferState"><path codeLine="117" d="M746,427.25 C746,453.41 746,472.4 746,489.67 " fill="none" id="TOffer-to-OfferState" style="stroke:#181818;stroke-width:1.0;"/><polygon fill="#181818" points="746,495.67,750,486.67,746,490.67,742,486.67,746,495.67" style="stroke:#181818;stroke-width:1.0;"/></g><!--link TOffer to TaalcNft--><g id="link_TOffer_TaalcNft"><path codeLine="118" d="M707.37,381.31 C696.91,397.5 684.65,413.73 671,427 C661.68,436.05 604.7486,468.5348 561.4986,492.6848 " fill="none" id="TOffer-to-TaalcNft" style="stroke:#181818;stroke-width:1.0;"/><polygon fill="#181818" points="556.26,495.61,566.0681,494.7147,560.6255,493.1724,562.1679,487.7298,556.26,495.61" style="stroke:#181818;stroke-width:1.0;"/></g><!--link Wallet to TokensBag--><g id="link_Wallet_TokensBag"><path codeLine="120" d="M392.66,714.03 C392.92,733.32 392.975,737.1515 393.215,755.5315 " fill="none" id="Wallet-to-TokensBag" style="stroke:#181818;stroke-width:1.0;"/><polygon fill="none" points="393.45,773.53,399.2145,755.4532,387.2155,755.6099,393.45,773.53" style="stroke:#181818;stroke-width:1.0;"/></g><!--SRC=[VLHDRzim3BthL_Yu7VmFXXxIQxSTag67OJ0KXKwqsb8WqLi3D_zz4gaFfqwNGq0-KkJZ4sKrIE-RP-jUmCsY2J-Fqk6dpsJ3AwW98NaUxJcPKg6s9ZXN8OIY6Zif1xMnE5zla9sJndCwrySAT7k9waHex-p8OHl_LvceHn2bykFa71XrMHLNAS0aHpiPhAU-zRWyK7bMS1C9BIBs1OpVo2DNdpmuCfwqnvyK_5NBxtxugE42-0hZFikACC3HoR7JXvhnB8S1a1D6IlxV53UonkPyqCYbDA6fz_88Sv7H_ZMvhWE9bcsCLJhRzx3qJOyBJvraSe-1DXKCVS1COzHoYnA1AMZVdQVzeFq93jmptAq-7BGvafk2qQr4lyVUSxdzhgYBjjf4iCFB6NW5f_rlKBXMwUoqWho_o1RjJ3GEavFnTfFEf0_PYIFV2Sr5fD9aDzWkK20eiNyCsiprKl96pjVbBGMLUC0iLnr_U_48unRSdq0ygMW2zs6WLvNsGvkSaQ4dRQRN2egREisNjxPTdBeNNHOG8kqeXsY3HTqlHlDegq0UKUITQzhsWPLv1vN4P11QD17y39fsEWUujCle03t68inKt7dxTFBjOVN14RSl_iEqkoLZotSVXWyJ2sV1MqrWMPiLo6Clq29G6Pfuvg_FFm00]--></g></svg>