<?xml version="1.0" encoding="us-ascii" standalone="no"?><svg xmlns="http://www.w3.org/2000/svg" xmlns:xlink="http://www.w3.org/1999/xlink" contentStyleType="text/css" height="899px" preserveAspectRatio="none" style="width:1567px;height:899px;background:#FFFFFF;" version="1.1" viewBox="0 0 1567 899" width="1567px" zoomAndPan="magnify"><defs/><g><!--class Worker--><g id="elem_Worker"><rect codeLine="1" fill="#F1F1F1" height="118.4375" id="Worker" rx="2.5" ry="2.5" style="stroke:#181818;stroke-width:0.5;" width="78" x="956.5" y="7"/><ellipse cx="971.5" cy="23" fill="#ADD1B2" rx="11" ry="11" style="stroke:#181818;stroke-width:1.0;"/><path d="M974.2656,18.875 Q974.4219,18.6563 974.6094,18.5469 Q974.7969,18.4375 975.0156,18.4375 Q975.3906,18.4375 975.625,18.6953 Q975.8594,18.9531 975.8594,19.5625 L975.8594,21.0156 Q975.8594,21.625 975.625,21.8906 Q975.3906,22.1563 975.0156,22.1563 Q974.6719,22.1563 974.4688,21.9531 Q974.2656,21.7656 974.1563,21.25 Q974.1094,20.8906 973.9219,20.7031 Q973.5938,20.3281 972.9844,20.1094 Q972.375,19.8906 971.75,19.8906 Q970.9844,19.8906 970.3516,20.2188 Q969.7188,20.5469 969.2266,21.2969 Q968.7344,22.0469 968.7344,23.0781 L968.7344,24.1719 Q968.7344,25.4063 969.625,26.2266 Q970.5156,27.0469 972.1094,27.0469 Q973.0469,27.0469 973.7031,26.7969 Q974.0938,26.6406 974.5156,26.2031 Q974.7813,25.9375 974.9297,25.8594 Q975.0781,25.7813 975.2813,25.7813 Q975.6094,25.7813 975.8672,26.0391 Q976.125,26.2969 976.125,26.6406 Q976.125,26.9844 975.7813,27.3906 Q975.2813,27.9688 974.4844,28.2969 Q973.4063,28.75 972.1094,28.75 Q970.5938,28.75 969.3906,28.125 Q968.4063,27.625 967.7188,26.5547 Q967.0313,25.4844 967.0313,24.2031 L967.0313,23.0469 Q967.0313,21.7188 967.6484,20.5703 Q968.2656,19.4219 969.3594,18.8047 Q970.4531,18.1875 971.6875,18.1875 Q972.4219,18.1875 973.0703,18.3516 Q973.7188,18.5156 974.2656,18.875 Z " fill="#000000"/><text fill="#000000" font-family="sans-serif" font-size="14" lengthAdjust="spacing" textLength="46" x="985.5" y="28.7285">Worker</text><line style="stroke:#181818;stroke-width:0.5;" x1="957.5" x2="1033.5" y1="39" y2="39"/><line style="stroke:#181818;stroke-width:0.5;" x1="957.5" x2="1033.5" y1="47" y2="47"/><text fill="#000000" font-family="sans-serif" font-size="14" lengthAdjust="spacing" textLength="38" x="962.5" y="65.5332">start()</text><text fill="#000000" font-family="sans-serif" font-size="14" lengthAdjust="spacing" textLength="59" x="962.5" y="83.1426">execute()</text><text fill="#000000" font-family="sans-serif" font-size="14" lengthAdjust="spacing" textLength="37" x="962.5" y="100.752">stop()</text><text fill="#000000" font-family="sans-serif" font-size="14" lengthAdjust="spacing" textLength="48" x="962.5" y="118.3613">action()</text></g><!--class TaalcBot--><g id="elem_TaalcBot"><rect codeLine="9" fill="#F1F1F1" height="48" id="TaalcBot" rx="2.5" ry="2.5" style="stroke:#181818;stroke-width:0.5;" width="88" x="1187.5" y="42"/><ellipse cx="1202.5" cy="58" fill="#ADD1B2" rx="11" ry="11" style="stroke:#181818;stroke-width:1.0;"/><path d="M1205.2656,53.875 Q1205.4219,53.6563 1205.6094,53.5469 Q1205.7969,53.4375 1206.0156,53.4375 Q1206.3906,53.4375 1206.625,53.6953 Q1206.8594,53.9531 1206.8594,54.5625 L1206.8594,56.0156 Q1206.8594,56.625 1206.625,56.8906 Q1206.3906,57.1563 1206.0156,57.1563 Q1205.6719,57.1563 1205.4688,56.9531 Q1205.2656,56.7656 1205.1563,56.25 Q1205.1094,55.8906 1204.9219,55.7031 Q1204.5938,55.3281 1203.9844,55.1094 Q1203.375,54.8906 1202.75,54.8906 Q1201.9844,54.8906 1201.3516,55.2188 Q1200.7188,55.5469 1200.2266,56.2969 Q1199.7344,57.0469 1199.7344,58.0781 L1199.7344,59.1719 Q1199.7344,60.4063 1200.625,61.2266 Q1201.5156,62.0469 1203.1094,62.0469 Q1204.0469,62.0469 1204.7031,61.7969 Q1205.0938,61.6406 1205.5156,61.2031 Q1205.7813,60.9375 1205.9297,60.8594 Q1206.0781,60.7813 1206.2813,60.7813 Q1206.6094,60.7813 1206.8672,61.0391 Q1207.125,61.2969 1207.125,61.6406 Q1207.125,61.9844 1206.7813,62.3906 Q1206.2813,62.9688 1205.4844,63.2969 Q1204.4063,63.75 1203.1094,63.75 Q1201.5938,63.75 1200.3906,63.125 Q1199.4063,62.625 1198.7188,61.5547 Q1198.0313,60.4844 1198.0313,59.2031 L1198.0313,58.0469 Q1198.0313,56.7188 1198.6484,55.5703 Q1199.2656,54.4219 1200.3594,53.8047 Q1201.4531,53.1875 1202.6875,53.1875 Q1203.4219,53.1875 1204.0703,53.3516 Q1204.7188,53.5156 1205.2656,53.875 Z " fill="#000000"/><text fill="#000000" font-family="sans-serif" font-size="14" lengthAdjust="spacing" textLength="56" x="1216.5" y="63.7285">TaalcBot</text><line style="stroke:#181818;stroke-width:0.5;" x1="1188.5" x2="1274.5" y1="74" y2="74"/><line style="stroke:#181818;stroke-width:0.5;" x1="1188.5" x2="1274.5" y1="82" y2="82"/></g><!--class TaalcTransaction--><g id="elem_TaalcTransaction"><rect codeLine="11" fill="#F1F1F1" height="118.4375" id="TaalcTransaction" rx="2.5" ry="2.5" style="stroke:#181818;stroke-width:0.5;" width="142" x="544.5" y="7"/><ellipse cx="559.5" cy="23" fill="#ADD1B2" rx="11" ry="11" style="stroke:#181818;stroke-width:1.0;"/><path d="M562.2656,18.875 Q562.4219,18.6563 562.6094,18.5469 Q562.7969,18.4375 563.0156,18.4375 Q563.3906,18.4375 563.625,18.6953 Q563.8594,18.9531 563.8594,19.5625 L563.8594,21.0156 Q563.8594,21.625 563.625,21.8906 Q563.3906,22.1563 563.0156,22.1563 Q562.6719,22.1563 562.4688,21.9531 Q562.2656,21.7656 562.1563,21.25 Q562.1094,20.8906 561.9219,20.7031 Q561.5938,20.3281 560.9844,20.1094 Q560.375,19.8906 559.75,19.8906 Q558.9844,19.8906 558.3516,20.2188 Q557.7188,20.5469 557.2266,21.2969 Q556.7344,22.0469 556.7344,23.0781 L556.7344,24.1719 Q556.7344,25.4063 557.625,26.2266 Q558.5156,27.0469 560.1094,27.0469 Q561.0469,27.0469 561.7031,26.7969 Q562.0938,26.6406 562.5156,26.2031 Q562.7813,25.9375 562.9297,25.8594 Q563.0781,25.7813 563.2813,25.7813 Q563.6094,25.7813 563.8672,26.0391 Q564.125,26.2969 564.125,26.6406 Q564.125,26.9844 563.7813,27.3906 Q563.2813,27.9688 562.4844,28.2969 Q561.4063,28.75 560.1094,28.75 Q558.5938,28.75 557.3906,28.125 Q556.4063,27.625 555.7188,26.5547 Q555.0313,25.4844 555.0313,24.2031 L555.0313,23.0469 Q555.0313,21.7188 555.6484,20.5703 Q556.2656,19.4219 557.3594,18.8047 Q558.4531,18.1875 559.6875,18.1875 Q560.4219,18.1875 561.0703,18.3516 Q561.7188,18.5156 562.2656,18.875 Z " fill="#000000"/><text fill="#000000" font-family="sans-serif" font-size="14" lengthAdjust="spacing" textLength="110" x="573.5" y="28.7285">TaalcTransaction</text><line style="stroke:#181818;stroke-width:0.5;" x1="545.5" x2="685.5" y1="39" y2="39"/><text fill="#000000" font-family="sans-serif" font-size="14" lengthAdjust="spacing" textLength="113" x="550.5" y="57.5332">transaction_batch</text><text fill="#000000" font-family="sans-serif" font-size="14" lengthAdjust="spacing" textLength="28" x="550.5" y="75.1426">from</text><text fill="#000000" font-family="sans-serif" font-size="14" lengthAdjust="spacing" textLength="12" x="550.5" y="92.752">to</text><text fill="#000000" font-family="sans-serif" font-size="14" lengthAdjust="spacing" textLength="104" x="550.5" y="110.3613">transaction_time</text><line style="stroke:#181818;stroke-width:0.5;" x1="545.5" x2="685.5" y1="117.4375" y2="117.4375"/></g><!--class CurrencyTransaction--><g id="elem_CurrencyTransaction"><rect codeLine="18" fill="#F1F1F1" height="83.2188" id="CurrencyTransaction" rx="2.5" ry="2.5" style="stroke:#181818;stroke-width:0.5;" width="165" x="68" y="264.5"/><ellipse cx="83" cy="280.5" fill="#ADD1B2" rx="11" ry="11" style="stroke:#181818;stroke-width:1.0;"/><path d="M85.7656,276.375 Q85.9219,276.1563 86.1094,276.0469 Q86.2969,275.9375 86.5156,275.9375 Q86.8906,275.9375 87.125,276.1953 Q87.3594,276.4531 87.3594,277.0625 L87.3594,278.5156 Q87.3594,279.125 87.125,279.3906 Q86.8906,279.6563 86.5156,279.6563 Q86.1719,279.6563 85.9688,279.4531 Q85.7656,279.2656 85.6563,278.75 Q85.6094,278.3906 85.4219,278.2031 Q85.0938,277.8281 84.4844,277.6094 Q83.875,277.3906 83.25,277.3906 Q82.4844,277.3906 81.8516,277.7188 Q81.2188,278.0469 80.7266,278.7969 Q80.2344,279.5469 80.2344,280.5781 L80.2344,281.6719 Q80.2344,282.9063 81.125,283.7266 Q82.0156,284.5469 83.6094,284.5469 Q84.5469,284.5469 85.2031,284.2969 Q85.5938,284.1406 86.0156,283.7031 Q86.2813,283.4375 86.4297,283.3594 Q86.5781,283.2813 86.7813,283.2813 Q87.1094,283.2813 87.3672,283.5391 Q87.625,283.7969 87.625,284.1406 Q87.625,284.4844 87.2813,284.8906 Q86.7813,285.4688 85.9844,285.7969 Q84.9063,286.25 83.6094,286.25 Q82.0938,286.25 80.8906,285.625 Q79.9063,285.125 79.2188,284.0547 Q78.5313,282.9844 78.5313,281.7031 L78.5313,280.5469 Q78.5313,279.2188 79.1484,278.0703 Q79.7656,276.9219 80.8594,276.3047 Q81.9531,275.6875 83.1875,275.6875 Q83.9219,275.6875 84.5703,275.8516 Q85.2188,276.0156 85.7656,276.375 Z " fill="#000000"/><text fill="#000000" font-family="sans-serif" font-size="14" lengthAdjust="spacing" textLength="133" x="97" y="286.2285">CurrencyTransaction</text><line style="stroke:#181818;stroke-width:0.5;" x1="69" x2="232" y1="296.5" y2="296.5"/><text fill="#000000" font-family="sans-serif" font-size="14" lengthAdjust="spacing" textLength="55" x="74" y="315.0332">currency</text><text fill="#000000" font-family="sans-serif" font-size="14" lengthAdjust="spacing" textLength="47" x="74" y="332.6426">amount</text><line style="stroke:#181818;stroke-width:0.5;" x1="69" x2="232" y1="339.7188" y2="339.7188"/></g><!--class NftTransaction--><g id="elem_NftTransaction"><rect codeLine="23" fill="#F1F1F1" height="48" id="NftTransaction" rx="2.5" ry="2.5" style="stroke:#181818;stroke-width:0.5;" width="124" x="816.5" y="282"/><ellipse cx="831.5" cy="298" fill="#ADD1B2" rx="11" ry="11" style="stroke:#181818;stroke-width:1.0;"/><path d="M834.2656,293.875 Q834.4219,293.6563 834.6094,293.5469 Q834.7969,293.4375 835.0156,293.4375 Q835.3906,293.4375 835.625,293.6953 Q835.8594,293.9531 835.8594,294.5625 L835.8594,296.0156 Q835.8594,296.625 835.625,296.8906 Q835.3906,297.1563 835.0156,297.1563 Q834.6719,297.1563 834.4688,296.9531 Q834.2656,296.7656 834.1563,296.25 Q834.1094,295.8906 833.9219,295.7031 Q833.5938,295.3281 832.9844,295.1094 Q832.375,294.8906 831.75,294.8906 Q830.9844,294.8906 830.3516,295.2188 Q829.7188,295.5469 829.2266,296.2969 Q828.7344,297.0469 828.7344,298.0781 L828.7344,299.1719 Q828.7344,300.4063 829.625,301.2266 Q830.5156,302.0469 832.1094,302.0469 Q833.0469,302.0469 833.7031,301.7969 Q834.0938,301.6406 834.5156,301.2031 Q834.7813,300.9375 834.9297,300.8594 Q835.0781,300.7813 835.2813,300.7813 Q835.6094,300.7813 835.8672,301.0391 Q836.125,301.2969 836.125,301.6406 Q836.125,301.9844 835.7813,302.3906 Q835.2813,302.9688 834.4844,303.2969 Q833.4063,303.75 832.1094,303.75 Q830.5938,303.75 829.3906,303.125 Q828.4063,302.625 827.7188,301.5547 Q827.0313,300.4844 827.0313,299.2031 L827.0313,298.0469 Q827.0313,296.7188 827.6484,295.5703 Q828.2656,294.4219 829.3594,293.8047 Q830.4531,293.1875 831.6875,293.1875 Q832.4219,293.1875 833.0703,293.3516 Q833.7188,293.5156 834.2656,293.875 Z " fill="#000000"/><text fill="#000000" font-family="sans-serif" font-size="14" lengthAdjust="spacing" textLength="92" x="845.5" y="303.7285">NftTransaction</text><line style="stroke:#181818;stroke-width:0.5;" x1="817.5" x2="939.5" y1="314" y2="314"/><line style="stroke:#181818;stroke-width:0.5;" x1="817.5" x2="939.5" y1="322" y2="322"/></g><!--class TransactionBatch--><g id="elem_TransactionBatch"><rect codeLine="25" fill="#F1F1F1" height="48" id="TransactionBatch" rx="2.5" ry="2.5" style="stroke:#181818;stroke-width:0.5;" width="143" x="7" y="513.5"/><ellipse cx="22" cy="529.5" fill="#ADD1B2" rx="11" ry="11" style="stroke:#181818;stroke-width:1.0;"/><path d="M24.7656,525.375 Q24.9219,525.1563 25.1094,525.0469 Q25.2969,524.9375 25.5156,524.9375 Q25.8906,524.9375 26.125,525.1953 Q26.3594,525.4531 26.3594,526.0625 L26.3594,527.5156 Q26.3594,528.125 26.125,528.3906 Q25.8906,528.6563 25.5156,528.6563 Q25.1719,528.6563 24.9688,528.4531 Q24.7656,528.2656 24.6563,527.75 Q24.6094,527.3906 24.4219,527.2031 Q24.0938,526.8281 23.4844,526.6094 Q22.875,526.3906 22.25,526.3906 Q21.4844,526.3906 20.8516,526.7188 Q20.2188,527.0469 19.7266,527.7969 Q19.2344,528.5469 19.2344,529.5781 L19.2344,530.6719 Q19.2344,531.9063 20.125,532.7266 Q21.0156,533.5469 22.6094,533.5469 Q23.5469,533.5469 24.2031,533.2969 Q24.5938,533.1406 25.0156,532.7031 Q25.2813,532.4375 25.4297,532.3594 Q25.5781,532.2813 25.7813,532.2813 Q26.1094,532.2813 26.3672,532.5391 Q26.625,532.7969 26.625,533.1406 Q26.625,533.4844 26.2813,533.8906 Q25.7813,534.4688 24.9844,534.7969 Q23.9063,535.25 22.6094,535.25 Q21.0938,535.25 19.8906,534.625 Q18.9063,534.125 18.2188,533.0547 Q17.5313,531.9844 17.5313,530.7031 L17.5313,529.5469 Q17.5313,528.2188 18.1484,527.0703 Q18.7656,525.9219 19.8594,525.3047 Q20.9531,524.6875 22.1875,524.6875 Q22.9219,524.6875 23.5703,524.8516 Q24.2188,525.0156 24.7656,525.375 Z " fill="#000000"/><text fill="#000000" font-family="sans-serif" font-size="14" lengthAdjust="spacing" textLength="111" x="36" y="535.2285">TransactionBatch</text><line style="stroke:#181818;stroke-width:0.5;" x1="8" x2="149" y1="545.5" y2="545.5"/><line style="stroke:#181818;stroke-width:0.5;" x1="8" x2="149" y1="553.5" y2="553.5"/></g><!--class TokensBag--><g id="elem_TokensBag"><rect codeLine="27" fill="#F1F1F1" height="83.2188" id="TokensBag" rx="2.5" ry="2.5" style="stroke:#181818;stroke-width:0.5;" width="104" x="180.5" y="809"/><ellipse cx="195.5" cy="825" fill="#ADD1B2" rx="11" ry="11" style="stroke:#181818;stroke-width:1.0;"/><path d="M198.2656,820.875 Q198.4219,820.6563 198.6094,820.5469 Q198.7969,820.4375 199.0156,820.4375 Q199.3906,820.4375 199.625,820.6953 Q199.8594,820.9531 199.8594,821.5625 L199.8594,823.0156 Q199.8594,823.625 199.625,823.8906 Q199.3906,824.1563 199.0156,824.1563 Q198.6719,824.1563 198.4688,823.9531 Q198.2656,823.7656 198.1563,823.25 Q198.1094,822.8906 197.9219,822.7031 Q197.5938,822.3281 196.9844,822.1094 Q196.375,821.8906 195.75,821.8906 Q194.9844,821.8906 194.3516,822.2188 Q193.7188,822.5469 193.2266,823.2969 Q192.7344,824.0469 192.7344,825.0781 L192.7344,826.1719 Q192.7344,827.4063 193.625,828.2266 Q194.5156,829.0469 196.1094,829.0469 Q197.0469,829.0469 197.7031,828.7969 Q198.0938,828.6406 198.5156,828.2031 Q198.7813,827.9375 198.9297,827.8594 Q199.0781,827.7813 199.2813,827.7813 Q199.6094,827.7813 199.8672,828.0391 Q200.125,828.2969 200.125,828.6406 Q200.125,828.9844 199.7813,829.3906 Q199.2813,829.9688 198.4844,830.2969 Q197.4063,830.75 196.1094,830.75 Q194.5938,830.75 193.3906,830.125 Q192.4063,829.625 191.7188,828.5547 Q191.0313,827.4844 191.0313,826.2031 L191.0313,825.0469 Q191.0313,823.7188 191.6484,822.5703 Q192.2656,821.4219 193.3594,820.8047 Q194.4531,820.1875 195.6875,820.1875 Q196.4219,820.1875 197.0703,820.3516 Q197.7188,820.5156 198.2656,820.875 Z " fill="#000000"/><text fill="#000000" font-family="sans-serif" font-size="14" lengthAdjust="spacing" textLength="72" x="209.5" y="830.7285">TokensBag</text><line style="stroke:#181818;stroke-width:0.5;" x1="181.5" x2="283.5" y1="841" y2="841"/><text fill="#000000" font-family="sans-serif" font-size="14" lengthAdjust="spacing" textLength="28" x="186.5" y="859.5332">user</text><text fill="#000000" font-family="sans-serif" font-size="14" lengthAdjust="spacing" textLength="70" x="186.5" y="877.1426">List[Token]</text><line style="stroke:#181818;stroke-width:0.5;" x1="181.5" x2="283.5" y1="884.2188" y2="884.2188"/></g><!--class TUser--><g id="elem_TUser"><rect codeLine="32" fill="#F1F1F1" height="48" id="TUser" rx="2.5" ry="2.5" style="stroke:#181818;stroke-width:0.5;" width="70" x="75.5" y="826.5"/><ellipse cx="90.5" cy="842.5" fill="#ADD1B2" rx="11" ry="11" style="stroke:#181818;stroke-width:1.0;"/><path d="M93.2656,838.375 Q93.4219,838.1563 93.6094,838.0469 Q93.7969,837.9375 94.0156,837.9375 Q94.3906,837.9375 94.625,838.1953 Q94.8594,838.4531 94.8594,839.0625 L94.8594,840.5156 Q94.8594,841.125 94.625,841.3906 Q94.3906,841.6563 94.0156,841.6563 Q93.6719,841.6563 93.4688,841.4531 Q93.2656,841.2656 93.1563,840.75 Q93.1094,840.3906 92.9219,840.2031 Q92.5938,839.8281 91.9844,839.6094 Q91.375,839.3906 90.75,839.3906 Q89.9844,839.3906 89.3516,839.7188 Q88.7188,840.0469 88.2266,840.7969 Q87.7344,841.5469 87.7344,842.5781 L87.7344,843.6719 Q87.7344,844.9063 88.625,845.7266 Q89.5156,846.5469 91.1094,846.5469 Q92.0469,846.5469 92.7031,846.2969 Q93.0938,846.1406 93.5156,845.7031 Q93.7813,845.4375 93.9297,845.3594 Q94.0781,845.2813 94.2813,845.2813 Q94.6094,845.2813 94.8672,845.5391 Q95.125,845.7969 95.125,846.1406 Q95.125,846.4844 94.7813,846.8906 Q94.2813,847.4688 93.4844,847.7969 Q92.4063,848.25 91.1094,848.25 Q89.5938,848.25 88.3906,847.625 Q87.4063,847.125 86.7188,846.0547 Q86.0313,844.9844 86.0313,843.7031 L86.0313,842.5469 Q86.0313,841.2188 86.6484,840.0703 Q87.2656,838.9219 88.3594,838.3047 Q89.4531,837.6875 90.6875,837.6875 Q91.4219,837.6875 92.0703,837.8516 Q92.7188,838.0156 93.2656,838.375 Z " fill="#000000"/><text fill="#000000" font-family="sans-serif" font-size="14" lengthAdjust="spacing" textLength="38" x="104.5" y="848.2285">TUser</text><line style="stroke:#181818;stroke-width:0.5;" x1="76.5" x2="144.5" y1="858.5" y2="858.5"/><line style="stroke:#181818;stroke-width:0.5;" x1="76.5" x2="144.5" y1="866.5" y2="866.5"/></g><!--class TMember--><g id="elem_TMember"><rect codeLine="36" fill="#F1F1F1" height="65.6094" id="TMember" rx="2.5" ry="2.5" style="stroke:#181818;stroke-width:0.5;" width="92" x="66.5" y="665.5"/><ellipse cx="81.5" cy="681.5" fill="#ADD1B2" rx="11" ry="11" style="stroke:#181818;stroke-width:1.0;"/><path d="M84.2656,677.375 Q84.4219,677.1563 84.6094,677.0469 Q84.7969,676.9375 85.0156,676.9375 Q85.3906,676.9375 85.625,677.1953 Q85.8594,677.4531 85.8594,678.0625 L85.8594,679.5156 Q85.8594,680.125 85.625,680.3906 Q85.3906,680.6563 85.0156,680.6563 Q84.6719,680.6563 84.4688,680.4531 Q84.2656,680.2656 84.1563,679.75 Q84.1094,679.3906 83.9219,679.2031 Q83.5938,678.8281 82.9844,678.6094 Q82.375,678.3906 81.75,678.3906 Q80.9844,678.3906 80.3516,678.7188 Q79.7188,679.0469 79.2266,679.7969 Q78.7344,680.5469 78.7344,681.5781 L78.7344,682.6719 Q78.7344,683.9063 79.625,684.7266 Q80.5156,685.5469 82.1094,685.5469 Q83.0469,685.5469 83.7031,685.2969 Q84.0938,685.1406 84.5156,684.7031 Q84.7813,684.4375 84.9297,684.3594 Q85.0781,684.2813 85.2813,684.2813 Q85.6094,684.2813 85.8672,684.5391 Q86.125,684.7969 86.125,685.1406 Q86.125,685.4844 85.7813,685.8906 Q85.2813,686.4688 84.4844,686.7969 Q83.4063,687.25 82.1094,687.25 Q80.5938,687.25 79.3906,686.625 Q78.4063,686.125 77.7188,685.0547 Q77.0313,683.9844 77.0313,682.7031 L77.0313,681.5469 Q77.0313,680.2188 77.6484,679.0703 Q78.2656,677.9219 79.3594,677.3047 Q80.4531,676.6875 81.6875,676.6875 Q82.4219,676.6875 83.0703,676.8516 Q83.7188,677.0156 84.2656,677.375 Z " fill="#000000"/><text fill="#000000" font-family="sans-serif" font-size="14" lengthAdjust="spacing" textLength="60" x="95.5" y="687.2285">TMember</text><line style="stroke:#181818;stroke-width:0.5;" x1="67.5" x2="157.5" y1="697.5" y2="697.5"/><text fill="#000000" font-family="sans-serif" font-size="14" lengthAdjust="spacing" textLength="74" x="72.5" y="716.0332">telegram_id</text><line style="stroke:#181818;stroke-width:0.5;" x1="67.5" x2="157.5" y1="723.1094" y2="723.1094"/></g><!--class Wallet--><g id="elem_Wallet"><rect codeLine="40" fill="#F1F1F1" height="100.8281" id="Wallet" rx="2.5" ry="2.5" style="stroke:#181818;stroke-width:0.5;" width="71" x="195" y="648"/><ellipse cx="210" cy="664" fill="#ADD1B2" rx="11" ry="11" style="stroke:#181818;stroke-width:1.0;"/><path d="M212.7656,659.875 Q212.9219,659.6563 213.1094,659.5469 Q213.2969,659.4375 213.5156,659.4375 Q213.8906,659.4375 214.125,659.6953 Q214.3594,659.9531 214.3594,660.5625 L214.3594,662.0156 Q214.3594,662.625 214.125,662.8906 Q213.8906,663.1563 213.5156,663.1563 Q213.1719,663.1563 212.9688,662.9531 Q212.7656,662.7656 212.6563,662.25 Q212.6094,661.8906 212.4219,661.7031 Q212.0938,661.3281 211.4844,661.1094 Q210.875,660.8906 210.25,660.8906 Q209.4844,660.8906 208.8516,661.2188 Q208.2188,661.5469 207.7266,662.2969 Q207.2344,663.0469 207.2344,664.0781 L207.2344,665.1719 Q207.2344,666.4063 208.125,667.2266 Q209.0156,668.0469 210.6094,668.0469 Q211.5469,668.0469 212.2031,667.7969 Q212.5938,667.6406 213.0156,667.2031 Q213.2813,666.9375 213.4297,666.8594 Q213.5781,666.7813 213.7813,666.7813 Q214.1094,666.7813 214.3672,667.0391 Q214.625,667.2969 214.625,667.6406 Q214.625,667.9844 214.2813,668.3906 Q213.7813,668.9688 212.9844,669.2969 Q211.9063,669.75 210.6094,669.75 Q209.0938,669.75 207.8906,669.125 Q206.9063,668.625 206.2188,667.5547 Q205.5313,666.4844 205.5313,665.2031 L205.5313,664.0469 Q205.5313,662.7188 206.1484,661.5703 Q206.7656,660.4219 207.8594,659.8047 Q208.9531,659.1875 210.1875,659.1875 Q210.9219,659.1875 211.5703,659.3516 Q212.2188,659.5156 212.7656,659.875 Z " fill="#000000"/><text fill="#000000" font-family="sans-serif" font-size="14" lengthAdjust="spacing" textLength="39" x="224" y="669.7285">Wallet</text><line style="stroke:#181818;stroke-width:0.5;" x1="196" x2="265" y1="680" y2="680"/><text fill="#000000" font-family="sans-serif" font-size="14" lengthAdjust="spacing" textLength="51" x="201" y="698.5332">member</text><text fill="#000000" font-family="sans-serif" font-size="14" lengthAdjust="spacing" textLength="55" x="201" y="716.1426">currency</text><text fill="#000000" font-family="sans-serif" font-size="14" lengthAdjust="spacing" textLength="47" x="201" y="733.752">amount</text><line style="stroke:#181818;stroke-width:0.5;" x1="196" x2="265" y1="740.8281" y2="740.8281"/></g><!--class TaalcToken--><g id="elem_TaalcToken"><rect codeLine="47" fill="#F1F1F1" height="65.6094" id="TaalcToken" rx="2.5" ry="2.5" style="stroke:#181818;stroke-width:0.5;" width="107" x="268" y="273"/><ellipse cx="283" cy="289" fill="#ADD1B2" rx="11" ry="11" style="stroke:#181818;stroke-width:1.0;"/><path d="M285.7656,284.875 Q285.9219,284.6563 286.1094,284.5469 Q286.2969,284.4375 286.5156,284.4375 Q286.8906,284.4375 287.125,284.6953 Q287.3594,284.9531 287.3594,285.5625 L287.3594,287.0156 Q287.3594,287.625 287.125,287.8906 Q286.8906,288.1563 286.5156,288.1563 Q286.1719,288.1563 285.9688,287.9531 Q285.7656,287.7656 285.6563,287.25 Q285.6094,286.8906 285.4219,286.7031 Q285.0938,286.3281 284.4844,286.1094 Q283.875,285.8906 283.25,285.8906 Q282.4844,285.8906 281.8516,286.2188 Q281.2188,286.5469 280.7266,287.2969 Q280.2344,288.0469 280.2344,289.0781 L280.2344,290.1719 Q280.2344,291.4063 281.125,292.2266 Q282.0156,293.0469 283.6094,293.0469 Q284.5469,293.0469 285.2031,292.7969 Q285.5938,292.6406 286.0156,292.2031 Q286.2813,291.9375 286.4297,291.8594 Q286.5781,291.7813 286.7813,291.7813 Q287.1094,291.7813 287.3672,292.0391 Q287.625,292.2969 287.625,292.6406 Q287.625,292.9844 287.2813,293.3906 Q286.7813,293.9688 285.9844,294.2969 Q284.9063,294.75 283.6094,294.75 Q282.0938,294.75 280.8906,294.125 Q279.9063,293.625 279.2188,292.5547 Q278.5313,291.4844 278.5313,290.2031 L278.5313,289.0469 Q278.5313,287.7188 279.1484,286.5703 Q279.7656,285.4219 280.8594,284.8047 Q281.9531,284.1875 283.1875,284.1875 Q283.9219,284.1875 284.5703,284.3516 Q285.2188,284.5156 285.7656,284.875 Z " fill="#000000"/><text fill="#000000" font-family="sans-serif" font-size="14" lengthAdjust="spacing" textLength="75" x="297" y="294.7285">TaalcToken</text><line style="stroke:#181818;stroke-width:0.5;" x1="269" x2="374" y1="305" y2="305"/><text fill="#000000" font-family="sans-serif" font-size="14" lengthAdjust="spacing" textLength="35" x="274" y="323.5332">name</text><line style="stroke:#181818;stroke-width:0.5;" x1="269" x2="374" y1="330.6094" y2="330.6094"/></g><!--class TMessage--><g id="elem_TMessage"><rect codeLine="52" fill="#F1F1F1" height="153.6563" id="TMessage" rx="2.5" ry="2.5" style="stroke:#181818;stroke-width:0.5;" width="98" x="410.5" y="229"/><ellipse cx="425.5" cy="245" fill="#ADD1B2" rx="11" ry="11" style="stroke:#181818;stroke-width:1.0;"/><path d="M428.2656,240.875 Q428.4219,240.6563 428.6094,240.5469 Q428.7969,240.4375 429.0156,240.4375 Q429.3906,240.4375 429.625,240.6953 Q429.8594,240.9531 429.8594,241.5625 L429.8594,243.0156 Q429.8594,243.625 429.625,243.8906 Q429.3906,244.1563 429.0156,244.1563 Q428.6719,244.1563 428.4688,243.9531 Q428.2656,243.7656 428.1563,243.25 Q428.1094,242.8906 427.9219,242.7031 Q427.5938,242.3281 426.9844,242.1094 Q426.375,241.8906 425.75,241.8906 Q424.9844,241.8906 424.3516,242.2188 Q423.7188,242.5469 423.2266,243.2969 Q422.7344,244.0469 422.7344,245.0781 L422.7344,246.1719 Q422.7344,247.4063 423.625,248.2266 Q424.5156,249.0469 426.1094,249.0469 Q427.0469,249.0469 427.7031,248.7969 Q428.0938,248.6406 428.5156,248.2031 Q428.7813,247.9375 428.9297,247.8594 Q429.0781,247.7813 429.2813,247.7813 Q429.6094,247.7813 429.8672,248.0391 Q430.125,248.2969 430.125,248.6406 Q430.125,248.9844 429.7813,249.3906 Q429.2813,249.9688 428.4844,250.2969 Q427.4063,250.75 426.1094,250.75 Q424.5938,250.75 423.3906,250.125 Q422.4063,249.625 421.7188,248.5547 Q421.0313,247.4844 421.0313,246.2031 L421.0313,245.0469 Q421.0313,243.7188 421.6484,242.5703 Q422.2656,241.4219 423.3594,240.8047 Q424.4531,240.1875 425.6875,240.1875 Q426.4219,240.1875 427.0703,240.3516 Q427.7188,240.5156 428.2656,240.875 Z " fill="#000000"/><text fill="#000000" font-family="sans-serif" font-size="14" lengthAdjust="spacing" textLength="66" x="439.5" y="250.7285">TMessage</text><line style="stroke:#181818;stroke-width:0.5;" x1="411.5" x2="507.5" y1="261" y2="261"/><text fill="#000000" font-family="sans-serif" font-size="14" lengthAdjust="spacing" textLength="38" x="416.5" y="279.5332">owner</text><text fill="#000000" font-family="sans-serif" font-size="14" lengthAdjust="spacing" textLength="45" x="416.5" y="297.1426">creator</text><text fill="#000000" font-family="sans-serif" font-size="14" lengthAdjust="spacing" textLength="67" x="416.5" y="314.752">taalc_offer</text><text fill="#000000" font-family="sans-serif" font-size="14" lengthAdjust="spacing" textLength="54" x="416.5" y="332.3613">taalc_nft</text><text fill="#000000" font-family="sans-serif" font-size="14" lengthAdjust="spacing" textLength="65" x="416.5" y="349.9707">taalc_chat</text><text fill="#000000" font-family="sans-serif" font-size="14" lengthAdjust="spacing" textLength="31" x="416.5" y="367.5801">tg_id</text><line style="stroke:#181818;stroke-width:0.5;" x1="411.5" x2="507.5" y1="374.6563" y2="374.6563"/></g><!--class NftState--><g id="elem_NftState"><rect codeLine="61" fill="#F1F1F1" height="100.8281" id="NftState" rx="2.5" ry="2.5" style="stroke:#181818;stroke-width:0.5;" width="91" x="800" y="487"/><ellipse cx="819.05" cy="503" fill="#EB937F" rx="11" ry="11" style="stroke:#181818;stroke-width:1.0;"/><path d="M817.9094,503.7969 L817.9094,506.2969 L822.2375,506.2969 L822.2375,505.375 Q822.2375,504.7656 822.4797,504.5 Q822.7219,504.2344 823.0969,504.2344 Q823.4719,504.2344 823.7063,504.5 Q823.9406,504.7656 823.9406,505.375 L823.9406,508 L815.9406,508 Q815.3156,508 815.0578,507.7656 Q814.8,507.5313 814.8,507.1406 Q814.8,506.7656 815.0656,506.5313 Q815.3313,506.2969 815.9406,506.2969 L816.2063,506.2969 L816.2063,499.6406 L815.9406,499.6406 Q815.3156,499.6406 815.0578,499.4063 Q814.8,499.1719 814.8,498.7813 Q814.8,498.4063 815.0578,498.1719 Q815.3156,497.9375 815.9406,497.9375 L823.5656,497.9375 L823.5656,500.5313 Q823.5656,501.1406 823.3391,501.3984 Q823.1125,501.6563 822.7219,501.6563 Q822.3469,501.6563 822.1125,501.3984 Q821.8781,501.1406 821.8781,500.5313 L821.8781,499.6406 L817.9094,499.6406 L817.9094,502.0938 L819.3938,502.0938 Q819.3938,501.4375 819.5188,501.25 Q819.7844,500.8438 820.2531,500.8438 Q820.6281,500.8438 820.8625,501.1016 Q821.0969,501.3594 821.0969,501.9688 L821.0969,503.9375 Q821.0969,504.4844 820.9719,504.6719 Q820.7063,505.0625 820.2531,505.0625 Q819.7844,505.0625 819.5188,504.6563 Q819.3938,504.4688 819.3938,503.7969 L817.9094,503.7969 Z " fill="#000000"/><text fill="#000000" font-family="sans-serif" font-size="14" lengthAdjust="spacing" textLength="50" x="833.95" y="508.7285">NftState</text><line style="stroke:#181818;stroke-width:0.5;" x1="801" x2="890" y1="519" y2="519"/><text fill="#000000" font-family="sans-serif" font-size="14" lengthAdjust="spacing" textLength="79" x="806" y="537.5332">is_published</text><text fill="#000000" font-family="sans-serif" font-size="14" lengthAdjust="spacing" textLength="70" x="806" y="555.1426">on_bidding</text><text fill="#000000" font-family="sans-serif" font-size="14" lengthAdjust="spacing" textLength="64" x="806" y="572.752">publishing</text><line style="stroke:#181818;stroke-width:0.5;" x1="801" x2="890" y1="579.8281" y2="579.8281"/></g><!--class TOffer--><g id="elem_TOffer"><rect codeLine="67" fill="#F1F1F1" height="241.7031" id="TOffer" rx="2.5" ry="2.5" style="stroke:#181818;stroke-width:0.5;" width="77" x="545" y="185"/><ellipse cx="561.8" cy="201" fill="#ADD1B2" rx="11" ry="11" style="stroke:#181818;stroke-width:1.0;"/><path d="M564.5656,196.875 Q564.7219,196.6563 564.9094,196.5469 Q565.0969,196.4375 565.3156,196.4375 Q565.6906,196.4375 565.925,196.6953 Q566.1594,196.9531 566.1594,197.5625 L566.1594,199.0156 Q566.1594,199.625 565.925,199.8906 Q565.6906,200.1563 565.3156,200.1563 Q564.9719,200.1563 564.7688,199.9531 Q564.5656,199.7656 564.4563,199.25 Q564.4094,198.8906 564.2219,198.7031 Q563.8938,198.3281 563.2844,198.1094 Q562.675,197.8906 562.05,197.8906 Q561.2844,197.8906 560.6516,198.2188 Q560.0188,198.5469 559.5266,199.2969 Q559.0344,200.0469 559.0344,201.0781 L559.0344,202.1719 Q559.0344,203.4063 559.925,204.2266 Q560.8156,205.0469 562.4094,205.0469 Q563.3469,205.0469 564.0031,204.7969 Q564.3938,204.6406 564.8156,204.2031 Q565.0813,203.9375 565.2297,203.8594 Q565.3781,203.7813 565.5813,203.7813 Q565.9094,203.7813 566.1672,204.0391 Q566.425,204.2969 566.425,204.6406 Q566.425,204.9844 566.0813,205.3906 Q565.5813,205.9688 564.7844,206.2969 Q563.7063,206.75 562.4094,206.75 Q560.8938,206.75 559.6906,206.125 Q558.7063,205.625 558.0188,204.5547 Q557.3313,203.4844 557.3313,202.2031 L557.3313,201.0469 Q557.3313,199.7188 557.9484,198.5703 Q558.5656,197.4219 559.6594,196.8047 Q560.7531,196.1875 561.9875,196.1875 Q562.7219,196.1875 563.3703,196.3516 Q564.0188,196.5156 564.5656,196.875 Z " fill="#000000"/><text fill="#000000" font-family="sans-serif" font-size="14" lengthAdjust="spacing" textLength="41" x="576.2" y="206.7285">TOffer</text><line style="stroke:#181818;stroke-width:0.5;" x1="546" x2="621" y1="217" y2="217"/><text fill="#000000" font-family="sans-serif" font-size="14" lengthAdjust="spacing" textLength="64" x="551" y="235.5332">from_user</text><text fill="#000000" font-family="sans-serif" font-size="14" lengthAdjust="spacing" textLength="48" x="551" y="253.1426">to_user</text><text fill="#000000" font-family="sans-serif" font-size="14" lengthAdjust="spacing" textLength="64" x="551" y="270.752">offer_type</text><text fill="#000000" font-family="sans-serif" font-size="14" lengthAdjust="spacing" textLength="45" x="551" y="288.3613">subject</text><text fill="#000000" font-family="sans-serif" font-size="14" lengthAdjust="spacing" textLength="55" x="551" y="305.9707">currency</text><text fill="#000000" font-family="sans-serif" font-size="14" lengthAdjust="spacing" textLength="31" x="551" y="323.5801">price</text><text fill="#000000" font-family="sans-serif" font-size="14" lengthAdjust="spacing" textLength="31" x="551" y="341.1895">state</text><text fill="#000000" font-family="sans-serif" font-size="14" lengthAdjust="spacing" textLength="26" x="551" y="358.7988">time</text><text fill="#000000" font-family="sans-serif" font-size="14" lengthAdjust="spacing" textLength="52" x="551" y="376.4082">duration</text><text fill="#000000" font-family="sans-serif" font-size="14" lengthAdjust="spacing" textLength="57" x="551" y="394.0176">message</text><text fill="#000000" font-family="sans-serif" font-size="14" lengthAdjust="spacing" textLength="65" x="551" y="411.627">bidding_id</text><line style="stroke:#181818;stroke-width:0.5;" x1="546" x2="621" y1="418.7031" y2="418.7031"/></g><!--class OfferState--><g id="elem_OfferState"><rect codeLine="80" fill="#F1F1F1" height="48" id="OfferState" rx="2.5" ry="2.5" style="stroke:#181818;stroke-width:0.5;" width="97" x="668" y="513.5"/><ellipse cx="683" cy="529.5" fill="#EB937F" rx="11" ry="11" style="stroke:#181818;stroke-width:1.0;"/><path d="M681.8594,530.2969 L681.8594,532.7969 L686.1875,532.7969 L686.1875,531.875 Q686.1875,531.2656 686.4297,531 Q686.6719,530.7344 687.0469,530.7344 Q687.4219,530.7344 687.6563,531 Q687.8906,531.2656 687.8906,531.875 L687.8906,534.5 L679.8906,534.5 Q679.2656,534.5 679.0078,534.2656 Q678.75,534.0313 678.75,533.6406 Q678.75,533.2656 679.0156,533.0313 Q679.2813,532.7969 679.8906,532.7969 L680.1563,532.7969 L680.1563,526.1406 L679.8906,526.1406 Q679.2656,526.1406 679.0078,525.9063 Q678.75,525.6719 678.75,525.2813 Q678.75,524.9063 679.0078,524.6719 Q679.2656,524.4375 679.8906,524.4375 L687.5156,524.4375 L687.5156,527.0313 Q687.5156,527.6406 687.2891,527.8984 Q687.0625,528.1563 686.6719,528.1563 Q686.2969,528.1563 686.0625,527.8984 Q685.8281,527.6406 685.8281,527.0313 L685.8281,526.1406 L681.8594,526.1406 L681.8594,528.5938 L683.3438,528.5938 Q683.3438,527.9375 683.4688,527.75 Q683.7344,527.3438 684.2031,527.3438 Q684.5781,527.3438 684.8125,527.6016 Q685.0469,527.8594 685.0469,528.4688 L685.0469,530.4375 Q685.0469,530.9844 684.9219,531.1719 Q684.6563,531.5625 684.2031,531.5625 Q683.7344,531.5625 683.4688,531.1563 Q683.3438,530.9688 683.3438,530.2969 L681.8594,530.2969 Z " fill="#000000"/><text fill="#000000" font-family="sans-serif" font-size="14" lengthAdjust="spacing" textLength="65" x="697" y="535.2285">OfferState</text><line style="stroke:#181818;stroke-width:0.5;" x1="669" x2="764" y1="545.5" y2="545.5"/><line style="stroke:#181818;stroke-width:0.5;" x1="669" x2="764" y1="553.5" y2="553.5"/></g><!--class OfferType--><g id="elem_OfferType"><rect codeLine="83" fill="#F1F1F1" height="48" id="OfferType" rx="2.5" ry="2.5" style="stroke:#181818;stroke-width:0.5;" width="96" x="536.5" y="513.5"/><ellipse cx="551.5" cy="529.5" fill="#EB937F" rx="11" ry="11" style="stroke:#181818;stroke-width:1.0;"/><path d="M550.3594,530.2969 L550.3594,532.7969 L554.6875,532.7969 L554.6875,531.875 Q554.6875,531.2656 554.9297,531 Q555.1719,530.7344 555.5469,530.7344 Q555.9219,530.7344 556.1563,531 Q556.3906,531.2656 556.3906,531.875 L556.3906,534.5 L548.3906,534.5 Q547.7656,534.5 547.5078,534.2656 Q547.25,534.0313 547.25,533.6406 Q547.25,533.2656 547.5156,533.0313 Q547.7813,532.7969 548.3906,532.7969 L548.6563,532.7969 L548.6563,526.1406 L548.3906,526.1406 Q547.7656,526.1406 547.5078,525.9063 Q547.25,525.6719 547.25,525.2813 Q547.25,524.9063 547.5078,524.6719 Q547.7656,524.4375 548.3906,524.4375 L556.0156,524.4375 L556.0156,527.0313 Q556.0156,527.6406 555.7891,527.8984 Q555.5625,528.1563 555.1719,528.1563 Q554.7969,528.1563 554.5625,527.8984 Q554.3281,527.6406 554.3281,527.0313 L554.3281,526.1406 L550.3594,526.1406 L550.3594,528.5938 L551.8438,528.5938 Q551.8438,527.9375 551.9688,527.75 Q552.2344,527.3438 552.7031,527.3438 Q553.0781,527.3438 553.3125,527.6016 Q553.5469,527.8594 553.5469,528.4688 L553.5469,530.4375 Q553.5469,530.9844 553.4219,531.1719 Q553.1563,531.5625 552.7031,531.5625 Q552.2344,531.5625 551.9688,531.1563 Q551.8438,530.9688 551.8438,530.2969 L550.3594,530.2969 Z " fill="#000000"/><text fill="#000000" font-family="sans-serif" font-size="14" lengthAdjust="spacing" textLength="64" x="565.5" y="535.2285">OfferType</text><line style="stroke:#181818;stroke-width:0.5;" x1="537.5" x2="631.5" y1="545.5" y2="545.5"/><line style="stroke:#181818;stroke-width:0.5;" x1="537.5" x2="631.5" y1="553.5" y2="553.5"/></g><!--class TChat--><g id="elem_TChat"><rect codeLine="86" fill="#F1F1F1" height="48" id="TChat" rx="2.5" ry="2.5" style="stroke:#181818;stroke-width:0.5;" width="71" x="311" y="513.5"/><ellipse cx="326" cy="529.5" fill="#ADD1B2" rx="11" ry="11" style="stroke:#181818;stroke-width:1.0;"/><path d="M328.7656,525.375 Q328.9219,525.1563 329.1094,525.0469 Q329.2969,524.9375 329.5156,524.9375 Q329.8906,524.9375 330.125,525.1953 Q330.3594,525.4531 330.3594,526.0625 L330.3594,527.5156 Q330.3594,528.125 330.125,528.3906 Q329.8906,528.6563 329.5156,528.6563 Q329.1719,528.6563 328.9688,528.4531 Q328.7656,528.2656 328.6563,527.75 Q328.6094,527.3906 328.4219,527.2031 Q328.0938,526.8281 327.4844,526.6094 Q326.875,526.3906 326.25,526.3906 Q325.4844,526.3906 324.8516,526.7188 Q324.2188,527.0469 323.7266,527.7969 Q323.2344,528.5469 323.2344,529.5781 L323.2344,530.6719 Q323.2344,531.9063 324.125,532.7266 Q325.0156,533.5469 326.6094,533.5469 Q327.5469,533.5469 328.2031,533.2969 Q328.5938,533.1406 329.0156,532.7031 Q329.2813,532.4375 329.4297,532.3594 Q329.5781,532.2813 329.7813,532.2813 Q330.1094,532.2813 330.3672,532.5391 Q330.625,532.7969 330.625,533.1406 Q330.625,533.4844 330.2813,533.8906 Q329.7813,534.4688 328.9844,534.7969 Q327.9063,535.25 326.6094,535.25 Q325.0938,535.25 323.8906,534.625 Q322.9063,534.125 322.2188,533.0547 Q321.5313,531.9844 321.5313,530.7031 L321.5313,529.5469 Q321.5313,528.2188 322.1484,527.0703 Q322.7656,525.9219 323.8594,525.3047 Q324.9531,524.6875 326.1875,524.6875 Q326.9219,524.6875 327.5703,524.8516 Q328.2188,525.0156 328.7656,525.375 Z " fill="#000000"/><text fill="#000000" font-family="sans-serif" font-size="14" lengthAdjust="spacing" textLength="39" x="340" y="535.2285">TChat</text><line style="stroke:#181818;stroke-width:0.5;" x1="312" x2="381" y1="545.5" y2="545.5"/><line style="stroke:#181818;stroke-width:0.5;" x1="312" x2="381" y1="553.5" y2="553.5"/></g><!--class Currency--><g id="elem_Currency"><rect codeLine="89" fill="#F1F1F1" height="48" id="Currency" rx="2.5" ry="2.5" style="stroke:#181818;stroke-width:0.5;" width="90" x="185.5" y="513.5"/><ellipse cx="200.5" cy="529.5" fill="#ADD1B2" rx="11" ry="11" style="stroke:#181818;stroke-width:1.0;"/><path d="M203.2656,525.375 Q203.4219,525.1563 203.6094,525.0469 Q203.7969,524.9375 204.0156,524.9375 Q204.3906,524.9375 204.625,525.1953 Q204.8594,525.4531 204.8594,526.0625 L204.8594,527.5156 Q204.8594,528.125 204.625,528.3906 Q204.3906,528.6563 204.0156,528.6563 Q203.6719,528.6563 203.4688,528.4531 Q203.2656,528.2656 203.1563,527.75 Q203.1094,527.3906 202.9219,527.2031 Q202.5938,526.8281 201.9844,526.6094 Q201.375,526.3906 200.75,526.3906 Q199.9844,526.3906 199.3516,526.7188 Q198.7188,527.0469 198.2266,527.7969 Q197.7344,528.5469 197.7344,529.5781 L197.7344,530.6719 Q197.7344,531.9063 198.625,532.7266 Q199.5156,533.5469 201.1094,533.5469 Q202.0469,533.5469 202.7031,533.2969 Q203.0938,533.1406 203.5156,532.7031 Q203.7813,532.4375 203.9297,532.3594 Q204.0781,532.2813 204.2813,532.2813 Q204.6094,532.2813 204.8672,532.5391 Q205.125,532.7969 205.125,533.1406 Q205.125,533.4844 204.7813,533.8906 Q204.2813,534.4688 203.4844,534.7969 Q202.4063,535.25 201.1094,535.25 Q199.5938,535.25 198.3906,534.625 Q197.4063,534.125 196.7188,533.0547 Q196.0313,531.9844 196.0313,530.7031 L196.0313,529.5469 Q196.0313,528.2188 196.6484,527.0703 Q197.2656,525.9219 198.3594,525.3047 Q199.4531,524.6875 200.6875,524.6875 Q201.4219,524.6875 202.0703,524.8516 Q202.7188,525.0156 203.2656,525.375 Z " fill="#000000"/><text fill="#000000" font-family="sans-serif" font-size="14" lengthAdjust="spacing" textLength="58" x="214.5" y="535.2285">Currency</text><line style="stroke:#181818;stroke-width:0.5;" x1="186.5" x2="274.5" y1="545.5" y2="545.5"/><line style="stroke:#181818;stroke-width:0.5;" x1="186.5" x2="274.5" y1="553.5" y2="553.5"/></g><!--class TaalcNft--><g id="elem_TaalcNft"><rect codeLine="90" fill="#F1F1F1" height="48" id="TaalcNft" rx="2.5" ry="2.5" style="stroke:#181818;stroke-width:0.5;" width="84" x="417.5" y="513.5"/><ellipse cx="432.5" cy="529.5" fill="#ADD1B2" rx="11" ry="11" style="stroke:#181818;stroke-width:1.0;"/><path d="M435.2656,525.375 Q435.4219,525.1563 435.6094,525.0469 Q435.7969,524.9375 436.0156,524.9375 Q436.3906,524.9375 436.625,525.1953 Q436.8594,525.4531 436.8594,526.0625 L436.8594,527.5156 Q436.8594,528.125 436.625,528.3906 Q436.3906,528.6563 436.0156,528.6563 Q435.6719,528.6563 435.4688,528.4531 Q435.2656,528.2656 435.1563,527.75 Q435.1094,527.3906 434.9219,527.2031 Q434.5938,526.8281 433.9844,526.6094 Q433.375,526.3906 432.75,526.3906 Q431.9844,526.3906 431.3516,526.7188 Q430.7188,527.0469 430.2266,527.7969 Q429.7344,528.5469 429.7344,529.5781 L429.7344,530.6719 Q429.7344,531.9063 430.625,532.7266 Q431.5156,533.5469 433.1094,533.5469 Q434.0469,533.5469 434.7031,533.2969 Q435.0938,533.1406 435.5156,532.7031 Q435.7813,532.4375 435.9297,532.3594 Q436.0781,532.2813 436.2813,532.2813 Q436.6094,532.2813 436.8672,532.5391 Q437.125,532.7969 437.125,533.1406 Q437.125,533.4844 436.7813,533.8906 Q436.2813,534.4688 435.4844,534.7969 Q434.4063,535.25 433.1094,535.25 Q431.5938,535.25 430.3906,534.625 Q429.4063,534.125 428.7188,533.0547 Q428.0313,531.9844 428.0313,530.7031 L428.0313,529.5469 Q428.0313,528.2188 428.6484,527.0703 Q429.2656,525.9219 430.3594,525.3047 Q431.4531,524.6875 432.6875,524.6875 Q433.4219,524.6875 434.0703,524.8516 Q434.7188,525.0156 435.2656,525.375 Z " fill="#000000"/><text fill="#000000" font-family="sans-serif" font-size="14" lengthAdjust="spacing" textLength="52" x="446.5" y="535.2285">TaalcNft</text><line style="stroke:#181818;stroke-width:0.5;" x1="418.5" x2="500.5" y1="545.5" y2="545.5"/><line style="stroke:#181818;stroke-width:0.5;" x1="418.5" x2="500.5" y1="553.5" y2="553.5"/></g><!--class TaalcNftToken--><g id="elem_TaalcNftToken"><rect codeLine="94" fill="#F1F1F1" height="65.6094" id="TaalcNftToken" rx="2.5" ry="2.5" style="stroke:#181818;stroke-width:0.5;" width="124" x="657.5" y="273"/><ellipse cx="672.5" cy="289" fill="#ADD1B2" rx="11" ry="11" style="stroke:#181818;stroke-width:1.0;"/><path d="M675.2656,284.875 Q675.4219,284.6563 675.6094,284.5469 Q675.7969,284.4375 676.0156,284.4375 Q676.3906,284.4375 676.625,284.6953 Q676.8594,284.9531 676.8594,285.5625 L676.8594,287.0156 Q676.8594,287.625 676.625,287.8906 Q676.3906,288.1563 676.0156,288.1563 Q675.6719,288.1563 675.4688,287.9531 Q675.2656,287.7656 675.1563,287.25 Q675.1094,286.8906 674.9219,286.7031 Q674.5938,286.3281 673.9844,286.1094 Q673.375,285.8906 672.75,285.8906 Q671.9844,285.8906 671.3516,286.2188 Q670.7188,286.5469 670.2266,287.2969 Q669.7344,288.0469 669.7344,289.0781 L669.7344,290.1719 Q669.7344,291.4063 670.625,292.2266 Q671.5156,293.0469 673.1094,293.0469 Q674.0469,293.0469 674.7031,292.7969 Q675.0938,292.6406 675.5156,292.2031 Q675.7813,291.9375 675.9297,291.8594 Q676.0781,291.7813 676.2813,291.7813 Q676.6094,291.7813 676.8672,292.0391 Q677.125,292.2969 677.125,292.6406 Q677.125,292.9844 676.7813,293.3906 Q676.2813,293.9688 675.4844,294.2969 Q674.4063,294.75 673.1094,294.75 Q671.5938,294.75 670.3906,294.125 Q669.4063,293.625 668.7188,292.5547 Q668.0313,291.4844 668.0313,290.2031 L668.0313,289.0469 Q668.0313,287.7188 668.6484,286.5703 Q669.2656,285.4219 670.3594,284.8047 Q671.4531,284.1875 672.6875,284.1875 Q673.4219,284.1875 674.0703,284.3516 Q674.7188,284.5156 675.2656,284.875 Z " fill="#000000"/><text fill="#000000" font-family="sans-serif" font-size="14" lengthAdjust="spacing" textLength="92" x="686.5" y="294.7285">TaalcNftToken</text><line style="stroke:#181818;stroke-width:0.5;" x1="658.5" x2="780.5" y1="305" y2="305"/><text fill="#000000" font-family="sans-serif" font-size="14" lengthAdjust="spacing" textLength="54" x="663.5" y="323.5332">taalc_nft</text><line style="stroke:#181818;stroke-width:0.5;" x1="658.5" x2="780.5" y1="330.6094" y2="330.6094"/></g><!--class SystemService--><g id="elem_SystemService"><rect codeLine="99" fill="#F1F1F1" height="65.6094" id="SystemService" rx="2.5" ry="2.5" style="stroke:#181818;stroke-width:0.5;" width="125" x="1370" y="33"/><ellipse cx="1385" cy="49" fill="#ADD1B2" rx="11" ry="11" style="stroke:#181818;stroke-width:1.0;"/><path d="M1387.7656,44.875 Q1387.9219,44.6563 1388.1094,44.5469 Q1388.2969,44.4375 1388.5156,44.4375 Q1388.8906,44.4375 1389.125,44.6953 Q1389.3594,44.9531 1389.3594,45.5625 L1389.3594,47.0156 Q1389.3594,47.625 1389.125,47.8906 Q1388.8906,48.1563 1388.5156,48.1563 Q1388.1719,48.1563 1387.9688,47.9531 Q1387.7656,47.7656 1387.6563,47.25 Q1387.6094,46.8906 1387.4219,46.7031 Q1387.0938,46.3281 1386.4844,46.1094 Q1385.875,45.8906 1385.25,45.8906 Q1384.4844,45.8906 1383.8516,46.2188 Q1383.2188,46.5469 1382.7266,47.2969 Q1382.2344,48.0469 1382.2344,49.0781 L1382.2344,50.1719 Q1382.2344,51.4063 1383.125,52.2266 Q1384.0156,53.0469 1385.6094,53.0469 Q1386.5469,53.0469 1387.2031,52.7969 Q1387.5938,52.6406 1388.0156,52.2031 Q1388.2813,51.9375 1388.4297,51.8594 Q1388.5781,51.7813 1388.7813,51.7813 Q1389.1094,51.7813 1389.3672,52.0391 Q1389.625,52.2969 1389.625,52.6406 Q1389.625,52.9844 1389.2813,53.3906 Q1388.7813,53.9688 1387.9844,54.2969 Q1386.9063,54.75 1385.6094,54.75 Q1384.0938,54.75 1382.8906,54.125 Q1381.9063,53.625 1381.2188,52.5547 Q1380.5313,51.4844 1380.5313,50.2031 L1380.5313,49.0469 Q1380.5313,47.7188 1381.1484,46.5703 Q1381.7656,45.4219 1382.8594,44.8047 Q1383.9531,44.1875 1385.1875,44.1875 Q1385.9219,44.1875 1386.5703,44.3516 Q1387.2188,44.5156 1387.7656,44.875 Z " fill="#000000"/><text fill="#000000" font-family="sans-serif" font-size="14" lengthAdjust="spacing" textLength="93" x="1399" y="54.7285">SystemService</text><line style="stroke:#181818;stroke-width:0.5;" x1="1371" x2="1494" y1="65" y2="65"/><line style="stroke:#181818;stroke-width:0.5;" x1="1371" x2="1494" y1="73" y2="73"/><text fill="#000000" font-family="sans-serif" font-size="14" lengthAdjust="spacing" textLength="46" x="1376" y="91.5332">install()</text></g><!--class WinService--><g id="elem_WinService"><rect codeLine="102" fill="#F1F1F1" height="48" id="WinService" rx="2.5" ry="2.5" style="stroke:#181818;stroke-width:0.5;" width="103" x="1310" y="282"/><ellipse cx="1325" cy="298" fill="#ADD1B2" rx="11" ry="11" style="stroke:#181818;stroke-width:1.0;"/><path d="M1327.7656,293.875 Q1327.9219,293.6563 1328.1094,293.5469 Q1328.2969,293.4375 1328.5156,293.4375 Q1328.8906,293.4375 1329.125,293.6953 Q1329.3594,293.9531 1329.3594,294.5625 L1329.3594,296.0156 Q1329.3594,296.625 1329.125,296.8906 Q1328.8906,297.1563 1328.5156,297.1563 Q1328.1719,297.1563 1327.9688,296.9531 Q1327.7656,296.7656 1327.6563,296.25 Q1327.6094,295.8906 1327.4219,295.7031 Q1327.0938,295.3281 1326.4844,295.1094 Q1325.875,294.8906 1325.25,294.8906 Q1324.4844,294.8906 1323.8516,295.2188 Q1323.2188,295.5469 1322.7266,296.2969 Q1322.2344,297.0469 1322.2344,298.0781 L1322.2344,299.1719 Q1322.2344,300.4063 1323.125,301.2266 Q1324.0156,302.0469 1325.6094,302.0469 Q1326.5469,302.0469 1327.2031,301.7969 Q1327.5938,301.6406 1328.0156,301.2031 Q1328.2813,300.9375 1328.4297,300.8594 Q1328.5781,300.7813 1328.7813,300.7813 Q1329.1094,300.7813 1329.3672,301.0391 Q1329.625,301.2969 1329.625,301.6406 Q1329.625,301.9844 1329.2813,302.3906 Q1328.7813,302.9688 1327.9844,303.2969 Q1326.9063,303.75 1325.6094,303.75 Q1324.0938,303.75 1322.8906,303.125 Q1321.9063,302.625 1321.2188,301.5547 Q1320.5313,300.4844 1320.5313,299.2031 L1320.5313,298.0469 Q1320.5313,296.7188 1321.1484,295.5703 Q1321.7656,294.4219 1322.8594,293.8047 Q1323.9531,293.1875 1325.1875,293.1875 Q1325.9219,293.1875 1326.5703,293.3516 Q1327.2188,293.5156 1327.7656,293.875 Z " fill="#000000"/><text fill="#000000" font-family="sans-serif" font-size="14" lengthAdjust="spacing" textLength="71" x="1339" y="303.7285">WinService</text><line style="stroke:#181818;stroke-width:0.5;" x1="1311" x2="1412" y1="314" y2="314"/><line style="stroke:#181818;stroke-width:0.5;" x1="1311" x2="1412" y1="322" y2="322"/></g><!--class LinuxService--><g id="elem_LinuxService"><rect codeLine="103" fill="#F1F1F1" height="48" id="LinuxService" rx="2.5" ry="2.5" style="stroke:#181818;stroke-width:0.5;" width="112" x="1448.5" y="282"/><ellipse cx="1463.5" cy="298" fill="#ADD1B2" rx="11" ry="11" style="stroke:#181818;stroke-width:1.0;"/><path d="M1466.2656,293.875 Q1466.4219,293.6563 1466.6094,293.5469 Q1466.7969,293.4375 1467.0156,293.4375 Q1467.3906,293.4375 1467.625,293.6953 Q1467.8594,293.9531 1467.8594,294.5625 L1467.8594,296.0156 Q1467.8594,296.625 1467.625,296.8906 Q1467.3906,297.1563 1467.0156,297.1563 Q1466.6719,297.1563 1466.4688,296.9531 Q1466.2656,296.7656 1466.1563,296.25 Q1466.1094,295.8906 1465.9219,295.7031 Q1465.5938,295.3281 1464.9844,295.1094 Q1464.375,294.8906 1463.75,294.8906 Q1462.9844,294.8906 1462.3516,295.2188 Q1461.7188,295.5469 1461.2266,296.2969 Q1460.7344,297.0469 1460.7344,298.0781 L1460.7344,299.1719 Q1460.7344,300.4063 1461.625,301.2266 Q1462.5156,302.0469 1464.1094,302.0469 Q1465.0469,302.0469 1465.7031,301.7969 Q1466.0938,301.6406 1466.5156,301.2031 Q1466.7813,300.9375 1466.9297,300.8594 Q1467.0781,300.7813 1467.2813,300.7813 Q1467.6094,300.7813 1467.8672,301.0391 Q1468.125,301.2969 1468.125,301.6406 Q1468.125,301.9844 1467.7813,302.3906 Q1467.2813,302.9688 1466.4844,303.2969 Q1465.4063,303.75 1464.1094,303.75 Q1462.5938,303.75 1461.3906,303.125 Q1460.4063,302.625 1459.7188,301.5547 Q1459.0313,300.4844 1459.0313,299.2031 L1459.0313,298.0469 Q1459.0313,296.7188 1459.6484,295.5703 Q1460.2656,294.4219 1461.3594,293.8047 Q1462.4531,293.1875 1463.6875,293.1875 Q1464.4219,293.1875 1465.0703,293.3516 Q1465.7188,293.5156 1466.2656,293.875 Z " fill="#000000"/><text fill="#000000" font-family="sans-serif" font-size="14" lengthAdjust="spacing" textLength="80" x="1477.5" y="303.7285">LinuxService</text><line style="stroke:#181818;stroke-width:0.5;" x1="1449.5" x2="1559.5" y1="314" y2="314"/><line style="stroke:#181818;stroke-width:0.5;" x1="1449.5" x2="1559.5" y1="322" y2="322"/></g><!--reverse link SystemService to WinService--><g id="link_SystemService_WinService"><path codeLine="105" d="M1417.7757,116.3492 C1403.2457,165.0692 1381.11,239.28 1368.37,281.96 " fill="none" id="SystemService-backto-WinService" style="stroke:#181818;stroke-width:1.0;"/><polygon fill="none" points="1422.92,99.1,1412.0259,114.6345,1423.5254,118.064,1422.92,99.1" style="stroke:#181818;stroke-width:1.0;"/></g><!--reverse link SystemService to LinuxService--><g id="link_SystemService_LinuxService"><path codeLine="106" d="M1447.4225,116.3288 C1462.1625,165.0488 1484.62,239.28 1497.53,281.96 " fill="none" id="SystemService-backto-LinuxService" style="stroke:#181818;stroke-width:1.0;"/><polygon fill="none" points="1442.21,99.1,1441.6796,118.0662,1453.1654,114.5913,1442.21,99.1" style="stroke:#181818;stroke-width:1.0;"/></g><!--reverse link TMember to TUser--><g id="link_TMember_TUser"><path codeLine="108" d="M111.8293,749.6784 C111.4493,778.0884 111.15,800.82 110.81,826.19 " fill="none" id="TMember-backto-TUser" style="stroke:#181818;stroke-width:1.0;"/><polygon fill="none" points="112.07,731.68,105.8298,749.5981,117.8287,749.7586,112.07,731.68" style="stroke:#181818;stroke-width:1.0;"/></g><!--reverse link TaalcToken to Currency--><g id="link_TaalcToken_Currency"><path codeLine="109" d="M302.0185,356.1239 C283.4085,403.0839 256,472.18 239.69,513.31 " fill="none" id="TaalcToken-backto-Currency" style="stroke:#181818;stroke-width:1.0;"/><polygon fill="none" points="308.65,339.39,296.4405,353.9134,307.5964,358.3344,308.65,339.39" style="stroke:#181818;stroke-width:1.0;"/></g><!--reverse link TaalcToken to TaalcNft--><g id="link_TaalcToken_TaalcNft"><path codeLine="110" d="M349.481,354.6779 C363.711,378.8879 374.65,397.34 392.5,427 C410.54,456.98 431.65,491.37 445.28,513.49 " fill="none" id="TaalcToken-backto-TaalcNft" style="stroke:#181818;stroke-width:1.0;"/><polygon fill="none" points="340.36,339.16,344.3084,357.7183,354.6537,351.6376,340.36,339.16" style="stroke:#181818;stroke-width:1.0;"/></g><!--link TMessage to TChat--><g id="link_TMessage_TChat"><path codeLine="111" d="M422.03,383.1 C399.67,428.51 375.4605,477.6772 360.5505,507.9572 " fill="none" id="TMessage-to-TChat" style="stroke:#181818;stroke-width:1.0;"/><polygon fill="#181818" points="357.9,513.34,365.4643,507.0328,360.1088,508.8543,358.2872,503.4988,357.9,513.34" style="stroke:#181818;stroke-width:1.0;"/></g><!--link TMessage to TaalcNft--><g id="link_TMessage_TaalcNft"><path codeLine="112" d="M459.5,383.1 C459.5,428.51 459.5,477.06 459.5,507.34 " fill="none" id="TMessage-to-TaalcNft" style="stroke:#181818;stroke-width:1.0;"/><polygon fill="#181818" points="459.5,513.34,463.5,504.34,459.5,508.34,455.5,504.34,459.5,513.34" style="stroke:#181818;stroke-width:1.0;"/></g><!--reverse link Currency to Wallet--><g id="link_Currency_Wallet"><path codeLine="115" d="M230.5,567.62 C230.5,590.1 230.5,618.97 230.5,647.76 " fill="none" id="Currency-backto-Wallet" style="stroke:#181818;stroke-width:1.0;"/><polygon fill="#181818" points="230.5,561.62,226.5,570.62,230.5,566.62,234.5,570.62,230.5,561.62" style="stroke:#181818;stroke-width:1.0;"/></g><!--reverse link TMember to Wallet--><g id="link_TMember_Wallet"><path codeLine="116" d="M164.59,698.5 C176.67,698.5 182.75,698.5 194.83,698.5 " fill="none" id="TMember-backto-Wallet" style="stroke:#181818;stroke-width:1.0;"/><polygon fill="#181818" points="158.59,698.5,167.59,702.5,163.59,698.5,167.59,694.5,158.59,698.5" style="stroke:#181818;stroke-width:1.0;"/></g><!--reverse link TaalcTransaction to CurrencyTransaction--><g id="link_TaalcTransaction_CurrencyTransaction"><path codeLine="117" d="M526.7434,81.0912 C449.1534,95.5212 341.54,123.47 250.5,185 C219.94,205.65 193.63,238.23 175.68,264.23 " fill="none" id="TaalcTransaction-backto-CurrencyTransaction" style="stroke:#181818;stroke-width:1.0;"/><polygon fill="none" points="544.44,77.8,525.6464,75.1923,527.8405,86.99,544.44,77.8" style="stroke:#181818;stroke-width:1.0;"/></g><!--reverse link TaalcTransaction to NftTransaction--><g id="link_TaalcTransaction_NftTransaction"><path codeLine="118" d="M702.4582,112.7831 C738.4882,133.5331 765.77,152.77 798.5,185 C828.11,214.16 852.96,255.96 866.77,281.75 " fill="none" id="TaalcTransaction-backto-NftTransaction" style="stroke:#181818;stroke-width:1.0;"/><polygon fill="none" points="686.86,103.8,699.4638,117.9825,705.4526,107.5837,686.86,103.8" style="stroke:#181818;stroke-width:1.0;"/></g><!--link CurrencyTransaction to TransactionBatch--><g id="link_CurrencyTransaction_TransactionBatch"><path codeLine="119" d="M137.79,347.5 C122.69,395.63 99.8164,468.5652 87.6064,507.4752 " fill="none" id="CurrencyTransaction-to-TransactionBatch" style="stroke:#181818;stroke-width:1.0;"/><polygon fill="#181818" points="85.81,513.2,92.3212,505.8105,87.307,508.4294,84.6881,503.4152,85.81,513.2" style="stroke:#181818;stroke-width:1.0;"/></g><!--link CurrencyTransaction to Currency--><g id="link_CurrencyTransaction_Currency"><path codeLine="120" d="M164.62,347.5 C181.39,395.63 206.8455,468.6242 220.4055,507.5342 " fill="none" id="CurrencyTransaction-to-Currency" style="stroke:#181818;stroke-width:1.0;"/><polygon fill="#181818" points="222.38,513.2,223.1954,503.385,220.7346,508.4785,215.641,506.0176,222.38,513.2" style="stroke:#181818;stroke-width:1.0;"/></g><!--link TOffer to OfferType--><g id="link_TOffer_OfferType"><path codeLine="122" d="M584.02,427.13 C584.17,460.1 584.2841,486.4701 584.3741,507.3401 " fill="none" id="TOffer-to-OfferType" style="stroke:#181818;stroke-width:1.0;"/><polygon fill="#181818" points="584.4,513.34,588.3612,504.3228,584.3784,508.34,580.3612,504.3573,584.4,513.34" style="stroke:#181818;stroke-width:1.0;"/></g><!--link TOffer to OfferState--><g id="link_TOffer_OfferState"><path codeLine="123" d="M622.1,394.45 C627.64,405.56 633.51,416.65 639.5,427 C657.55,458.18 678.3365,486.9653 694.7965,508.5953 " fill="none" id="TOffer-to-OfferState" style="stroke:#181818;stroke-width:1.0;"/><polygon fill="#181818" points="698.43,513.37,696.1629,503.7856,695.4021,509.3911,689.7967,508.6302,698.43,513.37" style="stroke:#181818;stroke-width:1.0;"/></g><!--link TOffer to TaalcNft--><g id="link_TOffer_TaalcNft"><path codeLine="124" d="M544.87,389.49 C538.59,402.15 532,415 525.5,427 C509.01,457.45 491.3083,486.3735 477.4983,508.2935 " fill="none" id="TOffer-to-TaalcNft" style="stroke:#181818;stroke-width:1.0;"/><polygon fill="#181818" points="474.3,513.37,482.4818,507.8874,476.9652,509.1396,475.7131,503.623,474.3,513.37" style="stroke:#181818;stroke-width:1.0;"/></g><!--link Wallet to TokensBag--><g id="link_Wallet_TokensBag"><path codeLine="126" d="M231.16,749.03 C231.42,768.32 231.475,772.1515 231.715,790.5315 " fill="none" id="Wallet-to-TokensBag" style="stroke:#181818;stroke-width:1.0;"/><polygon fill="none" points="231.95,808.53,237.7145,790.4532,225.7155,790.6099,231.95,808.53" style="stroke:#181818;stroke-width:1.0;"/></g><!--link TaalcNftToken to TaalcNft--><g id="link_TaalcNftToken_TaalcNft"><path codeLine="127" d="M704.07,339.19 C690.17,365.5 667.6,402.27 639.5,427 C594.43,466.65 568.74,454.14 518.5,487 C506.64,494.76 499.0084,500.6438 488.8384,509.4838 " fill="none" id="TaalcNftToken-to-TaalcNft" style="stroke:#181818;stroke-width:1.0;"/><polygon fill="#181818" points="484.31,513.42,493.7267,510.5346,488.0837,510.1398,488.4785,504.4968,484.31,513.42" style="stroke:#181818;stroke-width:1.0;"/></g><!--link TaalcNftToken to NftState--><g id="link_TaalcNftToken_NftState"><path codeLine="128" d="M737.29,339.39 C758.38,377.82 790.8926,437.0305 815.4326,481.7305 " fill="none" id="TaalcNftToken-to-NftState" style="stroke:#181818;stroke-width:1.0;"/><polygon fill="#181818" points="818.32,486.99,817.4952,477.1757,815.9138,482.6071,810.4825,481.0257,818.32,486.99" style="stroke:#181818;stroke-width:1.0;"/></g><!--SRC=[VLJ1SjiW4Btp5Jgs1_r19mVdchO7kvD3fwF1U6NJIA21LHkFudylx8AG8gS-U9QtosFtyP3gfFVLitKlu2PHXPz7wV3JPuhX5TI8a5OUxP12gL1R4nOt8OGYZeEKdTfPd6uhvE2ayLpE_5Y0vYXHNGXjdUqvRUF_fX9r3s9cVXoT0wEk6tAL4jnaRqU3PTUt5fSRIfy5tCM65Xdx0iRlv9dPHm-EWYVjyISbVnNwmmyVDLm0Nw4_PbaHEZWxsJVwL2gUPTS1Sa5FnV-ROYLhF9mt6idIb5EzbsUOPXtjNvE97KYq76EaQMpRmd9jMboir4McvJdqJOJX831Z7yNSeqJW7hHlXl7OQN-14vyPBbUVJjgSQPcISLda-HxFdkRhRsPvqPQO6cpmEW1xS3p-1eLRcGQd5MG38qTacXYSHYVZzIQXIH-AKuzyAJGNDPKcMs67q091gVl7eCrKPC-Md6xBQmegyO1Y_IgY5SiD5kaBt_xg4Vezk3zXhYIo2QDr7Rswv1zjSaM6dhGPNmieLZpLbxUwNkowbrqI294yp2bok2Z-OpHFladaIKMsP5NN3opSEoWN2i4legh78U0pSqOxQ37MSrFYpcU0ThuzRBuzOltuFooxIncFVFUD-B1mxbcmlmcS3RG1oMbBj6YHXwO-yuT8hEopth5DvKVw3m00]--></g></svg>