<?xml version="1.0" encoding="us-ascii" standalone="no"?><svg xmlns="http://www.w3.org/2000/svg" xmlns:xlink="http://www.w3.org/1999/xlink" contentStyleType="text/css" height="686px" preserveAspectRatio="none" style="width:1152px;height:686px;background:#FFFFFF;" version="1.1" viewBox="0 0 1152 686" width="1152px" zoomAndPan="magnify"><defs/><g><!--class Worker--><g id="elem_Worker"><rect codeLine="1" fill="#F1F1F1" height="118.4375" id="Worker" rx="2.5" ry="2.5" style="stroke:#181818;stroke-width:0.5;" width="78" x="708.5" y="69"/><ellipse cx="723.5" cy="85" fill="#ADD1B2" rx="11" ry="11" style="stroke:#181818;stroke-width:1.0;"/><path d="M726.2656,80.875 Q726.4219,80.6563 726.6094,80.5469 Q726.7969,80.4375 727.0156,80.4375 Q727.3906,80.4375 727.625,80.6953 Q727.8594,80.9531 727.8594,81.5625 L727.8594,83.0156 Q727.8594,83.625 727.625,83.8906 Q727.3906,84.1563 727.0156,84.1563 Q726.6719,84.1563 726.4688,83.9531 Q726.2656,83.7656 726.1563,83.25 Q726.1094,82.8906 725.9219,82.7031 Q725.5938,82.3281 724.9844,82.1094 Q724.375,81.8906 723.75,81.8906 Q722.9844,81.8906 722.3516,82.2188 Q721.7188,82.5469 721.2266,83.2969 Q720.7344,84.0469 720.7344,85.0781 L720.7344,86.1719 Q720.7344,87.4063 721.625,88.2266 Q722.5156,89.0469 724.1094,89.0469 Q725.0469,89.0469 725.7031,88.7969 Q726.0938,88.6406 726.5156,88.2031 Q726.7813,87.9375 726.9297,87.8594 Q727.0781,87.7813 727.2813,87.7813 Q727.6094,87.7813 727.8672,88.0391 Q728.125,88.2969 728.125,88.6406 Q728.125,88.9844 727.7813,89.3906 Q727.2813,89.9688 726.4844,90.2969 Q725.4063,90.75 724.1094,90.75 Q722.5938,90.75 721.3906,90.125 Q720.4063,89.625 719.7188,88.5547 Q719.0313,87.4844 719.0313,86.2031 L719.0313,85.0469 Q719.0313,83.7188 719.6484,82.5703 Q720.2656,81.4219 721.3594,80.8047 Q722.4531,80.1875 723.6875,80.1875 Q724.4219,80.1875 725.0703,80.3516 Q725.7188,80.5156 726.2656,80.875 Z " fill="#000000"/><text fill="#000000" font-family="sans-serif" font-size="14" lengthAdjust="spacing" textLength="46" x="737.5" y="90.7285">Worker</text><line style="stroke:#181818;stroke-width:0.5;" x1="709.5" x2="785.5" y1="101" y2="101"/><line style="stroke:#181818;stroke-width:0.5;" x1="709.5" x2="785.5" y1="109" y2="109"/><text fill="#000000" font-family="sans-serif" font-size="14" lengthAdjust="spacing" textLength="38" x="714.5" y="127.5332">start()</text><text fill="#000000" font-family="sans-serif" font-size="14" lengthAdjust="spacing" textLength="59" x="714.5" y="145.1426">execute()</text><text fill="#000000" font-family="sans-serif" font-size="14" lengthAdjust="spacing" textLength="37" x="714.5" y="162.752">stop()</text><text fill="#000000" font-family="sans-serif" font-size="14" lengthAdjust="spacing" textLength="48" x="714.5" y="180.3613">action()</text></g><!--class TaalcBot--><g id="elem_TaalcBot"><rect codeLine="9" fill="#F1F1F1" height="48" id="TaalcBot" rx="2.5" ry="2.5" style="stroke:#181818;stroke-width:0.5;" width="88" x="827.5" y="104"/><ellipse cx="842.5" cy="120" fill="#ADD1B2" rx="11" ry="11" style="stroke:#181818;stroke-width:1.0;"/><path d="M845.2656,115.875 Q845.4219,115.6563 845.6094,115.5469 Q845.7969,115.4375 846.0156,115.4375 Q846.3906,115.4375 846.625,115.6953 Q846.8594,115.9531 846.8594,116.5625 L846.8594,118.0156 Q846.8594,118.625 846.625,118.8906 Q846.3906,119.1563 846.0156,119.1563 Q845.6719,119.1563 845.4688,118.9531 Q845.2656,118.7656 845.1563,118.25 Q845.1094,117.8906 844.9219,117.7031 Q844.5938,117.3281 843.9844,117.1094 Q843.375,116.8906 842.75,116.8906 Q841.9844,116.8906 841.3516,117.2188 Q840.7188,117.5469 840.2266,118.2969 Q839.7344,119.0469 839.7344,120.0781 L839.7344,121.1719 Q839.7344,122.4063 840.625,123.2266 Q841.5156,124.0469 843.1094,124.0469 Q844.0469,124.0469 844.7031,123.7969 Q845.0938,123.6406 845.5156,123.2031 Q845.7813,122.9375 845.9297,122.8594 Q846.0781,122.7813 846.2813,122.7813 Q846.6094,122.7813 846.8672,123.0391 Q847.125,123.2969 847.125,123.6406 Q847.125,123.9844 846.7813,124.3906 Q846.2813,124.9688 845.4844,125.2969 Q844.4063,125.75 843.1094,125.75 Q841.5938,125.75 840.3906,125.125 Q839.4063,124.625 838.7188,123.5547 Q838.0313,122.4844 838.0313,121.2031 L838.0313,120.0469 Q838.0313,118.7188 838.6484,117.5703 Q839.2656,116.4219 840.3594,115.8047 Q841.4531,115.1875 842.6875,115.1875 Q843.4219,115.1875 844.0703,115.3516 Q844.7188,115.5156 845.2656,115.875 Z " fill="#000000"/><text fill="#000000" font-family="sans-serif" font-size="14" lengthAdjust="spacing" textLength="56" x="856.5" y="125.7285">TaalcBot</text><line style="stroke:#181818;stroke-width:0.5;" x1="828.5" x2="914.5" y1="136" y2="136"/><line style="stroke:#181818;stroke-width:0.5;" x1="828.5" x2="914.5" y1="144" y2="144"/></g><!--class Transaction--><g id="elem_Transaction"><rect codeLine="11" fill="#F1F1F1" height="136.0469" id="Transaction" rx="2.5" ry="2.5" style="stroke:#181818;stroke-width:0.5;" width="125" x="37" y="60"/><ellipse cx="60.1" cy="76" fill="#ADD1B2" rx="11" ry="11" style="stroke:#181818;stroke-width:1.0;"/><path d="M62.8656,71.875 Q63.0219,71.6563 63.2094,71.5469 Q63.3969,71.4375 63.6156,71.4375 Q63.9906,71.4375 64.225,71.6953 Q64.4594,71.9531 64.4594,72.5625 L64.4594,74.0156 Q64.4594,74.625 64.225,74.8906 Q63.9906,75.1563 63.6156,75.1563 Q63.2719,75.1563 63.0688,74.9531 Q62.8656,74.7656 62.7563,74.25 Q62.7094,73.8906 62.5219,73.7031 Q62.1938,73.3281 61.5844,73.1094 Q60.975,72.8906 60.35,72.8906 Q59.5844,72.8906 58.9516,73.2188 Q58.3188,73.5469 57.8266,74.2969 Q57.3344,75.0469 57.3344,76.0781 L57.3344,77.1719 Q57.3344,78.4063 58.225,79.2266 Q59.1156,80.0469 60.7094,80.0469 Q61.6469,80.0469 62.3031,79.7969 Q62.6938,79.6406 63.1156,79.2031 Q63.3813,78.9375 63.5297,78.8594 Q63.6781,78.7813 63.8813,78.7813 Q64.2094,78.7813 64.4672,79.0391 Q64.725,79.2969 64.725,79.6406 Q64.725,79.9844 64.3813,80.3906 Q63.8813,80.9688 63.0844,81.2969 Q62.0063,81.75 60.7094,81.75 Q59.1938,81.75 57.9906,81.125 Q57.0063,80.625 56.3188,79.5547 Q55.6313,78.4844 55.6313,77.2031 L55.6313,76.0469 Q55.6313,74.7188 56.2484,73.5703 Q56.8656,72.4219 57.9594,71.8047 Q59.0531,71.1875 60.2875,71.1875 Q61.0219,71.1875 61.6703,71.3516 Q62.3188,71.5156 62.8656,71.875 Z " fill="#000000"/><text fill="#000000" font-family="sans-serif" font-size="14" lengthAdjust="spacing" textLength="75" x="75.9" y="81.7285">Transaction</text><line style="stroke:#181818;stroke-width:0.5;" x1="38" x2="161" y1="92" y2="92"/><text fill="#000000" font-family="sans-serif" font-size="14" lengthAdjust="spacing" textLength="113" x="43" y="110.5332">transaction_batch</text><text fill="#000000" font-family="sans-serif" font-size="14" lengthAdjust="spacing" textLength="28" x="43" y="128.1426">from</text><text fill="#000000" font-family="sans-serif" font-size="14" lengthAdjust="spacing" textLength="12" x="43" y="145.752">to</text><text fill="#000000" font-family="sans-serif" font-size="14" lengthAdjust="spacing" textLength="35" x="43" y="163.3613">token</text><text fill="#000000" font-family="sans-serif" font-size="14" lengthAdjust="spacing" textLength="104" x="43" y="180.9707">transaction_time</text><line style="stroke:#181818;stroke-width:0.5;" x1="38" x2="161" y1="188.0469" y2="188.0469"/></g><!--class TransactionBatch--><g id="elem_TransactionBatch"><rect codeLine="19" fill="#F1F1F1" height="48" id="TransactionBatch" rx="2.5" ry="2.5" style="stroke:#181818;stroke-width:0.5;" width="143" x="7" y="318"/><ellipse cx="22" cy="334" fill="#ADD1B2" rx="11" ry="11" style="stroke:#181818;stroke-width:1.0;"/><path d="M24.7656,329.875 Q24.9219,329.6563 25.1094,329.5469 Q25.2969,329.4375 25.5156,329.4375 Q25.8906,329.4375 26.125,329.6953 Q26.3594,329.9531 26.3594,330.5625 L26.3594,332.0156 Q26.3594,332.625 26.125,332.8906 Q25.8906,333.1563 25.5156,333.1563 Q25.1719,333.1563 24.9688,332.9531 Q24.7656,332.7656 24.6563,332.25 Q24.6094,331.8906 24.4219,331.7031 Q24.0938,331.3281 23.4844,331.1094 Q22.875,330.8906 22.25,330.8906 Q21.4844,330.8906 20.8516,331.2188 Q20.2188,331.5469 19.7266,332.2969 Q19.2344,333.0469 19.2344,334.0781 L19.2344,335.1719 Q19.2344,336.4063 20.125,337.2266 Q21.0156,338.0469 22.6094,338.0469 Q23.5469,338.0469 24.2031,337.7969 Q24.5938,337.6406 25.0156,337.2031 Q25.2813,336.9375 25.4297,336.8594 Q25.5781,336.7813 25.7813,336.7813 Q26.1094,336.7813 26.3672,337.0391 Q26.625,337.2969 26.625,337.6406 Q26.625,337.9844 26.2813,338.3906 Q25.7813,338.9688 24.9844,339.2969 Q23.9063,339.75 22.6094,339.75 Q21.0938,339.75 19.8906,339.125 Q18.9063,338.625 18.2188,337.5547 Q17.5313,336.4844 17.5313,335.2031 L17.5313,334.0469 Q17.5313,332.7188 18.1484,331.5703 Q18.7656,330.4219 19.8594,329.8047 Q20.9531,329.1875 22.1875,329.1875 Q22.9219,329.1875 23.5703,329.3516 Q24.2188,329.5156 24.7656,329.875 Z " fill="#000000"/><text fill="#000000" font-family="sans-serif" font-size="14" lengthAdjust="spacing" textLength="111" x="36" y="339.7285">TransactionBatch</text><line style="stroke:#181818;stroke-width:0.5;" x1="8" x2="149" y1="350" y2="350"/><line style="stroke:#181818;stroke-width:0.5;" x1="8" x2="149" y1="358" y2="358"/></g><!--class TokensBag--><g id="elem_TokensBag"><rect codeLine="21" fill="#F1F1F1" height="83.2188" id="TokensBag" rx="2.5" ry="2.5" style="stroke:#181818;stroke-width:0.5;" width="104" x="180.5" y="596"/><ellipse cx="195.5" cy="612" fill="#ADD1B2" rx="11" ry="11" style="stroke:#181818;stroke-width:1.0;"/><path d="M198.2656,607.875 Q198.4219,607.6563 198.6094,607.5469 Q198.7969,607.4375 199.0156,607.4375 Q199.3906,607.4375 199.625,607.6953 Q199.8594,607.9531 199.8594,608.5625 L199.8594,610.0156 Q199.8594,610.625 199.625,610.8906 Q199.3906,611.1563 199.0156,611.1563 Q198.6719,611.1563 198.4688,610.9531 Q198.2656,610.7656 198.1563,610.25 Q198.1094,609.8906 197.9219,609.7031 Q197.5938,609.3281 196.9844,609.1094 Q196.375,608.8906 195.75,608.8906 Q194.9844,608.8906 194.3516,609.2188 Q193.7188,609.5469 193.2266,610.2969 Q192.7344,611.0469 192.7344,612.0781 L192.7344,613.1719 Q192.7344,614.4063 193.625,615.2266 Q194.5156,616.0469 196.1094,616.0469 Q197.0469,616.0469 197.7031,615.7969 Q198.0938,615.6406 198.5156,615.2031 Q198.7813,614.9375 198.9297,614.8594 Q199.0781,614.7813 199.2813,614.7813 Q199.6094,614.7813 199.8672,615.0391 Q200.125,615.2969 200.125,615.6406 Q200.125,615.9844 199.7813,616.3906 Q199.2813,616.9688 198.4844,617.2969 Q197.4063,617.75 196.1094,617.75 Q194.5938,617.75 193.3906,617.125 Q192.4063,616.625 191.7188,615.5547 Q191.0313,614.4844 191.0313,613.2031 L191.0313,612.0469 Q191.0313,610.7188 191.6484,609.5703 Q192.2656,608.4219 193.3594,607.8047 Q194.4531,607.1875 195.6875,607.1875 Q196.4219,607.1875 197.0703,607.3516 Q197.7188,607.5156 198.2656,607.875 Z " fill="#000000"/><text fill="#000000" font-family="sans-serif" font-size="14" lengthAdjust="spacing" textLength="72" x="209.5" y="617.7285">TokensBag</text><line style="stroke:#181818;stroke-width:0.5;" x1="181.5" x2="283.5" y1="628" y2="628"/><text fill="#000000" font-family="sans-serif" font-size="14" lengthAdjust="spacing" textLength="28" x="186.5" y="646.5332">user</text><text fill="#000000" font-family="sans-serif" font-size="14" lengthAdjust="spacing" textLength="70" x="186.5" y="664.1426">List[Token]</text><line style="stroke:#181818;stroke-width:0.5;" x1="181.5" x2="283.5" y1="671.2188" y2="671.2188"/></g><!--class TaalcUser--><g id="elem_TaalcUser"><rect codeLine="26" fill="#F1F1F1" height="48" id="TaalcUser" rx="2.5" ry="2.5" style="stroke:#181818;stroke-width:0.5;" width="96" x="49.5" y="613.5"/><ellipse cx="64.5" cy="629.5" fill="#ADD1B2" rx="11" ry="11" style="stroke:#181818;stroke-width:1.0;"/><path d="M67.2656,625.375 Q67.4219,625.1563 67.6094,625.0469 Q67.7969,624.9375 68.0156,624.9375 Q68.3906,624.9375 68.625,625.1953 Q68.8594,625.4531 68.8594,626.0625 L68.8594,627.5156 Q68.8594,628.125 68.625,628.3906 Q68.3906,628.6563 68.0156,628.6563 Q67.6719,628.6563 67.4688,628.4531 Q67.2656,628.2656 67.1563,627.75 Q67.1094,627.3906 66.9219,627.2031 Q66.5938,626.8281 65.9844,626.6094 Q65.375,626.3906 64.75,626.3906 Q63.9844,626.3906 63.3516,626.7188 Q62.7188,627.0469 62.2266,627.7969 Q61.7344,628.5469 61.7344,629.5781 L61.7344,630.6719 Q61.7344,631.9063 62.625,632.7266 Q63.5156,633.5469 65.1094,633.5469 Q66.0469,633.5469 66.7031,633.2969 Q67.0938,633.1406 67.5156,632.7031 Q67.7813,632.4375 67.9297,632.3594 Q68.0781,632.2813 68.2813,632.2813 Q68.6094,632.2813 68.8672,632.5391 Q69.125,632.7969 69.125,633.1406 Q69.125,633.4844 68.7813,633.8906 Q68.2813,634.4688 67.4844,634.7969 Q66.4063,635.25 65.1094,635.25 Q63.5938,635.25 62.3906,634.625 Q61.4063,634.125 60.7188,633.0547 Q60.0313,631.9844 60.0313,630.7031 L60.0313,629.5469 Q60.0313,628.2188 60.6484,627.0703 Q61.2656,625.9219 62.3594,625.3047 Q63.4531,624.6875 64.6875,624.6875 Q65.4219,624.6875 66.0703,624.8516 Q66.7188,625.0156 67.2656,625.375 Z " fill="#000000"/><text fill="#000000" font-family="sans-serif" font-size="14" lengthAdjust="spacing" textLength="64" x="78.5" y="635.2285">TaalcUser</text><line style="stroke:#181818;stroke-width:0.5;" x1="50.5" x2="144.5" y1="645.5" y2="645.5"/><line style="stroke:#181818;stroke-width:0.5;" x1="50.5" x2="144.5" y1="653.5" y2="653.5"/></g><!--class TaalcMember--><g id="elem_TaalcMember"><rect codeLine="30" fill="#F1F1F1" height="65.6094" id="TaalcMember" rx="2.5" ry="2.5" style="stroke:#181818;stroke-width:0.5;" width="118" x="40.5" y="452.5"/><ellipse cx="55.5" cy="468.5" fill="#ADD1B2" rx="11" ry="11" style="stroke:#181818;stroke-width:1.0;"/><path d="M58.2656,464.375 Q58.4219,464.1563 58.6094,464.0469 Q58.7969,463.9375 59.0156,463.9375 Q59.3906,463.9375 59.625,464.1953 Q59.8594,464.4531 59.8594,465.0625 L59.8594,466.5156 Q59.8594,467.125 59.625,467.3906 Q59.3906,467.6563 59.0156,467.6563 Q58.6719,467.6563 58.4688,467.4531 Q58.2656,467.2656 58.1563,466.75 Q58.1094,466.3906 57.9219,466.2031 Q57.5938,465.8281 56.9844,465.6094 Q56.375,465.3906 55.75,465.3906 Q54.9844,465.3906 54.3516,465.7188 Q53.7188,466.0469 53.2266,466.7969 Q52.7344,467.5469 52.7344,468.5781 L52.7344,469.6719 Q52.7344,470.9063 53.625,471.7266 Q54.5156,472.5469 56.1094,472.5469 Q57.0469,472.5469 57.7031,472.2969 Q58.0938,472.1406 58.5156,471.7031 Q58.7813,471.4375 58.9297,471.3594 Q59.0781,471.2813 59.2813,471.2813 Q59.6094,471.2813 59.8672,471.5391 Q60.125,471.7969 60.125,472.1406 Q60.125,472.4844 59.7813,472.8906 Q59.2813,473.4688 58.4844,473.7969 Q57.4063,474.25 56.1094,474.25 Q54.5938,474.25 53.3906,473.625 Q52.4063,473.125 51.7188,472.0547 Q51.0313,470.9844 51.0313,469.7031 L51.0313,468.5469 Q51.0313,467.2188 51.6484,466.0703 Q52.2656,464.9219 53.3594,464.3047 Q54.4531,463.6875 55.6875,463.6875 Q56.4219,463.6875 57.0703,463.8516 Q57.7188,464.0156 58.2656,464.375 Z " fill="#000000"/><text fill="#000000" font-family="sans-serif" font-size="14" lengthAdjust="spacing" textLength="86" x="69.5" y="474.2285">TaalcMember</text><line style="stroke:#181818;stroke-width:0.5;" x1="41.5" x2="157.5" y1="484.5" y2="484.5"/><text fill="#000000" font-family="sans-serif" font-size="14" lengthAdjust="spacing" textLength="74" x="46.5" y="503.0332">telegram_id</text><line style="stroke:#181818;stroke-width:0.5;" x1="41.5" x2="157.5" y1="510.1094" y2="510.1094"/></g><!--class Wallet--><g id="elem_Wallet"><rect codeLine="34" fill="#F1F1F1" height="100.8281" id="Wallet" rx="2.5" ry="2.5" style="stroke:#181818;stroke-width:0.5;" width="71" x="195" y="435"/><ellipse cx="210" cy="451" fill="#ADD1B2" rx="11" ry="11" style="stroke:#181818;stroke-width:1.0;"/><path d="M212.7656,446.875 Q212.9219,446.6563 213.1094,446.5469 Q213.2969,446.4375 213.5156,446.4375 Q213.8906,446.4375 214.125,446.6953 Q214.3594,446.9531 214.3594,447.5625 L214.3594,449.0156 Q214.3594,449.625 214.125,449.8906 Q213.8906,450.1563 213.5156,450.1563 Q213.1719,450.1563 212.9688,449.9531 Q212.7656,449.7656 212.6563,449.25 Q212.6094,448.8906 212.4219,448.7031 Q212.0938,448.3281 211.4844,448.1094 Q210.875,447.8906 210.25,447.8906 Q209.4844,447.8906 208.8516,448.2188 Q208.2188,448.5469 207.7266,449.2969 Q207.2344,450.0469 207.2344,451.0781 L207.2344,452.1719 Q207.2344,453.4063 208.125,454.2266 Q209.0156,455.0469 210.6094,455.0469 Q211.5469,455.0469 212.2031,454.7969 Q212.5938,454.6406 213.0156,454.2031 Q213.2813,453.9375 213.4297,453.8594 Q213.5781,453.7813 213.7813,453.7813 Q214.1094,453.7813 214.3672,454.0391 Q214.625,454.2969 214.625,454.6406 Q214.625,454.9844 214.2813,455.3906 Q213.7813,455.9688 212.9844,456.2969 Q211.9063,456.75 210.6094,456.75 Q209.0938,456.75 207.8906,456.125 Q206.9063,455.625 206.2188,454.5547 Q205.5313,453.4844 205.5313,452.2031 L205.5313,451.0469 Q205.5313,449.7188 206.1484,448.5703 Q206.7656,447.4219 207.8594,446.8047 Q208.9531,446.1875 210.1875,446.1875 Q210.9219,446.1875 211.5703,446.3516 Q212.2188,446.5156 212.7656,446.875 Z " fill="#000000"/><text fill="#000000" font-family="sans-serif" font-size="14" lengthAdjust="spacing" textLength="39" x="224" y="456.7285">Wallet</text><line style="stroke:#181818;stroke-width:0.5;" x1="196" x2="265" y1="467" y2="467"/><text fill="#000000" font-family="sans-serif" font-size="14" lengthAdjust="spacing" textLength="51" x="201" y="485.5332">member</text><text fill="#000000" font-family="sans-serif" font-size="14" lengthAdjust="spacing" textLength="55" x="201" y="503.1426">currency</text><text fill="#000000" font-family="sans-serif" font-size="14" lengthAdjust="spacing" textLength="47" x="201" y="520.752">amount</text><line style="stroke:#181818;stroke-width:0.5;" x1="196" x2="265" y1="527.8281" y2="527.8281"/></g><!--class TaalcToken--><g id="elem_TaalcToken"><rect codeLine="41" fill="#F1F1F1" height="65.6094" id="TaalcToken" rx="2.5" ry="2.5" style="stroke:#181818;stroke-width:0.5;" width="107" x="197" y="95"/><ellipse cx="212" cy="111" fill="#ADD1B2" rx="11" ry="11" style="stroke:#181818;stroke-width:1.0;"/><path d="M214.7656,106.875 Q214.9219,106.6563 215.1094,106.5469 Q215.2969,106.4375 215.5156,106.4375 Q215.8906,106.4375 216.125,106.6953 Q216.3594,106.9531 216.3594,107.5625 L216.3594,109.0156 Q216.3594,109.625 216.125,109.8906 Q215.8906,110.1563 215.5156,110.1563 Q215.1719,110.1563 214.9688,109.9531 Q214.7656,109.7656 214.6563,109.25 Q214.6094,108.8906 214.4219,108.7031 Q214.0938,108.3281 213.4844,108.1094 Q212.875,107.8906 212.25,107.8906 Q211.4844,107.8906 210.8516,108.2188 Q210.2188,108.5469 209.7266,109.2969 Q209.2344,110.0469 209.2344,111.0781 L209.2344,112.1719 Q209.2344,113.4063 210.125,114.2266 Q211.0156,115.0469 212.6094,115.0469 Q213.5469,115.0469 214.2031,114.7969 Q214.5938,114.6406 215.0156,114.2031 Q215.2813,113.9375 215.4297,113.8594 Q215.5781,113.7813 215.7813,113.7813 Q216.1094,113.7813 216.3672,114.0391 Q216.625,114.2969 216.625,114.6406 Q216.625,114.9844 216.2813,115.3906 Q215.7813,115.9688 214.9844,116.2969 Q213.9063,116.75 212.6094,116.75 Q211.0938,116.75 209.8906,116.125 Q208.9063,115.625 208.2188,114.5547 Q207.5313,113.4844 207.5313,112.2031 L207.5313,111.0469 Q207.5313,109.7188 208.1484,108.5703 Q208.7656,107.4219 209.8594,106.8047 Q210.9531,106.1875 212.1875,106.1875 Q212.9219,106.1875 213.5703,106.3516 Q214.2188,106.5156 214.7656,106.875 Z " fill="#000000"/><text fill="#000000" font-family="sans-serif" font-size="14" lengthAdjust="spacing" textLength="75" x="226" y="116.7285">TaalcToken</text><line style="stroke:#181818;stroke-width:0.5;" x1="198" x2="303" y1="127" y2="127"/><text fill="#000000" font-family="sans-serif" font-size="14" lengthAdjust="spacing" textLength="35" x="203" y="145.5332">name</text><line style="stroke:#181818;stroke-width:0.5;" x1="198" x2="303" y1="152.6094" y2="152.6094"/></g><!--class TaalcMessage--><g id="elem_TaalcMessage"><rect codeLine="45" fill="#F1F1F1" height="153.6563" id="TaalcMessage" rx="2.5" ry="2.5" style="stroke:#181818;stroke-width:0.5;" width="124" x="360.5" y="51"/><ellipse cx="375.5" cy="67" fill="#ADD1B2" rx="11" ry="11" style="stroke:#181818;stroke-width:1.0;"/><path d="M378.2656,62.875 Q378.4219,62.6563 378.6094,62.5469 Q378.7969,62.4375 379.0156,62.4375 Q379.3906,62.4375 379.625,62.6953 Q379.8594,62.9531 379.8594,63.5625 L379.8594,65.0156 Q379.8594,65.625 379.625,65.8906 Q379.3906,66.1563 379.0156,66.1563 Q378.6719,66.1563 378.4688,65.9531 Q378.2656,65.7656 378.1563,65.25 Q378.1094,64.8906 377.9219,64.7031 Q377.5938,64.3281 376.9844,64.1094 Q376.375,63.8906 375.75,63.8906 Q374.9844,63.8906 374.3516,64.2188 Q373.7188,64.5469 373.2266,65.2969 Q372.7344,66.0469 372.7344,67.0781 L372.7344,68.1719 Q372.7344,69.4063 373.625,70.2266 Q374.5156,71.0469 376.1094,71.0469 Q377.0469,71.0469 377.7031,70.7969 Q378.0938,70.6406 378.5156,70.2031 Q378.7813,69.9375 378.9297,69.8594 Q379.0781,69.7813 379.2813,69.7813 Q379.6094,69.7813 379.8672,70.0391 Q380.125,70.2969 380.125,70.6406 Q380.125,70.9844 379.7813,71.3906 Q379.2813,71.9688 378.4844,72.2969 Q377.4063,72.75 376.1094,72.75 Q374.5938,72.75 373.3906,72.125 Q372.4063,71.625 371.7188,70.5547 Q371.0313,69.4844 371.0313,68.2031 L371.0313,67.0469 Q371.0313,65.7188 371.6484,64.5703 Q372.2656,63.4219 373.3594,62.8047 Q374.4531,62.1875 375.6875,62.1875 Q376.4219,62.1875 377.0703,62.3516 Q377.7188,62.5156 378.2656,62.875 Z " fill="#000000"/><text fill="#000000" font-family="sans-serif" font-size="14" lengthAdjust="spacing" textLength="92" x="389.5" y="72.7285">TaalcMessage</text><line style="stroke:#181818;stroke-width:0.5;" x1="361.5" x2="483.5" y1="83" y2="83"/><text fill="#000000" font-family="sans-serif" font-size="14" lengthAdjust="spacing" textLength="38" x="366.5" y="101.5332">owner</text><text fill="#000000" font-family="sans-serif" font-size="14" lengthAdjust="spacing" textLength="45" x="366.5" y="119.1426">creator</text><text fill="#000000" font-family="sans-serif" font-size="14" lengthAdjust="spacing" textLength="67" x="366.5" y="136.752">taalc_offer</text><text fill="#000000" font-family="sans-serif" font-size="14" lengthAdjust="spacing" textLength="54" x="366.5" y="154.3613">taalc_nft</text><text fill="#000000" font-family="sans-serif" font-size="14" lengthAdjust="spacing" textLength="65" x="366.5" y="171.9707">taalc_chat</text><text fill="#000000" font-family="sans-serif" font-size="14" lengthAdjust="spacing" textLength="31" x="366.5" y="189.5801">tg_id</text><line style="stroke:#181818;stroke-width:0.5;" x1="361.5" x2="483.5" y1="196.6563" y2="196.6563"/></g><!--class NftState--><g id="elem_NftState"><rect codeLine="54" fill="#F1F1F1" height="100.8281" id="NftState" rx="2.5" ry="2.5" style="stroke:#181818;stroke-width:0.5;" width="91" x="307" y="435"/><ellipse cx="326.05" cy="451" fill="#EB937F" rx="11" ry="11" style="stroke:#181818;stroke-width:1.0;"/><path d="M324.9094,451.7969 L324.9094,454.2969 L329.2375,454.2969 L329.2375,453.375 Q329.2375,452.7656 329.4797,452.5 Q329.7219,452.2344 330.0969,452.2344 Q330.4719,452.2344 330.7063,452.5 Q330.9406,452.7656 330.9406,453.375 L330.9406,456 L322.9406,456 Q322.3156,456 322.0578,455.7656 Q321.8,455.5313 321.8,455.1406 Q321.8,454.7656 322.0656,454.5313 Q322.3313,454.2969 322.9406,454.2969 L323.2063,454.2969 L323.2063,447.6406 L322.9406,447.6406 Q322.3156,447.6406 322.0578,447.4063 Q321.8,447.1719 321.8,446.7813 Q321.8,446.4063 322.0578,446.1719 Q322.3156,445.9375 322.9406,445.9375 L330.5656,445.9375 L330.5656,448.5313 Q330.5656,449.1406 330.3391,449.3984 Q330.1125,449.6563 329.7219,449.6563 Q329.3469,449.6563 329.1125,449.3984 Q328.8781,449.1406 328.8781,448.5313 L328.8781,447.6406 L324.9094,447.6406 L324.9094,450.0938 L326.3938,450.0938 Q326.3938,449.4375 326.5188,449.25 Q326.7844,448.8438 327.2531,448.8438 Q327.6281,448.8438 327.8625,449.1016 Q328.0969,449.3594 328.0969,449.9688 L328.0969,451.9375 Q328.0969,452.4844 327.9719,452.6719 Q327.7063,453.0625 327.2531,453.0625 Q326.7844,453.0625 326.5188,452.6563 Q326.3938,452.4688 326.3938,451.7969 L324.9094,451.7969 Z " fill="#000000"/><text fill="#000000" font-family="sans-serif" font-size="14" lengthAdjust="spacing" textLength="50" x="340.95" y="456.7285">NftState</text><line style="stroke:#181818;stroke-width:0.5;" x1="308" x2="397" y1="467" y2="467"/><text fill="#000000" font-family="sans-serif" font-size="14" lengthAdjust="spacing" textLength="79" x="313" y="485.5332">is_published</text><text fill="#000000" font-family="sans-serif" font-size="14" lengthAdjust="spacing" textLength="70" x="313" y="503.1426">on_bidding</text><text fill="#000000" font-family="sans-serif" font-size="14" lengthAdjust="spacing" textLength="64" x="313" y="520.752">publishing</text><line style="stroke:#181818;stroke-width:0.5;" x1="308" x2="397" y1="527.8281" y2="527.8281"/></g><!--class TaalcOffer--><g id="elem_TaalcOffer"><rect codeLine="60" fill="#F1F1F1" height="241.7031" id="TaalcOffer" rx="2.5" ry="2.5" style="stroke:#181818;stroke-width:0.5;" width="99" x="561" y="7"/><ellipse cx="576" cy="23" fill="#ADD1B2" rx="11" ry="11" style="stroke:#181818;stroke-width:1.0;"/><path d="M578.7656,18.875 Q578.9219,18.6563 579.1094,18.5469 Q579.2969,18.4375 579.5156,18.4375 Q579.8906,18.4375 580.125,18.6953 Q580.3594,18.9531 580.3594,19.5625 L580.3594,21.0156 Q580.3594,21.625 580.125,21.8906 Q579.8906,22.1563 579.5156,22.1563 Q579.1719,22.1563 578.9688,21.9531 Q578.7656,21.7656 578.6563,21.25 Q578.6094,20.8906 578.4219,20.7031 Q578.0938,20.3281 577.4844,20.1094 Q576.875,19.8906 576.25,19.8906 Q575.4844,19.8906 574.8516,20.2188 Q574.2188,20.5469 573.7266,21.2969 Q573.2344,22.0469 573.2344,23.0781 L573.2344,24.1719 Q573.2344,25.4063 574.125,26.2266 Q575.0156,27.0469 576.6094,27.0469 Q577.5469,27.0469 578.2031,26.7969 Q578.5938,26.6406 579.0156,26.2031 Q579.2813,25.9375 579.4297,25.8594 Q579.5781,25.7813 579.7813,25.7813 Q580.1094,25.7813 580.3672,26.0391 Q580.625,26.2969 580.625,26.6406 Q580.625,26.9844 580.2813,27.3906 Q579.7813,27.9688 578.9844,28.2969 Q577.9063,28.75 576.6094,28.75 Q575.0938,28.75 573.8906,28.125 Q572.9063,27.625 572.2188,26.5547 Q571.5313,25.4844 571.5313,24.2031 L571.5313,23.0469 Q571.5313,21.7188 572.1484,20.5703 Q572.7656,19.4219 573.8594,18.8047 Q574.9531,18.1875 576.1875,18.1875 Q576.9219,18.1875 577.5703,18.3516 Q578.2188,18.5156 578.7656,18.875 Z " fill="#000000"/><text fill="#000000" font-family="sans-serif" font-size="14" lengthAdjust="spacing" textLength="67" x="590" y="28.7285">TaalcOffer</text><line style="stroke:#181818;stroke-width:0.5;" x1="562" x2="659" y1="39" y2="39"/><text fill="#000000" font-family="sans-serif" font-size="14" lengthAdjust="spacing" textLength="64" x="567" y="57.5332">from_user</text><text fill="#000000" font-family="sans-serif" font-size="14" lengthAdjust="spacing" textLength="48" x="567" y="75.1426">to_user</text><text fill="#000000" font-family="sans-serif" font-size="14" lengthAdjust="spacing" textLength="27" x="567" y="92.752">type</text><text fill="#000000" font-family="sans-serif" font-size="14" lengthAdjust="spacing" textLength="45" x="567" y="110.3613">subject</text><text fill="#000000" font-family="sans-serif" font-size="14" lengthAdjust="spacing" textLength="55" x="567" y="127.9707">currency</text><text fill="#000000" font-family="sans-serif" font-size="14" lengthAdjust="spacing" textLength="31" x="567" y="145.5801">price</text><text fill="#000000" font-family="sans-serif" font-size="14" lengthAdjust="spacing" textLength="31" x="567" y="163.1895">state</text><text fill="#000000" font-family="sans-serif" font-size="14" lengthAdjust="spacing" textLength="26" x="567" y="180.7988">time</text><text fill="#000000" font-family="sans-serif" font-size="14" lengthAdjust="spacing" textLength="52" x="567" y="198.4082">duration</text><text fill="#000000" font-family="sans-serif" font-size="14" lengthAdjust="spacing" textLength="57" x="567" y="216.0176">message</text><text fill="#000000" font-family="sans-serif" font-size="14" lengthAdjust="spacing" textLength="65" x="567" y="233.627">bidding_id</text><line style="stroke:#181818;stroke-width:0.5;" x1="562" x2="659" y1="240.7031" y2="240.7031"/></g><!--class OfferState--><g id="elem_OfferState"><rect codeLine="73" fill="#F1F1F1" height="48" id="OfferState" rx="2.5" ry="2.5" style="stroke:#181818;stroke-width:0.5;" width="97" x="562" y="318"/><ellipse cx="577" cy="334" fill="#EB937F" rx="11" ry="11" style="stroke:#181818;stroke-width:1.0;"/><path d="M575.8594,334.7969 L575.8594,337.2969 L580.1875,337.2969 L580.1875,336.375 Q580.1875,335.7656 580.4297,335.5 Q580.6719,335.2344 581.0469,335.2344 Q581.4219,335.2344 581.6563,335.5 Q581.8906,335.7656 581.8906,336.375 L581.8906,339 L573.8906,339 Q573.2656,339 573.0078,338.7656 Q572.75,338.5313 572.75,338.1406 Q572.75,337.7656 573.0156,337.5313 Q573.2813,337.2969 573.8906,337.2969 L574.1563,337.2969 L574.1563,330.6406 L573.8906,330.6406 Q573.2656,330.6406 573.0078,330.4063 Q572.75,330.1719 572.75,329.7813 Q572.75,329.4063 573.0078,329.1719 Q573.2656,328.9375 573.8906,328.9375 L581.5156,328.9375 L581.5156,331.5313 Q581.5156,332.1406 581.2891,332.3984 Q581.0625,332.6563 580.6719,332.6563 Q580.2969,332.6563 580.0625,332.3984 Q579.8281,332.1406 579.8281,331.5313 L579.8281,330.6406 L575.8594,330.6406 L575.8594,333.0938 L577.3438,333.0938 Q577.3438,332.4375 577.4688,332.25 Q577.7344,331.8438 578.2031,331.8438 Q578.5781,331.8438 578.8125,332.1016 Q579.0469,332.3594 579.0469,332.9688 L579.0469,334.9375 Q579.0469,335.4844 578.9219,335.6719 Q578.6563,336.0625 578.2031,336.0625 Q577.7344,336.0625 577.4688,335.6563 Q577.3438,335.4688 577.3438,334.7969 L575.8594,334.7969 Z " fill="#000000"/><text fill="#000000" font-family="sans-serif" font-size="14" lengthAdjust="spacing" textLength="65" x="591" y="339.7285">OfferState</text><line style="stroke:#181818;stroke-width:0.5;" x1="563" x2="658" y1="350" y2="350"/><line style="stroke:#181818;stroke-width:0.5;" x1="563" x2="658" y1="358" y2="358"/></g><!--class OfferType--><g id="elem_OfferType"><rect codeLine="76" fill="#F1F1F1" height="48" id="OfferType" rx="2.5" ry="2.5" style="stroke:#181818;stroke-width:0.5;" width="96" x="694.5" y="318"/><ellipse cx="709.5" cy="334" fill="#EB937F" rx="11" ry="11" style="stroke:#181818;stroke-width:1.0;"/><path d="M708.3594,334.7969 L708.3594,337.2969 L712.6875,337.2969 L712.6875,336.375 Q712.6875,335.7656 712.9297,335.5 Q713.1719,335.2344 713.5469,335.2344 Q713.9219,335.2344 714.1563,335.5 Q714.3906,335.7656 714.3906,336.375 L714.3906,339 L706.3906,339 Q705.7656,339 705.5078,338.7656 Q705.25,338.5313 705.25,338.1406 Q705.25,337.7656 705.5156,337.5313 Q705.7813,337.2969 706.3906,337.2969 L706.6563,337.2969 L706.6563,330.6406 L706.3906,330.6406 Q705.7656,330.6406 705.5078,330.4063 Q705.25,330.1719 705.25,329.7813 Q705.25,329.4063 705.5078,329.1719 Q705.7656,328.9375 706.3906,328.9375 L714.0156,328.9375 L714.0156,331.5313 Q714.0156,332.1406 713.7891,332.3984 Q713.5625,332.6563 713.1719,332.6563 Q712.7969,332.6563 712.5625,332.3984 Q712.3281,332.1406 712.3281,331.5313 L712.3281,330.6406 L708.3594,330.6406 L708.3594,333.0938 L709.8438,333.0938 Q709.8438,332.4375 709.9688,332.25 Q710.2344,331.8438 710.7031,331.8438 Q711.0781,331.8438 711.3125,332.1016 Q711.5469,332.3594 711.5469,332.9688 L711.5469,334.9375 Q711.5469,335.4844 711.4219,335.6719 Q711.1563,336.0625 710.7031,336.0625 Q710.2344,336.0625 709.9688,335.6563 Q709.8438,335.4688 709.8438,334.7969 L708.3594,334.7969 Z " fill="#000000"/><text fill="#000000" font-family="sans-serif" font-size="14" lengthAdjust="spacing" textLength="64" x="723.5" y="339.7285">OfferType</text><line style="stroke:#181818;stroke-width:0.5;" x1="695.5" x2="789.5" y1="350" y2="350"/><line style="stroke:#181818;stroke-width:0.5;" x1="695.5" x2="789.5" y1="358" y2="358"/></g><!--class TaalcChat--><g id="elem_TaalcChat"><rect codeLine="79" fill="#F1F1F1" height="48" id="TaalcChat" rx="2.5" ry="2.5" style="stroke:#181818;stroke-width:0.5;" width="97" x="430" y="318"/><ellipse cx="445" cy="334" fill="#ADD1B2" rx="11" ry="11" style="stroke:#181818;stroke-width:1.0;"/><path d="M447.7656,329.875 Q447.9219,329.6563 448.1094,329.5469 Q448.2969,329.4375 448.5156,329.4375 Q448.8906,329.4375 449.125,329.6953 Q449.3594,329.9531 449.3594,330.5625 L449.3594,332.0156 Q449.3594,332.625 449.125,332.8906 Q448.8906,333.1563 448.5156,333.1563 Q448.1719,333.1563 447.9688,332.9531 Q447.7656,332.7656 447.6563,332.25 Q447.6094,331.8906 447.4219,331.7031 Q447.0938,331.3281 446.4844,331.1094 Q445.875,330.8906 445.25,330.8906 Q444.4844,330.8906 443.8516,331.2188 Q443.2188,331.5469 442.7266,332.2969 Q442.2344,333.0469 442.2344,334.0781 L442.2344,335.1719 Q442.2344,336.4063 443.125,337.2266 Q444.0156,338.0469 445.6094,338.0469 Q446.5469,338.0469 447.2031,337.7969 Q447.5938,337.6406 448.0156,337.2031 Q448.2813,336.9375 448.4297,336.8594 Q448.5781,336.7813 448.7813,336.7813 Q449.1094,336.7813 449.3672,337.0391 Q449.625,337.2969 449.625,337.6406 Q449.625,337.9844 449.2813,338.3906 Q448.7813,338.9688 447.9844,339.2969 Q446.9063,339.75 445.6094,339.75 Q444.0938,339.75 442.8906,339.125 Q441.9063,338.625 441.2188,337.5547 Q440.5313,336.4844 440.5313,335.2031 L440.5313,334.0469 Q440.5313,332.7188 441.1484,331.5703 Q441.7656,330.4219 442.8594,329.8047 Q443.9531,329.1875 445.1875,329.1875 Q445.9219,329.1875 446.5703,329.3516 Q447.2188,329.5156 447.7656,329.875 Z " fill="#000000"/><text fill="#000000" font-family="sans-serif" font-size="14" lengthAdjust="spacing" textLength="65" x="459" y="339.7285">TaalcChat</text><line style="stroke:#181818;stroke-width:0.5;" x1="431" x2="526" y1="350" y2="350"/><line style="stroke:#181818;stroke-width:0.5;" x1="431" x2="526" y1="358" y2="358"/></g><!--class Currency--><g id="elem_Currency"><rect codeLine="82" fill="#F1F1F1" height="48" id="Currency" rx="2.5" ry="2.5" style="stroke:#181818;stroke-width:0.5;" width="90" x="185.5" y="318"/><ellipse cx="200.5" cy="334" fill="#ADD1B2" rx="11" ry="11" style="stroke:#181818;stroke-width:1.0;"/><path d="M203.2656,329.875 Q203.4219,329.6563 203.6094,329.5469 Q203.7969,329.4375 204.0156,329.4375 Q204.3906,329.4375 204.625,329.6953 Q204.8594,329.9531 204.8594,330.5625 L204.8594,332.0156 Q204.8594,332.625 204.625,332.8906 Q204.3906,333.1563 204.0156,333.1563 Q203.6719,333.1563 203.4688,332.9531 Q203.2656,332.7656 203.1563,332.25 Q203.1094,331.8906 202.9219,331.7031 Q202.5938,331.3281 201.9844,331.1094 Q201.375,330.8906 200.75,330.8906 Q199.9844,330.8906 199.3516,331.2188 Q198.7188,331.5469 198.2266,332.2969 Q197.7344,333.0469 197.7344,334.0781 L197.7344,335.1719 Q197.7344,336.4063 198.625,337.2266 Q199.5156,338.0469 201.1094,338.0469 Q202.0469,338.0469 202.7031,337.7969 Q203.0938,337.6406 203.5156,337.2031 Q203.7813,336.9375 203.9297,336.8594 Q204.0781,336.7813 204.2813,336.7813 Q204.6094,336.7813 204.8672,337.0391 Q205.125,337.2969 205.125,337.6406 Q205.125,337.9844 204.7813,338.3906 Q204.2813,338.9688 203.4844,339.2969 Q202.4063,339.75 201.1094,339.75 Q199.5938,339.75 198.3906,339.125 Q197.4063,338.625 196.7188,337.5547 Q196.0313,336.4844 196.0313,335.2031 L196.0313,334.0469 Q196.0313,332.7188 196.6484,331.5703 Q197.2656,330.4219 198.3594,329.8047 Q199.4531,329.1875 200.6875,329.1875 Q201.4219,329.1875 202.0703,329.3516 Q202.7188,329.5156 203.2656,329.875 Z " fill="#000000"/><text fill="#000000" font-family="sans-serif" font-size="14" lengthAdjust="spacing" textLength="58" x="214.5" y="339.7285">Currency</text><line style="stroke:#181818;stroke-width:0.5;" x1="186.5" x2="274.5" y1="350" y2="350"/><line style="stroke:#181818;stroke-width:0.5;" x1="186.5" x2="274.5" y1="358" y2="358"/></g><!--class TaalcNft--><g id="elem_TaalcNft"><rect codeLine="83" fill="#F1F1F1" height="65.6094" id="TaalcNft" rx="2.5" ry="2.5" style="stroke:#181818;stroke-width:0.5;" width="84" x="310.5" y="309"/><ellipse cx="325.5" cy="325" fill="#ADD1B2" rx="11" ry="11" style="stroke:#181818;stroke-width:1.0;"/><path d="M328.2656,320.875 Q328.4219,320.6563 328.6094,320.5469 Q328.7969,320.4375 329.0156,320.4375 Q329.3906,320.4375 329.625,320.6953 Q329.8594,320.9531 329.8594,321.5625 L329.8594,323.0156 Q329.8594,323.625 329.625,323.8906 Q329.3906,324.1563 329.0156,324.1563 Q328.6719,324.1563 328.4688,323.9531 Q328.2656,323.7656 328.1563,323.25 Q328.1094,322.8906 327.9219,322.7031 Q327.5938,322.3281 326.9844,322.1094 Q326.375,321.8906 325.75,321.8906 Q324.9844,321.8906 324.3516,322.2188 Q323.7188,322.5469 323.2266,323.2969 Q322.7344,324.0469 322.7344,325.0781 L322.7344,326.1719 Q322.7344,327.4063 323.625,328.2266 Q324.5156,329.0469 326.1094,329.0469 Q327.0469,329.0469 327.7031,328.7969 Q328.0938,328.6406 328.5156,328.2031 Q328.7813,327.9375 328.9297,327.8594 Q329.0781,327.7813 329.2813,327.7813 Q329.6094,327.7813 329.8672,328.0391 Q330.125,328.2969 330.125,328.6406 Q330.125,328.9844 329.7813,329.3906 Q329.2813,329.9688 328.4844,330.2969 Q327.4063,330.75 326.1094,330.75 Q324.5938,330.75 323.3906,330.125 Q322.4063,329.625 321.7188,328.5547 Q321.0313,327.4844 321.0313,326.2031 L321.0313,325.0469 Q321.0313,323.7188 321.6484,322.5703 Q322.2656,321.4219 323.3594,320.8047 Q324.4531,320.1875 325.6875,320.1875 Q326.4219,320.1875 327.0703,320.3516 Q327.7188,320.5156 328.2656,320.875 Z " fill="#000000"/><text fill="#000000" font-family="sans-serif" font-size="14" lengthAdjust="spacing" textLength="52" x="339.5" y="330.7285">TaalcNft</text><line style="stroke:#181818;stroke-width:0.5;" x1="311.5" x2="393.5" y1="341" y2="341"/><text fill="#000000" font-family="sans-serif" font-size="14" lengthAdjust="spacing" textLength="50" x="316.5" y="359.5332">NftState</text><line style="stroke:#181818;stroke-width:0.5;" x1="311.5" x2="393.5" y1="366.6094" y2="366.6094"/></g><!--class SystemService--><g id="elem_SystemService"><rect codeLine="87" fill="#F1F1F1" height="65.6094" id="SystemService" rx="2.5" ry="2.5" style="stroke:#181818;stroke-width:0.5;" width="125" x="954" y="95"/><ellipse cx="969" cy="111" fill="#ADD1B2" rx="11" ry="11" style="stroke:#181818;stroke-width:1.0;"/><path d="M971.7656,106.875 Q971.9219,106.6563 972.1094,106.5469 Q972.2969,106.4375 972.5156,106.4375 Q972.8906,106.4375 973.125,106.6953 Q973.3594,106.9531 973.3594,107.5625 L973.3594,109.0156 Q973.3594,109.625 973.125,109.8906 Q972.8906,110.1563 972.5156,110.1563 Q972.1719,110.1563 971.9688,109.9531 Q971.7656,109.7656 971.6563,109.25 Q971.6094,108.8906 971.4219,108.7031 Q971.0938,108.3281 970.4844,108.1094 Q969.875,107.8906 969.25,107.8906 Q968.4844,107.8906 967.8516,108.2188 Q967.2188,108.5469 966.7266,109.2969 Q966.2344,110.0469 966.2344,111.0781 L966.2344,112.1719 Q966.2344,113.4063 967.125,114.2266 Q968.0156,115.0469 969.6094,115.0469 Q970.5469,115.0469 971.2031,114.7969 Q971.5938,114.6406 972.0156,114.2031 Q972.2813,113.9375 972.4297,113.8594 Q972.5781,113.7813 972.7813,113.7813 Q973.1094,113.7813 973.3672,114.0391 Q973.625,114.2969 973.625,114.6406 Q973.625,114.9844 973.2813,115.3906 Q972.7813,115.9688 971.9844,116.2969 Q970.9063,116.75 969.6094,116.75 Q968.0938,116.75 966.8906,116.125 Q965.9063,115.625 965.2188,114.5547 Q964.5313,113.4844 964.5313,112.2031 L964.5313,111.0469 Q964.5313,109.7188 965.1484,108.5703 Q965.7656,107.4219 966.8594,106.8047 Q967.9531,106.1875 969.1875,106.1875 Q969.9219,106.1875 970.5703,106.3516 Q971.2188,106.5156 971.7656,106.875 Z " fill="#000000"/><text fill="#000000" font-family="sans-serif" font-size="14" lengthAdjust="spacing" textLength="93" x="983" y="116.7285">SystemService</text><line style="stroke:#181818;stroke-width:0.5;" x1="955" x2="1078" y1="127" y2="127"/><line style="stroke:#181818;stroke-width:0.5;" x1="955" x2="1078" y1="135" y2="135"/><text fill="#000000" font-family="sans-serif" font-size="14" lengthAdjust="spacing" textLength="46" x="960" y="153.5332">install()</text></g><!--class WinService--><g id="elem_WinService"><rect codeLine="90" fill="#F1F1F1" height="48" id="WinService" rx="2.5" ry="2.5" style="stroke:#181818;stroke-width:0.5;" width="103" x="895" y="318"/><ellipse cx="910" cy="334" fill="#ADD1B2" rx="11" ry="11" style="stroke:#181818;stroke-width:1.0;"/><path d="M912.7656,329.875 Q912.9219,329.6563 913.1094,329.5469 Q913.2969,329.4375 913.5156,329.4375 Q913.8906,329.4375 914.125,329.6953 Q914.3594,329.9531 914.3594,330.5625 L914.3594,332.0156 Q914.3594,332.625 914.125,332.8906 Q913.8906,333.1563 913.5156,333.1563 Q913.1719,333.1563 912.9688,332.9531 Q912.7656,332.7656 912.6563,332.25 Q912.6094,331.8906 912.4219,331.7031 Q912.0938,331.3281 911.4844,331.1094 Q910.875,330.8906 910.25,330.8906 Q909.4844,330.8906 908.8516,331.2188 Q908.2188,331.5469 907.7266,332.2969 Q907.2344,333.0469 907.2344,334.0781 L907.2344,335.1719 Q907.2344,336.4063 908.125,337.2266 Q909.0156,338.0469 910.6094,338.0469 Q911.5469,338.0469 912.2031,337.7969 Q912.5938,337.6406 913.0156,337.2031 Q913.2813,336.9375 913.4297,336.8594 Q913.5781,336.7813 913.7813,336.7813 Q914.1094,336.7813 914.3672,337.0391 Q914.625,337.2969 914.625,337.6406 Q914.625,337.9844 914.2813,338.3906 Q913.7813,338.9688 912.9844,339.2969 Q911.9063,339.75 910.6094,339.75 Q909.0938,339.75 907.8906,339.125 Q906.9063,338.625 906.2188,337.5547 Q905.5313,336.4844 905.5313,335.2031 L905.5313,334.0469 Q905.5313,332.7188 906.1484,331.5703 Q906.7656,330.4219 907.8594,329.8047 Q908.9531,329.1875 910.1875,329.1875 Q910.9219,329.1875 911.5703,329.3516 Q912.2188,329.5156 912.7656,329.875 Z " fill="#000000"/><text fill="#000000" font-family="sans-serif" font-size="14" lengthAdjust="spacing" textLength="71" x="924" y="339.7285">WinService</text><line style="stroke:#181818;stroke-width:0.5;" x1="896" x2="997" y1="350" y2="350"/><line style="stroke:#181818;stroke-width:0.5;" x1="896" x2="997" y1="358" y2="358"/></g><!--class LinuxService--><g id="elem_LinuxService"><rect codeLine="91" fill="#F1F1F1" height="48" id="LinuxService" rx="2.5" ry="2.5" style="stroke:#181818;stroke-width:0.5;" width="112" x="1033.5" y="318"/><ellipse cx="1048.5" cy="334" fill="#ADD1B2" rx="11" ry="11" style="stroke:#181818;stroke-width:1.0;"/><path d="M1051.2656,329.875 Q1051.4219,329.6563 1051.6094,329.5469 Q1051.7969,329.4375 1052.0156,329.4375 Q1052.3906,329.4375 1052.625,329.6953 Q1052.8594,329.9531 1052.8594,330.5625 L1052.8594,332.0156 Q1052.8594,332.625 1052.625,332.8906 Q1052.3906,333.1563 1052.0156,333.1563 Q1051.6719,333.1563 1051.4688,332.9531 Q1051.2656,332.7656 1051.1563,332.25 Q1051.1094,331.8906 1050.9219,331.7031 Q1050.5938,331.3281 1049.9844,331.1094 Q1049.375,330.8906 1048.75,330.8906 Q1047.9844,330.8906 1047.3516,331.2188 Q1046.7188,331.5469 1046.2266,332.2969 Q1045.7344,333.0469 1045.7344,334.0781 L1045.7344,335.1719 Q1045.7344,336.4063 1046.625,337.2266 Q1047.5156,338.0469 1049.1094,338.0469 Q1050.0469,338.0469 1050.7031,337.7969 Q1051.0938,337.6406 1051.5156,337.2031 Q1051.7813,336.9375 1051.9297,336.8594 Q1052.0781,336.7813 1052.2813,336.7813 Q1052.6094,336.7813 1052.8672,337.0391 Q1053.125,337.2969 1053.125,337.6406 Q1053.125,337.9844 1052.7813,338.3906 Q1052.2813,338.9688 1051.4844,339.2969 Q1050.4063,339.75 1049.1094,339.75 Q1047.5938,339.75 1046.3906,339.125 Q1045.4063,338.625 1044.7188,337.5547 Q1044.0313,336.4844 1044.0313,335.2031 L1044.0313,334.0469 Q1044.0313,332.7188 1044.6484,331.5703 Q1045.2656,330.4219 1046.3594,329.8047 Q1047.4531,329.1875 1048.6875,329.1875 Q1049.4219,329.1875 1050.0703,329.3516 Q1050.7188,329.5156 1051.2656,329.875 Z " fill="#000000"/><text fill="#000000" font-family="sans-serif" font-size="14" lengthAdjust="spacing" textLength="80" x="1062.5" y="339.7285">LinuxService</text><line style="stroke:#181818;stroke-width:0.5;" x1="1034.5" x2="1144.5" y1="350" y2="350"/><line style="stroke:#181818;stroke-width:0.5;" x1="1034.5" x2="1144.5" y1="358" y2="358"/></g><!--reverse link SystemService to WinService--><g id="link_SystemService_WinService"><path codeLine="93" d="M1000.2242,178.2917 C985.9542,221.4917 966.61,280.08 954.1,317.99 " fill="none" id="SystemService-backto-WinService" style="stroke:#181818;stroke-width:1.0;"/><polygon fill="none" points="1005.87,161.2,994.527,176.4097,1005.9214,180.1736,1005.87,161.2" style="stroke:#181818;stroke-width:1.0;"/></g><!--reverse link SystemService to LinuxService--><g id="link_SystemService_LinuxService"><path codeLine="94" d="M1033.4485,178.2199 C1048.3185,221.4199 1068.52,280.08 1081.58,317.99 " fill="none" id="SystemService-backto-LinuxService" style="stroke:#181818;stroke-width:1.0;"/><polygon fill="none" points="1027.59,161.2,1027.7752,180.1728,1039.1218,176.2671,1027.59,161.2" style="stroke:#181818;stroke-width:1.0;"/></g><!--reverse link TaalcMember to TaalcUser--><g id="link_TaalcMember_TaalcUser"><path codeLine="96" d="M98.8293,536.6784 C98.4493,565.0884 98.15,587.82 97.81,613.19 " fill="none" id="TaalcMember-backto-TaalcUser" style="stroke:#181818;stroke-width:1.0;"/><polygon fill="none" points="99.07,518.68,92.8298,536.5981,104.8287,536.7586,99.07,518.68" style="stroke:#181818;stroke-width:1.0;"/></g><!--reverse link TaalcToken to Currency--><g id="link_TaalcToken_Currency"><path codeLine="97" d="M245.7716,179.1206 C241.7016,222.3206 236.25,280.08 232.67,317.99 " fill="none" id="TaalcToken-backto-Currency" style="stroke:#181818;stroke-width:1.0;"/><polygon fill="none" points="247.46,161.2,239.7981,178.5579,251.7452,179.6834,247.46,161.2" style="stroke:#181818;stroke-width:1.0;"/></g><!--reverse link TaalcToken to TaalcNft--><g id="link_TaalcToken_TaalcNft"><path codeLine="98" d="M273.7954,177.4196 C293.0254,217.3796 317.81,268.91 337.03,308.85 " fill="none" id="TaalcToken-backto-TaalcNft" style="stroke:#181818;stroke-width:1.0;"/><polygon fill="none" points="265.99,161.2,268.3888,180.0214,279.2019,174.8178,265.99,161.2" style="stroke:#181818;stroke-width:1.0;"/></g><!--link TaalcMessage to TaalcChat--><g id="link_TaalcMessage_TaalcChat"><path codeLine="99" d="M442.64,205.24 C453.11,244.89 463.647,284.7791 470.777,311.7591 " fill="none" id="TaalcMessage-to-TaalcChat" style="stroke:#181818;stroke-width:1.0;"/><polygon fill="#181818" points="472.31,317.56,473.8778,307.8367,471.0325,312.726,466.1433,309.8807,472.31,317.56" style="stroke:#181818;stroke-width:1.0;"/></g><!--link TaalcMessage to TaalcNft--><g id="link_TaalcMessage_TaalcNft"><path codeLine="100" d="M397.33,205.24 C385.57,240.85 374.0824,275.6429 365.0224,303.0629 " fill="none" id="TaalcMessage-to-TaalcNft" style="stroke:#181818;stroke-width:1.0;"/><polygon fill="#181818" points="363.14,308.76,369.7616,301.4693,364.7087,304.0124,362.1656,298.9595,363.14,308.76" style="stroke:#181818;stroke-width:1.0;"/></g><!--link TaalcNft to NftState--><g id="link_TaalcNft_NftState"><path codeLine="101" d="M352.5,375.11 C352.5,392.72 352.5,408.94 352.5,428.75 " fill="none" id="TaalcNft-to-NftState" style="stroke:#181818;stroke-width:1.0;"/><polygon fill="#181818" points="352.5,434.75,356.5,425.75,352.5,429.75,348.5,425.75,352.5,434.75" style="stroke:#181818;stroke-width:1.0;"/></g><!--reverse link Currency to Wallet--><g id="link_Currency_Wallet"><path codeLine="103" d="M230.5,372.05 C230.5,390.61 230.5,411.37 230.5,434.76 " fill="none" id="Currency-backto-Wallet" style="stroke:#181818;stroke-width:1.0;"/><polygon fill="#181818" points="230.5,366.05,226.5,375.05,230.5,371.05,234.5,375.05,230.5,366.05" style="stroke:#181818;stroke-width:1.0;"/></g><!--reverse link TaalcMember to Wallet--><g id="link_TaalcMember_Wallet"><path codeLine="104" d="M164.6,485.5 C176.68,485.5 182.76,485.5 194.83,485.5 " fill="none" id="TaalcMember-backto-Wallet" style="stroke:#181818;stroke-width:1.0;"/><polygon fill="#181818" points="158.6,485.5,167.6,489.5,163.6,485.5,167.6,481.5,158.6,485.5" style="stroke:#181818;stroke-width:1.0;"/></g><!--link Transaction to TransactionBatch--><g id="link_Transaction_TransactionBatch"><path codeLine="105" d="M92.86,196.08 C88.72,237.81 84.2503,282.9091 81.3803,311.9391 " fill="none" id="Transaction-to-TransactionBatch" style="stroke:#181818;stroke-width:1.0;"/><polygon fill="#181818" points="80.79,317.91,85.656,309.3472,81.2819,312.9343,77.6949,308.5601,80.79,317.91" style="stroke:#181818;stroke-width:1.0;"/></g><!--link Transaction to Currency--><g id="link_Transaction_Currency"><path codeLine="106" d="M140.95,196.08 C166.74,237.81 195.1471,283.7752 213.0771,312.8052 " fill="none" id="Transaction-to-Currency" style="stroke:#181818;stroke-width:1.0;"/><polygon fill="#181818" points="216.23,317.91,214.9038,308.1508,213.6026,313.656,208.0974,312.3547,216.23,317.91" style="stroke:#181818;stroke-width:1.0;"/></g><!--link TaalcOffer to OfferType--><g id="link_TaalcOffer_OfferType"><path codeLine="108" d="M660.03,208.54 C684.32,247.55 708.6082,286.5769 724.9182,312.7669 " fill="none" id="TaalcOffer-to-OfferType" style="stroke:#181818;stroke-width:1.0;"/><polygon fill="#181818" points="728.09,317.86,726.7278,308.1058,725.4469,313.6157,719.9369,312.3348,728.09,317.86" style="stroke:#181818;stroke-width:1.0;"/></g><!--link TaalcOffer to OfferState--><g id="link_TaalcOffer_OfferState"><path codeLine="109" d="M610.5,249.25 C610.5,275.41 610.5,294.4 610.5,311.67 " fill="none" id="TaalcOffer-to-OfferState" style="stroke:#181818;stroke-width:1.0;"/><polygon fill="#181818" points="610.5,317.67,614.5,308.67,610.5,312.67,606.5,308.67,610.5,317.67" style="stroke:#181818;stroke-width:1.0;"/></g><!--link TaalcOffer to TaalcNft--><g id="link_TaalcOffer_TaalcNft"><path codeLine="110" d="M560.89,190.18 C543.23,210.1 522.5,231.55 501.5,249 C483.26,264.15 437.1015,291.9747 399.7815,313.7647 " fill="none" id="TaalcOffer-to-TaalcNft" style="stroke:#181818;stroke-width:1.0;"/><polygon fill="#181818" points="394.6,316.79,404.3891,315.7064,398.9179,314.2689,400.3553,308.7977,394.6,316.79" style="stroke:#181818;stroke-width:1.0;"/></g><!--link Wallet to TokensBag--><g id="link_Wallet_TokensBag"><path codeLine="112" d="M231.16,536.03 C231.42,555.32 231.475,559.1515 231.715,577.5315 " fill="none" id="Wallet-to-TokensBag" style="stroke:#181818;stroke-width:1.0;"/><polygon fill="none" points="231.95,595.53,237.7145,577.4532,225.7155,577.6099,231.95,595.53" style="stroke:#181818;stroke-width:1.0;"/></g><!--SRC=[TLJ1ajiW3Btp5Jws1_z1Pm_PwxOzP3jxw7Gy1CiENHiy8DhDUFVV2mWmJj9S8ka9wUaXB2PkRVEYpIkObJN-Pv4R_FGvsl06mY4apw9Uaia5Igsyyy4O4x76C-UJE6XSFqh4S6KfaqhZ5kXE7CKvHWUZPu9r-di5TPEFSWPsh_GX5AgQXjFsm4TgwIoOQ3n9YpyZ-Aig4pZ_i67qg-1Nc4zP4OG9HiFdJlPRrWkV9a1Ac6DoD8Kp1fIua4gpTWglDOeawA3Ykw6eiRLyX3N0CKV_LRcs0OwQR0ovdHu6g7qrOEM9Cq_kwAd7WhuNA3SttmOy8aSW6j9sYpjDqfwXfvx-VcJVIpL6Du71tPFz7lglvHQxeZRgohuiGFlZJhz1uArEYv42yl8XMV6-Wz4xmyCz9wMZEj5E3EbMubIHJffh5tls56AeulxerLctgtbCXDPTajU9nik2RG8SBnPXFeBvuyad7PNdFqtnMQGjaIfdvD2JLEvj2x9TdURBUzjMf-wXTG76gcqbkEmqsxQDa3pY3P17PVK6Dctxi2dr7wWSyaQC5fqOFP2cTOiFbzOvEi60kGYnPzMRfWPNR_mceHHbsp96eDpvNO3uNI5bciAmVN_OFYR_0000]--></g></svg>