<?xml version="1.0" encoding="us-ascii" standalone="no"?><svg xmlns="http://www.w3.org/2000/svg" xmlns:xlink="http://www.w3.org/1999/xlink" contentStyleType="text/css" height="686px" preserveAspectRatio="none" style="width:1126px;height:686px;background:#FFFFFF;" version="1.1" viewBox="0 0 1126 686" width="1126px" zoomAndPan="magnify"><defs/><g><!--class Worker--><g id="elem_Worker"><rect codeLine="1" fill="#F1F1F1" height="118.4375" id="Worker" rx="2.5" ry="2.5" style="stroke:#181818;stroke-width:0.5;" width="78" x="676.5" y="69"/><ellipse cx="691.5" cy="85" fill="#ADD1B2" rx="11" ry="11" style="stroke:#181818;stroke-width:1.0;"/><path d="M694.2656,80.875 Q694.4219,80.6563 694.6094,80.5469 Q694.7969,80.4375 695.0156,80.4375 Q695.3906,80.4375 695.625,80.6953 Q695.8594,80.9531 695.8594,81.5625 L695.8594,83.0156 Q695.8594,83.625 695.625,83.8906 Q695.3906,84.1563 695.0156,84.1563 Q694.6719,84.1563 694.4688,83.9531 Q694.2656,83.7656 694.1563,83.25 Q694.1094,82.8906 693.9219,82.7031 Q693.5938,82.3281 692.9844,82.1094 Q692.375,81.8906 691.75,81.8906 Q690.9844,81.8906 690.3516,82.2188 Q689.7188,82.5469 689.2266,83.2969 Q688.7344,84.0469 688.7344,85.0781 L688.7344,86.1719 Q688.7344,87.4063 689.625,88.2266 Q690.5156,89.0469 692.1094,89.0469 Q693.0469,89.0469 693.7031,88.7969 Q694.0938,88.6406 694.5156,88.2031 Q694.7813,87.9375 694.9297,87.8594 Q695.0781,87.7813 695.2813,87.7813 Q695.6094,87.7813 695.8672,88.0391 Q696.125,88.2969 696.125,88.6406 Q696.125,88.9844 695.7813,89.3906 Q695.2813,89.9688 694.4844,90.2969 Q693.4063,90.75 692.1094,90.75 Q690.5938,90.75 689.3906,90.125 Q688.4063,89.625 687.7188,88.5547 Q687.0313,87.4844 687.0313,86.2031 L687.0313,85.0469 Q687.0313,83.7188 687.6484,82.5703 Q688.2656,81.4219 689.3594,80.8047 Q690.4531,80.1875 691.6875,80.1875 Q692.4219,80.1875 693.0703,80.3516 Q693.7188,80.5156 694.2656,80.875 Z " fill="#000000"/><text fill="#000000" font-family="sans-serif" font-size="14" lengthAdjust="spacing" textLength="46" x="705.5" y="90.7285">Worker</text><line style="stroke:#181818;stroke-width:0.5;" x1="677.5" x2="753.5" y1="101" y2="101"/><line style="stroke:#181818;stroke-width:0.5;" x1="677.5" x2="753.5" y1="109" y2="109"/><text fill="#000000" font-family="sans-serif" font-size="14" lengthAdjust="spacing" textLength="38" x="682.5" y="127.5332">start()</text><text fill="#000000" font-family="sans-serif" font-size="14" lengthAdjust="spacing" textLength="59" x="682.5" y="145.1426">execute()</text><text fill="#000000" font-family="sans-serif" font-size="14" lengthAdjust="spacing" textLength="37" x="682.5" y="162.752">stop()</text><text fill="#000000" font-family="sans-serif" font-size="14" lengthAdjust="spacing" textLength="48" x="682.5" y="180.3613">action()</text></g><!--class TaalcBot--><g id="elem_TaalcBot"><rect codeLine="9" fill="#F1F1F1" height="48" id="TaalcBot" rx="2.5" ry="2.5" style="stroke:#181818;stroke-width:0.5;" width="88" x="798.5" y="104"/><ellipse cx="813.5" cy="120" fill="#ADD1B2" rx="11" ry="11" style="stroke:#181818;stroke-width:1.0;"/><path d="M816.2656,115.875 Q816.4219,115.6563 816.6094,115.5469 Q816.7969,115.4375 817.0156,115.4375 Q817.3906,115.4375 817.625,115.6953 Q817.8594,115.9531 817.8594,116.5625 L817.8594,118.0156 Q817.8594,118.625 817.625,118.8906 Q817.3906,119.1563 817.0156,119.1563 Q816.6719,119.1563 816.4688,118.9531 Q816.2656,118.7656 816.1563,118.25 Q816.1094,117.8906 815.9219,117.7031 Q815.5938,117.3281 814.9844,117.1094 Q814.375,116.8906 813.75,116.8906 Q812.9844,116.8906 812.3516,117.2188 Q811.7188,117.5469 811.2266,118.2969 Q810.7344,119.0469 810.7344,120.0781 L810.7344,121.1719 Q810.7344,122.4063 811.625,123.2266 Q812.5156,124.0469 814.1094,124.0469 Q815.0469,124.0469 815.7031,123.7969 Q816.0938,123.6406 816.5156,123.2031 Q816.7813,122.9375 816.9297,122.8594 Q817.0781,122.7813 817.2813,122.7813 Q817.6094,122.7813 817.8672,123.0391 Q818.125,123.2969 818.125,123.6406 Q818.125,123.9844 817.7813,124.3906 Q817.2813,124.9688 816.4844,125.2969 Q815.4063,125.75 814.1094,125.75 Q812.5938,125.75 811.3906,125.125 Q810.4063,124.625 809.7188,123.5547 Q809.0313,122.4844 809.0313,121.2031 L809.0313,120.0469 Q809.0313,118.7188 809.6484,117.5703 Q810.2656,116.4219 811.3594,115.8047 Q812.4531,115.1875 813.6875,115.1875 Q814.4219,115.1875 815.0703,115.3516 Q815.7188,115.5156 816.2656,115.875 Z " fill="#000000"/><text fill="#000000" font-family="sans-serif" font-size="14" lengthAdjust="spacing" textLength="56" x="827.5" y="125.7285">TaalcBot</text><line style="stroke:#181818;stroke-width:0.5;" x1="799.5" x2="885.5" y1="136" y2="136"/><line style="stroke:#181818;stroke-width:0.5;" x1="799.5" x2="885.5" y1="144" y2="144"/></g><!--class Transaction--><g id="elem_Transaction"><rect codeLine="11" fill="#F1F1F1" height="136.0469" id="Transaction" rx="2.5" ry="2.5" style="stroke:#181818;stroke-width:0.5;" width="125" x="40" y="60"/><ellipse cx="63.1" cy="76" fill="#ADD1B2" rx="11" ry="11" style="stroke:#181818;stroke-width:1.0;"/><path d="M65.8656,71.875 Q66.0219,71.6563 66.2094,71.5469 Q66.3969,71.4375 66.6156,71.4375 Q66.9906,71.4375 67.225,71.6953 Q67.4594,71.9531 67.4594,72.5625 L67.4594,74.0156 Q67.4594,74.625 67.225,74.8906 Q66.9906,75.1563 66.6156,75.1563 Q66.2719,75.1563 66.0688,74.9531 Q65.8656,74.7656 65.7563,74.25 Q65.7094,73.8906 65.5219,73.7031 Q65.1938,73.3281 64.5844,73.1094 Q63.975,72.8906 63.35,72.8906 Q62.5844,72.8906 61.9516,73.2188 Q61.3188,73.5469 60.8266,74.2969 Q60.3344,75.0469 60.3344,76.0781 L60.3344,77.1719 Q60.3344,78.4063 61.225,79.2266 Q62.1156,80.0469 63.7094,80.0469 Q64.6469,80.0469 65.3031,79.7969 Q65.6938,79.6406 66.1156,79.2031 Q66.3813,78.9375 66.5297,78.8594 Q66.6781,78.7813 66.8813,78.7813 Q67.2094,78.7813 67.4672,79.0391 Q67.725,79.2969 67.725,79.6406 Q67.725,79.9844 67.3813,80.3906 Q66.8813,80.9688 66.0844,81.2969 Q65.0063,81.75 63.7094,81.75 Q62.1938,81.75 60.9906,81.125 Q60.0063,80.625 59.3188,79.5547 Q58.6313,78.4844 58.6313,77.2031 L58.6313,76.0469 Q58.6313,74.7188 59.2484,73.5703 Q59.8656,72.4219 60.9594,71.8047 Q62.0531,71.1875 63.2875,71.1875 Q64.0219,71.1875 64.6703,71.3516 Q65.3188,71.5156 65.8656,71.875 Z " fill="#000000"/><text fill="#000000" font-family="sans-serif" font-size="14" lengthAdjust="spacing" textLength="75" x="78.9" y="81.7285">Transaction</text><line style="stroke:#181818;stroke-width:0.5;" x1="41" x2="164" y1="92" y2="92"/><text fill="#000000" font-family="sans-serif" font-size="14" lengthAdjust="spacing" textLength="113" x="46" y="110.5332">transaction_batch</text><text fill="#000000" font-family="sans-serif" font-size="14" lengthAdjust="spacing" textLength="28" x="46" y="128.1426">from</text><text fill="#000000" font-family="sans-serif" font-size="14" lengthAdjust="spacing" textLength="12" x="46" y="145.752">to</text><text fill="#000000" font-family="sans-serif" font-size="14" lengthAdjust="spacing" textLength="35" x="46" y="163.3613">token</text><text fill="#000000" font-family="sans-serif" font-size="14" lengthAdjust="spacing" textLength="104" x="46" y="180.9707">transaction_time</text><line style="stroke:#181818;stroke-width:0.5;" x1="41" x2="164" y1="188.0469" y2="188.0469"/></g><!--class TransactionBatch--><g id="elem_TransactionBatch"><rect codeLine="19" fill="#F1F1F1" height="48" id="TransactionBatch" rx="2.5" ry="2.5" style="stroke:#181818;stroke-width:0.5;" width="143" x="7" y="318"/><ellipse cx="22" cy="334" fill="#ADD1B2" rx="11" ry="11" style="stroke:#181818;stroke-width:1.0;"/><path d="M24.7656,329.875 Q24.9219,329.6563 25.1094,329.5469 Q25.2969,329.4375 25.5156,329.4375 Q25.8906,329.4375 26.125,329.6953 Q26.3594,329.9531 26.3594,330.5625 L26.3594,332.0156 Q26.3594,332.625 26.125,332.8906 Q25.8906,333.1563 25.5156,333.1563 Q25.1719,333.1563 24.9688,332.9531 Q24.7656,332.7656 24.6563,332.25 Q24.6094,331.8906 24.4219,331.7031 Q24.0938,331.3281 23.4844,331.1094 Q22.875,330.8906 22.25,330.8906 Q21.4844,330.8906 20.8516,331.2188 Q20.2188,331.5469 19.7266,332.2969 Q19.2344,333.0469 19.2344,334.0781 L19.2344,335.1719 Q19.2344,336.4063 20.125,337.2266 Q21.0156,338.0469 22.6094,338.0469 Q23.5469,338.0469 24.2031,337.7969 Q24.5938,337.6406 25.0156,337.2031 Q25.2813,336.9375 25.4297,336.8594 Q25.5781,336.7813 25.7813,336.7813 Q26.1094,336.7813 26.3672,337.0391 Q26.625,337.2969 26.625,337.6406 Q26.625,337.9844 26.2813,338.3906 Q25.7813,338.9688 24.9844,339.2969 Q23.9063,339.75 22.6094,339.75 Q21.0938,339.75 19.8906,339.125 Q18.9063,338.625 18.2188,337.5547 Q17.5313,336.4844 17.5313,335.2031 L17.5313,334.0469 Q17.5313,332.7188 18.1484,331.5703 Q18.7656,330.4219 19.8594,329.8047 Q20.9531,329.1875 22.1875,329.1875 Q22.9219,329.1875 23.5703,329.3516 Q24.2188,329.5156 24.7656,329.875 Z " fill="#000000"/><text fill="#000000" font-family="sans-serif" font-size="14" lengthAdjust="spacing" textLength="111" x="36" y="339.7285">TransactionBatch</text><line style="stroke:#181818;stroke-width:0.5;" x1="8" x2="149" y1="350" y2="350"/><line style="stroke:#181818;stroke-width:0.5;" x1="8" x2="149" y1="358" y2="358"/></g><!--class TokensBag--><g id="elem_TokensBag"><rect codeLine="21" fill="#F1F1F1" height="83.2188" id="TokensBag" rx="2.5" ry="2.5" style="stroke:#181818;stroke-width:0.5;" width="104" x="180.5" y="596"/><ellipse cx="195.5" cy="612" fill="#ADD1B2" rx="11" ry="11" style="stroke:#181818;stroke-width:1.0;"/><path d="M198.2656,607.875 Q198.4219,607.6563 198.6094,607.5469 Q198.7969,607.4375 199.0156,607.4375 Q199.3906,607.4375 199.625,607.6953 Q199.8594,607.9531 199.8594,608.5625 L199.8594,610.0156 Q199.8594,610.625 199.625,610.8906 Q199.3906,611.1563 199.0156,611.1563 Q198.6719,611.1563 198.4688,610.9531 Q198.2656,610.7656 198.1563,610.25 Q198.1094,609.8906 197.9219,609.7031 Q197.5938,609.3281 196.9844,609.1094 Q196.375,608.8906 195.75,608.8906 Q194.9844,608.8906 194.3516,609.2188 Q193.7188,609.5469 193.2266,610.2969 Q192.7344,611.0469 192.7344,612.0781 L192.7344,613.1719 Q192.7344,614.4063 193.625,615.2266 Q194.5156,616.0469 196.1094,616.0469 Q197.0469,616.0469 197.7031,615.7969 Q198.0938,615.6406 198.5156,615.2031 Q198.7813,614.9375 198.9297,614.8594 Q199.0781,614.7813 199.2813,614.7813 Q199.6094,614.7813 199.8672,615.0391 Q200.125,615.2969 200.125,615.6406 Q200.125,615.9844 199.7813,616.3906 Q199.2813,616.9688 198.4844,617.2969 Q197.4063,617.75 196.1094,617.75 Q194.5938,617.75 193.3906,617.125 Q192.4063,616.625 191.7188,615.5547 Q191.0313,614.4844 191.0313,613.2031 L191.0313,612.0469 Q191.0313,610.7188 191.6484,609.5703 Q192.2656,608.4219 193.3594,607.8047 Q194.4531,607.1875 195.6875,607.1875 Q196.4219,607.1875 197.0703,607.3516 Q197.7188,607.5156 198.2656,607.875 Z " fill="#000000"/><text fill="#000000" font-family="sans-serif" font-size="14" lengthAdjust="spacing" textLength="72" x="209.5" y="617.7285">TokensBag</text><line style="stroke:#181818;stroke-width:0.5;" x1="181.5" x2="283.5" y1="628" y2="628"/><text fill="#000000" font-family="sans-serif" font-size="14" lengthAdjust="spacing" textLength="28" x="186.5" y="646.5332">user</text><text fill="#000000" font-family="sans-serif" font-size="14" lengthAdjust="spacing" textLength="70" x="186.5" y="664.1426">List[Token]</text><line style="stroke:#181818;stroke-width:0.5;" x1="181.5" x2="283.5" y1="671.2188" y2="671.2188"/></g><!--class TUser--><g id="elem_TUser"><rect codeLine="26" fill="#F1F1F1" height="48" id="TUser" rx="2.5" ry="2.5" style="stroke:#181818;stroke-width:0.5;" width="70" x="75.5" y="613.5"/><ellipse cx="90.5" cy="629.5" fill="#ADD1B2" rx="11" ry="11" style="stroke:#181818;stroke-width:1.0;"/><path d="M93.2656,625.375 Q93.4219,625.1563 93.6094,625.0469 Q93.7969,624.9375 94.0156,624.9375 Q94.3906,624.9375 94.625,625.1953 Q94.8594,625.4531 94.8594,626.0625 L94.8594,627.5156 Q94.8594,628.125 94.625,628.3906 Q94.3906,628.6563 94.0156,628.6563 Q93.6719,628.6563 93.4688,628.4531 Q93.2656,628.2656 93.1563,627.75 Q93.1094,627.3906 92.9219,627.2031 Q92.5938,626.8281 91.9844,626.6094 Q91.375,626.3906 90.75,626.3906 Q89.9844,626.3906 89.3516,626.7188 Q88.7188,627.0469 88.2266,627.7969 Q87.7344,628.5469 87.7344,629.5781 L87.7344,630.6719 Q87.7344,631.9063 88.625,632.7266 Q89.5156,633.5469 91.1094,633.5469 Q92.0469,633.5469 92.7031,633.2969 Q93.0938,633.1406 93.5156,632.7031 Q93.7813,632.4375 93.9297,632.3594 Q94.0781,632.2813 94.2813,632.2813 Q94.6094,632.2813 94.8672,632.5391 Q95.125,632.7969 95.125,633.1406 Q95.125,633.4844 94.7813,633.8906 Q94.2813,634.4688 93.4844,634.7969 Q92.4063,635.25 91.1094,635.25 Q89.5938,635.25 88.3906,634.625 Q87.4063,634.125 86.7188,633.0547 Q86.0313,631.9844 86.0313,630.7031 L86.0313,629.5469 Q86.0313,628.2188 86.6484,627.0703 Q87.2656,625.9219 88.3594,625.3047 Q89.4531,624.6875 90.6875,624.6875 Q91.4219,624.6875 92.0703,624.8516 Q92.7188,625.0156 93.2656,625.375 Z " fill="#000000"/><text fill="#000000" font-family="sans-serif" font-size="14" lengthAdjust="spacing" textLength="38" x="104.5" y="635.2285">TUser</text><line style="stroke:#181818;stroke-width:0.5;" x1="76.5" x2="144.5" y1="645.5" y2="645.5"/><line style="stroke:#181818;stroke-width:0.5;" x1="76.5" x2="144.5" y1="653.5" y2="653.5"/></g><!--class TMember--><g id="elem_TMember"><rect codeLine="30" fill="#F1F1F1" height="65.6094" id="TMember" rx="2.5" ry="2.5" style="stroke:#181818;stroke-width:0.5;" width="92" x="66.5" y="452.5"/><ellipse cx="81.5" cy="468.5" fill="#ADD1B2" rx="11" ry="11" style="stroke:#181818;stroke-width:1.0;"/><path d="M84.2656,464.375 Q84.4219,464.1563 84.6094,464.0469 Q84.7969,463.9375 85.0156,463.9375 Q85.3906,463.9375 85.625,464.1953 Q85.8594,464.4531 85.8594,465.0625 L85.8594,466.5156 Q85.8594,467.125 85.625,467.3906 Q85.3906,467.6563 85.0156,467.6563 Q84.6719,467.6563 84.4688,467.4531 Q84.2656,467.2656 84.1563,466.75 Q84.1094,466.3906 83.9219,466.2031 Q83.5938,465.8281 82.9844,465.6094 Q82.375,465.3906 81.75,465.3906 Q80.9844,465.3906 80.3516,465.7188 Q79.7188,466.0469 79.2266,466.7969 Q78.7344,467.5469 78.7344,468.5781 L78.7344,469.6719 Q78.7344,470.9063 79.625,471.7266 Q80.5156,472.5469 82.1094,472.5469 Q83.0469,472.5469 83.7031,472.2969 Q84.0938,472.1406 84.5156,471.7031 Q84.7813,471.4375 84.9297,471.3594 Q85.0781,471.2813 85.2813,471.2813 Q85.6094,471.2813 85.8672,471.5391 Q86.125,471.7969 86.125,472.1406 Q86.125,472.4844 85.7813,472.8906 Q85.2813,473.4688 84.4844,473.7969 Q83.4063,474.25 82.1094,474.25 Q80.5938,474.25 79.3906,473.625 Q78.4063,473.125 77.7188,472.0547 Q77.0313,470.9844 77.0313,469.7031 L77.0313,468.5469 Q77.0313,467.2188 77.6484,466.0703 Q78.2656,464.9219 79.3594,464.3047 Q80.4531,463.6875 81.6875,463.6875 Q82.4219,463.6875 83.0703,463.8516 Q83.7188,464.0156 84.2656,464.375 Z " fill="#000000"/><text fill="#000000" font-family="sans-serif" font-size="14" lengthAdjust="spacing" textLength="60" x="95.5" y="474.2285">TMember</text><line style="stroke:#181818;stroke-width:0.5;" x1="67.5" x2="157.5" y1="484.5" y2="484.5"/><text fill="#000000" font-family="sans-serif" font-size="14" lengthAdjust="spacing" textLength="74" x="72.5" y="503.0332">telegram_id</text><line style="stroke:#181818;stroke-width:0.5;" x1="67.5" x2="157.5" y1="510.1094" y2="510.1094"/></g><!--class Wallet--><g id="elem_Wallet"><rect codeLine="34" fill="#F1F1F1" height="100.8281" id="Wallet" rx="2.5" ry="2.5" style="stroke:#181818;stroke-width:0.5;" width="71" x="195" y="435"/><ellipse cx="210" cy="451" fill="#ADD1B2" rx="11" ry="11" style="stroke:#181818;stroke-width:1.0;"/><path d="M212.7656,446.875 Q212.9219,446.6563 213.1094,446.5469 Q213.2969,446.4375 213.5156,446.4375 Q213.8906,446.4375 214.125,446.6953 Q214.3594,446.9531 214.3594,447.5625 L214.3594,449.0156 Q214.3594,449.625 214.125,449.8906 Q213.8906,450.1563 213.5156,450.1563 Q213.1719,450.1563 212.9688,449.9531 Q212.7656,449.7656 212.6563,449.25 Q212.6094,448.8906 212.4219,448.7031 Q212.0938,448.3281 211.4844,448.1094 Q210.875,447.8906 210.25,447.8906 Q209.4844,447.8906 208.8516,448.2188 Q208.2188,448.5469 207.7266,449.2969 Q207.2344,450.0469 207.2344,451.0781 L207.2344,452.1719 Q207.2344,453.4063 208.125,454.2266 Q209.0156,455.0469 210.6094,455.0469 Q211.5469,455.0469 212.2031,454.7969 Q212.5938,454.6406 213.0156,454.2031 Q213.2813,453.9375 213.4297,453.8594 Q213.5781,453.7813 213.7813,453.7813 Q214.1094,453.7813 214.3672,454.0391 Q214.625,454.2969 214.625,454.6406 Q214.625,454.9844 214.2813,455.3906 Q213.7813,455.9688 212.9844,456.2969 Q211.9063,456.75 210.6094,456.75 Q209.0938,456.75 207.8906,456.125 Q206.9063,455.625 206.2188,454.5547 Q205.5313,453.4844 205.5313,452.2031 L205.5313,451.0469 Q205.5313,449.7188 206.1484,448.5703 Q206.7656,447.4219 207.8594,446.8047 Q208.9531,446.1875 210.1875,446.1875 Q210.9219,446.1875 211.5703,446.3516 Q212.2188,446.5156 212.7656,446.875 Z " fill="#000000"/><text fill="#000000" font-family="sans-serif" font-size="14" lengthAdjust="spacing" textLength="39" x="224" y="456.7285">Wallet</text><line style="stroke:#181818;stroke-width:0.5;" x1="196" x2="265" y1="467" y2="467"/><text fill="#000000" font-family="sans-serif" font-size="14" lengthAdjust="spacing" textLength="51" x="201" y="485.5332">member</text><text fill="#000000" font-family="sans-serif" font-size="14" lengthAdjust="spacing" textLength="55" x="201" y="503.1426">currency</text><text fill="#000000" font-family="sans-serif" font-size="14" lengthAdjust="spacing" textLength="47" x="201" y="520.752">amount</text><line style="stroke:#181818;stroke-width:0.5;" x1="196" x2="265" y1="527.8281" y2="527.8281"/></g><!--class TaalcToken--><g id="elem_TaalcToken"><rect codeLine="41" fill="#F1F1F1" height="65.6094" id="TaalcToken" rx="2.5" ry="2.5" style="stroke:#181818;stroke-width:0.5;" width="107" x="200" y="95"/><ellipse cx="215" cy="111" fill="#ADD1B2" rx="11" ry="11" style="stroke:#181818;stroke-width:1.0;"/><path d="M217.7656,106.875 Q217.9219,106.6563 218.1094,106.5469 Q218.2969,106.4375 218.5156,106.4375 Q218.8906,106.4375 219.125,106.6953 Q219.3594,106.9531 219.3594,107.5625 L219.3594,109.0156 Q219.3594,109.625 219.125,109.8906 Q218.8906,110.1563 218.5156,110.1563 Q218.1719,110.1563 217.9688,109.9531 Q217.7656,109.7656 217.6563,109.25 Q217.6094,108.8906 217.4219,108.7031 Q217.0938,108.3281 216.4844,108.1094 Q215.875,107.8906 215.25,107.8906 Q214.4844,107.8906 213.8516,108.2188 Q213.2188,108.5469 212.7266,109.2969 Q212.2344,110.0469 212.2344,111.0781 L212.2344,112.1719 Q212.2344,113.4063 213.125,114.2266 Q214.0156,115.0469 215.6094,115.0469 Q216.5469,115.0469 217.2031,114.7969 Q217.5938,114.6406 218.0156,114.2031 Q218.2813,113.9375 218.4297,113.8594 Q218.5781,113.7813 218.7813,113.7813 Q219.1094,113.7813 219.3672,114.0391 Q219.625,114.2969 219.625,114.6406 Q219.625,114.9844 219.2813,115.3906 Q218.7813,115.9688 217.9844,116.2969 Q216.9063,116.75 215.6094,116.75 Q214.0938,116.75 212.8906,116.125 Q211.9063,115.625 211.2188,114.5547 Q210.5313,113.4844 210.5313,112.2031 L210.5313,111.0469 Q210.5313,109.7188 211.1484,108.5703 Q211.7656,107.4219 212.8594,106.8047 Q213.9531,106.1875 215.1875,106.1875 Q215.9219,106.1875 216.5703,106.3516 Q217.2188,106.5156 217.7656,106.875 Z " fill="#000000"/><text fill="#000000" font-family="sans-serif" font-size="14" lengthAdjust="spacing" textLength="75" x="229" y="116.7285">TaalcToken</text><line style="stroke:#181818;stroke-width:0.5;" x1="201" x2="306" y1="127" y2="127"/><text fill="#000000" font-family="sans-serif" font-size="14" lengthAdjust="spacing" textLength="35" x="206" y="145.5332">name</text><line style="stroke:#181818;stroke-width:0.5;" x1="201" x2="306" y1="152.6094" y2="152.6094"/></g><!--class TMessage--><g id="elem_TMessage"><rect codeLine="45" fill="#F1F1F1" height="153.6563" id="TMessage" rx="2.5" ry="2.5" style="stroke:#181818;stroke-width:0.5;" width="98" x="366.5" y="51"/><ellipse cx="381.5" cy="67" fill="#ADD1B2" rx="11" ry="11" style="stroke:#181818;stroke-width:1.0;"/><path d="M384.2656,62.875 Q384.4219,62.6563 384.6094,62.5469 Q384.7969,62.4375 385.0156,62.4375 Q385.3906,62.4375 385.625,62.6953 Q385.8594,62.9531 385.8594,63.5625 L385.8594,65.0156 Q385.8594,65.625 385.625,65.8906 Q385.3906,66.1563 385.0156,66.1563 Q384.6719,66.1563 384.4688,65.9531 Q384.2656,65.7656 384.1563,65.25 Q384.1094,64.8906 383.9219,64.7031 Q383.5938,64.3281 382.9844,64.1094 Q382.375,63.8906 381.75,63.8906 Q380.9844,63.8906 380.3516,64.2188 Q379.7188,64.5469 379.2266,65.2969 Q378.7344,66.0469 378.7344,67.0781 L378.7344,68.1719 Q378.7344,69.4063 379.625,70.2266 Q380.5156,71.0469 382.1094,71.0469 Q383.0469,71.0469 383.7031,70.7969 Q384.0938,70.6406 384.5156,70.2031 Q384.7813,69.9375 384.9297,69.8594 Q385.0781,69.7813 385.2813,69.7813 Q385.6094,69.7813 385.8672,70.0391 Q386.125,70.2969 386.125,70.6406 Q386.125,70.9844 385.7813,71.3906 Q385.2813,71.9688 384.4844,72.2969 Q383.4063,72.75 382.1094,72.75 Q380.5938,72.75 379.3906,72.125 Q378.4063,71.625 377.7188,70.5547 Q377.0313,69.4844 377.0313,68.2031 L377.0313,67.0469 Q377.0313,65.7188 377.6484,64.5703 Q378.2656,63.4219 379.3594,62.8047 Q380.4531,62.1875 381.6875,62.1875 Q382.4219,62.1875 383.0703,62.3516 Q383.7188,62.5156 384.2656,62.875 Z " fill="#000000"/><text fill="#000000" font-family="sans-serif" font-size="14" lengthAdjust="spacing" textLength="66" x="395.5" y="72.7285">TMessage</text><line style="stroke:#181818;stroke-width:0.5;" x1="367.5" x2="463.5" y1="83" y2="83"/><text fill="#000000" font-family="sans-serif" font-size="14" lengthAdjust="spacing" textLength="38" x="372.5" y="101.5332">owner</text><text fill="#000000" font-family="sans-serif" font-size="14" lengthAdjust="spacing" textLength="45" x="372.5" y="119.1426">creator</text><text fill="#000000" font-family="sans-serif" font-size="14" lengthAdjust="spacing" textLength="67" x="372.5" y="136.752">taalc_offer</text><text fill="#000000" font-family="sans-serif" font-size="14" lengthAdjust="spacing" textLength="54" x="372.5" y="154.3613">taalc_nft</text><text fill="#000000" font-family="sans-serif" font-size="14" lengthAdjust="spacing" textLength="65" x="372.5" y="171.9707">taalc_chat</text><text fill="#000000" font-family="sans-serif" font-size="14" lengthAdjust="spacing" textLength="31" x="372.5" y="189.5801">tg_id</text><line style="stroke:#181818;stroke-width:0.5;" x1="367.5" x2="463.5" y1="196.6563" y2="196.6563"/></g><!--class NftState--><g id="elem_NftState"><rect codeLine="54" fill="#F1F1F1" height="100.8281" id="NftState" rx="2.5" ry="2.5" style="stroke:#181818;stroke-width:0.5;" width="91" x="307" y="435"/><ellipse cx="326.05" cy="451" fill="#EB937F" rx="11" ry="11" style="stroke:#181818;stroke-width:1.0;"/><path d="M324.9094,451.7969 L324.9094,454.2969 L329.2375,454.2969 L329.2375,453.375 Q329.2375,452.7656 329.4797,452.5 Q329.7219,452.2344 330.0969,452.2344 Q330.4719,452.2344 330.7063,452.5 Q330.9406,452.7656 330.9406,453.375 L330.9406,456 L322.9406,456 Q322.3156,456 322.0578,455.7656 Q321.8,455.5313 321.8,455.1406 Q321.8,454.7656 322.0656,454.5313 Q322.3313,454.2969 322.9406,454.2969 L323.2063,454.2969 L323.2063,447.6406 L322.9406,447.6406 Q322.3156,447.6406 322.0578,447.4063 Q321.8,447.1719 321.8,446.7813 Q321.8,446.4063 322.0578,446.1719 Q322.3156,445.9375 322.9406,445.9375 L330.5656,445.9375 L330.5656,448.5313 Q330.5656,449.1406 330.3391,449.3984 Q330.1125,449.6563 329.7219,449.6563 Q329.3469,449.6563 329.1125,449.3984 Q328.8781,449.1406 328.8781,448.5313 L328.8781,447.6406 L324.9094,447.6406 L324.9094,450.0938 L326.3938,450.0938 Q326.3938,449.4375 326.5188,449.25 Q326.7844,448.8438 327.2531,448.8438 Q327.6281,448.8438 327.8625,449.1016 Q328.0969,449.3594 328.0969,449.9688 L328.0969,451.9375 Q328.0969,452.4844 327.9719,452.6719 Q327.7063,453.0625 327.2531,453.0625 Q326.7844,453.0625 326.5188,452.6563 Q326.3938,452.4688 326.3938,451.7969 L324.9094,451.7969 Z " fill="#000000"/><text fill="#000000" font-family="sans-serif" font-size="14" lengthAdjust="spacing" textLength="50" x="340.95" y="456.7285">NftState</text><line style="stroke:#181818;stroke-width:0.5;" x1="308" x2="397" y1="467" y2="467"/><text fill="#000000" font-family="sans-serif" font-size="14" lengthAdjust="spacing" textLength="79" x="313" y="485.5332">is_published</text><text fill="#000000" font-family="sans-serif" font-size="14" lengthAdjust="spacing" textLength="70" x="313" y="503.1426">on_bidding</text><text fill="#000000" font-family="sans-serif" font-size="14" lengthAdjust="spacing" textLength="64" x="313" y="520.752">publishing</text><line style="stroke:#181818;stroke-width:0.5;" x1="308" x2="397" y1="527.8281" y2="527.8281"/></g><!--class TOffer--><g id="elem_TOffer"><rect codeLine="60" fill="#F1F1F1" height="241.7031" id="TOffer" rx="2.5" ry="2.5" style="stroke:#181818;stroke-width:0.5;" width="77" x="546" y="7"/><ellipse cx="562.8" cy="23" fill="#ADD1B2" rx="11" ry="11" style="stroke:#181818;stroke-width:1.0;"/><path d="M565.5656,18.875 Q565.7219,18.6563 565.9094,18.5469 Q566.0969,18.4375 566.3156,18.4375 Q566.6906,18.4375 566.925,18.6953 Q567.1594,18.9531 567.1594,19.5625 L567.1594,21.0156 Q567.1594,21.625 566.925,21.8906 Q566.6906,22.1563 566.3156,22.1563 Q565.9719,22.1563 565.7688,21.9531 Q565.5656,21.7656 565.4563,21.25 Q565.4094,20.8906 565.2219,20.7031 Q564.8938,20.3281 564.2844,20.1094 Q563.675,19.8906 563.05,19.8906 Q562.2844,19.8906 561.6516,20.2188 Q561.0188,20.5469 560.5266,21.2969 Q560.0344,22.0469 560.0344,23.0781 L560.0344,24.1719 Q560.0344,25.4063 560.925,26.2266 Q561.8156,27.0469 563.4094,27.0469 Q564.3469,27.0469 565.0031,26.7969 Q565.3938,26.6406 565.8156,26.2031 Q566.0813,25.9375 566.2297,25.8594 Q566.3781,25.7813 566.5813,25.7813 Q566.9094,25.7813 567.1672,26.0391 Q567.425,26.2969 567.425,26.6406 Q567.425,26.9844 567.0813,27.3906 Q566.5813,27.9688 565.7844,28.2969 Q564.7063,28.75 563.4094,28.75 Q561.8938,28.75 560.6906,28.125 Q559.7063,27.625 559.0188,26.5547 Q558.3313,25.4844 558.3313,24.2031 L558.3313,23.0469 Q558.3313,21.7188 558.9484,20.5703 Q559.5656,19.4219 560.6594,18.8047 Q561.7531,18.1875 562.9875,18.1875 Q563.7219,18.1875 564.3703,18.3516 Q565.0188,18.5156 565.5656,18.875 Z " fill="#000000"/><text fill="#000000" font-family="sans-serif" font-size="14" lengthAdjust="spacing" textLength="41" x="577.2" y="28.7285">TOffer</text><line style="stroke:#181818;stroke-width:0.5;" x1="547" x2="622" y1="39" y2="39"/><text fill="#000000" font-family="sans-serif" font-size="14" lengthAdjust="spacing" textLength="64" x="552" y="57.5332">from_user</text><text fill="#000000" font-family="sans-serif" font-size="14" lengthAdjust="spacing" textLength="48" x="552" y="75.1426">to_user</text><text fill="#000000" font-family="sans-serif" font-size="14" lengthAdjust="spacing" textLength="64" x="552" y="92.752">offer_type</text><text fill="#000000" font-family="sans-serif" font-size="14" lengthAdjust="spacing" textLength="45" x="552" y="110.3613">subject</text><text fill="#000000" font-family="sans-serif" font-size="14" lengthAdjust="spacing" textLength="55" x="552" y="127.9707">currency</text><text fill="#000000" font-family="sans-serif" font-size="14" lengthAdjust="spacing" textLength="31" x="552" y="145.5801">price</text><text fill="#000000" font-family="sans-serif" font-size="14" lengthAdjust="spacing" textLength="31" x="552" y="163.1895">state</text><text fill="#000000" font-family="sans-serif" font-size="14" lengthAdjust="spacing" textLength="26" x="552" y="180.7988">time</text><text fill="#000000" font-family="sans-serif" font-size="14" lengthAdjust="spacing" textLength="52" x="552" y="198.4082">duration</text><text fill="#000000" font-family="sans-serif" font-size="14" lengthAdjust="spacing" textLength="57" x="552" y="216.0176">message</text><text fill="#000000" font-family="sans-serif" font-size="14" lengthAdjust="spacing" textLength="65" x="552" y="233.627">bidding_id</text><line style="stroke:#181818;stroke-width:0.5;" x1="547" x2="622" y1="240.7031" y2="240.7031"/></g><!--class OfferState--><g id="elem_OfferState"><rect codeLine="73" fill="#F1F1F1" height="48" id="OfferState" rx="2.5" ry="2.5" style="stroke:#181818;stroke-width:0.5;" width="97" x="536" y="318"/><ellipse cx="551" cy="334" fill="#EB937F" rx="11" ry="11" style="stroke:#181818;stroke-width:1.0;"/><path d="M549.8594,334.7969 L549.8594,337.2969 L554.1875,337.2969 L554.1875,336.375 Q554.1875,335.7656 554.4297,335.5 Q554.6719,335.2344 555.0469,335.2344 Q555.4219,335.2344 555.6563,335.5 Q555.8906,335.7656 555.8906,336.375 L555.8906,339 L547.8906,339 Q547.2656,339 547.0078,338.7656 Q546.75,338.5313 546.75,338.1406 Q546.75,337.7656 547.0156,337.5313 Q547.2813,337.2969 547.8906,337.2969 L548.1563,337.2969 L548.1563,330.6406 L547.8906,330.6406 Q547.2656,330.6406 547.0078,330.4063 Q546.75,330.1719 546.75,329.7813 Q546.75,329.4063 547.0078,329.1719 Q547.2656,328.9375 547.8906,328.9375 L555.5156,328.9375 L555.5156,331.5313 Q555.5156,332.1406 555.2891,332.3984 Q555.0625,332.6563 554.6719,332.6563 Q554.2969,332.6563 554.0625,332.3984 Q553.8281,332.1406 553.8281,331.5313 L553.8281,330.6406 L549.8594,330.6406 L549.8594,333.0938 L551.3438,333.0938 Q551.3438,332.4375 551.4688,332.25 Q551.7344,331.8438 552.2031,331.8438 Q552.5781,331.8438 552.8125,332.1016 Q553.0469,332.3594 553.0469,332.9688 L553.0469,334.9375 Q553.0469,335.4844 552.9219,335.6719 Q552.6563,336.0625 552.2031,336.0625 Q551.7344,336.0625 551.4688,335.6563 Q551.3438,335.4688 551.3438,334.7969 L549.8594,334.7969 Z " fill="#000000"/><text fill="#000000" font-family="sans-serif" font-size="14" lengthAdjust="spacing" textLength="65" x="565" y="339.7285">OfferState</text><line style="stroke:#181818;stroke-width:0.5;" x1="537" x2="632" y1="350" y2="350"/><line style="stroke:#181818;stroke-width:0.5;" x1="537" x2="632" y1="358" y2="358"/></g><!--class OfferType--><g id="elem_OfferType"><rect codeLine="76" fill="#F1F1F1" height="48" id="OfferType" rx="2.5" ry="2.5" style="stroke:#181818;stroke-width:0.5;" width="96" x="668.5" y="318"/><ellipse cx="683.5" cy="334" fill="#EB937F" rx="11" ry="11" style="stroke:#181818;stroke-width:1.0;"/><path d="M682.3594,334.7969 L682.3594,337.2969 L686.6875,337.2969 L686.6875,336.375 Q686.6875,335.7656 686.9297,335.5 Q687.1719,335.2344 687.5469,335.2344 Q687.9219,335.2344 688.1563,335.5 Q688.3906,335.7656 688.3906,336.375 L688.3906,339 L680.3906,339 Q679.7656,339 679.5078,338.7656 Q679.25,338.5313 679.25,338.1406 Q679.25,337.7656 679.5156,337.5313 Q679.7813,337.2969 680.3906,337.2969 L680.6563,337.2969 L680.6563,330.6406 L680.3906,330.6406 Q679.7656,330.6406 679.5078,330.4063 Q679.25,330.1719 679.25,329.7813 Q679.25,329.4063 679.5078,329.1719 Q679.7656,328.9375 680.3906,328.9375 L688.0156,328.9375 L688.0156,331.5313 Q688.0156,332.1406 687.7891,332.3984 Q687.5625,332.6563 687.1719,332.6563 Q686.7969,332.6563 686.5625,332.3984 Q686.3281,332.1406 686.3281,331.5313 L686.3281,330.6406 L682.3594,330.6406 L682.3594,333.0938 L683.8438,333.0938 Q683.8438,332.4375 683.9688,332.25 Q684.2344,331.8438 684.7031,331.8438 Q685.0781,331.8438 685.3125,332.1016 Q685.5469,332.3594 685.5469,332.9688 L685.5469,334.9375 Q685.5469,335.4844 685.4219,335.6719 Q685.1563,336.0625 684.7031,336.0625 Q684.2344,336.0625 683.9688,335.6563 Q683.8438,335.4688 683.8438,334.7969 L682.3594,334.7969 Z " fill="#000000"/><text fill="#000000" font-family="sans-serif" font-size="14" lengthAdjust="spacing" textLength="64" x="697.5" y="339.7285">OfferType</text><line style="stroke:#181818;stroke-width:0.5;" x1="669.5" x2="763.5" y1="350" y2="350"/><line style="stroke:#181818;stroke-width:0.5;" x1="669.5" x2="763.5" y1="358" y2="358"/></g><!--class TChat--><g id="elem_TChat"><rect codeLine="79" fill="#F1F1F1" height="48" id="TChat" rx="2.5" ry="2.5" style="stroke:#181818;stroke-width:0.5;" width="71" x="430" y="318"/><ellipse cx="445" cy="334" fill="#ADD1B2" rx="11" ry="11" style="stroke:#181818;stroke-width:1.0;"/><path d="M447.7656,329.875 Q447.9219,329.6563 448.1094,329.5469 Q448.2969,329.4375 448.5156,329.4375 Q448.8906,329.4375 449.125,329.6953 Q449.3594,329.9531 449.3594,330.5625 L449.3594,332.0156 Q449.3594,332.625 449.125,332.8906 Q448.8906,333.1563 448.5156,333.1563 Q448.1719,333.1563 447.9688,332.9531 Q447.7656,332.7656 447.6563,332.25 Q447.6094,331.8906 447.4219,331.7031 Q447.0938,331.3281 446.4844,331.1094 Q445.875,330.8906 445.25,330.8906 Q444.4844,330.8906 443.8516,331.2188 Q443.2188,331.5469 442.7266,332.2969 Q442.2344,333.0469 442.2344,334.0781 L442.2344,335.1719 Q442.2344,336.4063 443.125,337.2266 Q444.0156,338.0469 445.6094,338.0469 Q446.5469,338.0469 447.2031,337.7969 Q447.5938,337.6406 448.0156,337.2031 Q448.2813,336.9375 448.4297,336.8594 Q448.5781,336.7813 448.7813,336.7813 Q449.1094,336.7813 449.3672,337.0391 Q449.625,337.2969 449.625,337.6406 Q449.625,337.9844 449.2813,338.3906 Q448.7813,338.9688 447.9844,339.2969 Q446.9063,339.75 445.6094,339.75 Q444.0938,339.75 442.8906,339.125 Q441.9063,338.625 441.2188,337.5547 Q440.5313,336.4844 440.5313,335.2031 L440.5313,334.0469 Q440.5313,332.7188 441.1484,331.5703 Q441.7656,330.4219 442.8594,329.8047 Q443.9531,329.1875 445.1875,329.1875 Q445.9219,329.1875 446.5703,329.3516 Q447.2188,329.5156 447.7656,329.875 Z " fill="#000000"/><text fill="#000000" font-family="sans-serif" font-size="14" lengthAdjust="spacing" textLength="39" x="459" y="339.7285">TChat</text><line style="stroke:#181818;stroke-width:0.5;" x1="431" x2="500" y1="350" y2="350"/><line style="stroke:#181818;stroke-width:0.5;" x1="431" x2="500" y1="358" y2="358"/></g><!--class Currency--><g id="elem_Currency"><rect codeLine="82" fill="#F1F1F1" height="48" id="Currency" rx="2.5" ry="2.5" style="stroke:#181818;stroke-width:0.5;" width="90" x="185.5" y="318"/><ellipse cx="200.5" cy="334" fill="#ADD1B2" rx="11" ry="11" style="stroke:#181818;stroke-width:1.0;"/><path d="M203.2656,329.875 Q203.4219,329.6563 203.6094,329.5469 Q203.7969,329.4375 204.0156,329.4375 Q204.3906,329.4375 204.625,329.6953 Q204.8594,329.9531 204.8594,330.5625 L204.8594,332.0156 Q204.8594,332.625 204.625,332.8906 Q204.3906,333.1563 204.0156,333.1563 Q203.6719,333.1563 203.4688,332.9531 Q203.2656,332.7656 203.1563,332.25 Q203.1094,331.8906 202.9219,331.7031 Q202.5938,331.3281 201.9844,331.1094 Q201.375,330.8906 200.75,330.8906 Q199.9844,330.8906 199.3516,331.2188 Q198.7188,331.5469 198.2266,332.2969 Q197.7344,333.0469 197.7344,334.0781 L197.7344,335.1719 Q197.7344,336.4063 198.625,337.2266 Q199.5156,338.0469 201.1094,338.0469 Q202.0469,338.0469 202.7031,337.7969 Q203.0938,337.6406 203.5156,337.2031 Q203.7813,336.9375 203.9297,336.8594 Q204.0781,336.7813 204.2813,336.7813 Q204.6094,336.7813 204.8672,337.0391 Q205.125,337.2969 205.125,337.6406 Q205.125,337.9844 204.7813,338.3906 Q204.2813,338.9688 203.4844,339.2969 Q202.4063,339.75 201.1094,339.75 Q199.5938,339.75 198.3906,339.125 Q197.4063,338.625 196.7188,337.5547 Q196.0313,336.4844 196.0313,335.2031 L196.0313,334.0469 Q196.0313,332.7188 196.6484,331.5703 Q197.2656,330.4219 198.3594,329.8047 Q199.4531,329.1875 200.6875,329.1875 Q201.4219,329.1875 202.0703,329.3516 Q202.7188,329.5156 203.2656,329.875 Z " fill="#000000"/><text fill="#000000" font-family="sans-serif" font-size="14" lengthAdjust="spacing" textLength="58" x="214.5" y="339.7285">Currency</text><line style="stroke:#181818;stroke-width:0.5;" x1="186.5" x2="274.5" y1="350" y2="350"/><line style="stroke:#181818;stroke-width:0.5;" x1="186.5" x2="274.5" y1="358" y2="358"/></g><!--class TaalcNft--><g id="elem_TaalcNft"><rect codeLine="83" fill="#F1F1F1" height="65.6094" id="TaalcNft" rx="2.5" ry="2.5" style="stroke:#181818;stroke-width:0.5;" width="84" x="310.5" y="309"/><ellipse cx="325.5" cy="325" fill="#ADD1B2" rx="11" ry="11" style="stroke:#181818;stroke-width:1.0;"/><path d="M328.2656,320.875 Q328.4219,320.6563 328.6094,320.5469 Q328.7969,320.4375 329.0156,320.4375 Q329.3906,320.4375 329.625,320.6953 Q329.8594,320.9531 329.8594,321.5625 L329.8594,323.0156 Q329.8594,323.625 329.625,323.8906 Q329.3906,324.1563 329.0156,324.1563 Q328.6719,324.1563 328.4688,323.9531 Q328.2656,323.7656 328.1563,323.25 Q328.1094,322.8906 327.9219,322.7031 Q327.5938,322.3281 326.9844,322.1094 Q326.375,321.8906 325.75,321.8906 Q324.9844,321.8906 324.3516,322.2188 Q323.7188,322.5469 323.2266,323.2969 Q322.7344,324.0469 322.7344,325.0781 L322.7344,326.1719 Q322.7344,327.4063 323.625,328.2266 Q324.5156,329.0469 326.1094,329.0469 Q327.0469,329.0469 327.7031,328.7969 Q328.0938,328.6406 328.5156,328.2031 Q328.7813,327.9375 328.9297,327.8594 Q329.0781,327.7813 329.2813,327.7813 Q329.6094,327.7813 329.8672,328.0391 Q330.125,328.2969 330.125,328.6406 Q330.125,328.9844 329.7813,329.3906 Q329.2813,329.9688 328.4844,330.2969 Q327.4063,330.75 326.1094,330.75 Q324.5938,330.75 323.3906,330.125 Q322.4063,329.625 321.7188,328.5547 Q321.0313,327.4844 321.0313,326.2031 L321.0313,325.0469 Q321.0313,323.7188 321.6484,322.5703 Q322.2656,321.4219 323.3594,320.8047 Q324.4531,320.1875 325.6875,320.1875 Q326.4219,320.1875 327.0703,320.3516 Q327.7188,320.5156 328.2656,320.875 Z " fill="#000000"/><text fill="#000000" font-family="sans-serif" font-size="14" lengthAdjust="spacing" textLength="52" x="339.5" y="330.7285">TaalcNft</text><line style="stroke:#181818;stroke-width:0.5;" x1="311.5" x2="393.5" y1="341" y2="341"/><text fill="#000000" font-family="sans-serif" font-size="14" lengthAdjust="spacing" textLength="50" x="316.5" y="359.5332">NftState</text><line style="stroke:#181818;stroke-width:0.5;" x1="311.5" x2="393.5" y1="366.6094" y2="366.6094"/></g><!--class SystemService--><g id="elem_SystemService"><rect codeLine="87" fill="#F1F1F1" height="65.6094" id="SystemService" rx="2.5" ry="2.5" style="stroke:#181818;stroke-width:0.5;" width="125" x="927" y="95"/><ellipse cx="942" cy="111" fill="#ADD1B2" rx="11" ry="11" style="stroke:#181818;stroke-width:1.0;"/><path d="M944.7656,106.875 Q944.9219,106.6563 945.1094,106.5469 Q945.2969,106.4375 945.5156,106.4375 Q945.8906,106.4375 946.125,106.6953 Q946.3594,106.9531 946.3594,107.5625 L946.3594,109.0156 Q946.3594,109.625 946.125,109.8906 Q945.8906,110.1563 945.5156,110.1563 Q945.1719,110.1563 944.9688,109.9531 Q944.7656,109.7656 944.6563,109.25 Q944.6094,108.8906 944.4219,108.7031 Q944.0938,108.3281 943.4844,108.1094 Q942.875,107.8906 942.25,107.8906 Q941.4844,107.8906 940.8516,108.2188 Q940.2188,108.5469 939.7266,109.2969 Q939.2344,110.0469 939.2344,111.0781 L939.2344,112.1719 Q939.2344,113.4063 940.125,114.2266 Q941.0156,115.0469 942.6094,115.0469 Q943.5469,115.0469 944.2031,114.7969 Q944.5938,114.6406 945.0156,114.2031 Q945.2813,113.9375 945.4297,113.8594 Q945.5781,113.7813 945.7813,113.7813 Q946.1094,113.7813 946.3672,114.0391 Q946.625,114.2969 946.625,114.6406 Q946.625,114.9844 946.2813,115.3906 Q945.7813,115.9688 944.9844,116.2969 Q943.9063,116.75 942.6094,116.75 Q941.0938,116.75 939.8906,116.125 Q938.9063,115.625 938.2188,114.5547 Q937.5313,113.4844 937.5313,112.2031 L937.5313,111.0469 Q937.5313,109.7188 938.1484,108.5703 Q938.7656,107.4219 939.8594,106.8047 Q940.9531,106.1875 942.1875,106.1875 Q942.9219,106.1875 943.5703,106.3516 Q944.2188,106.5156 944.7656,106.875 Z " fill="#000000"/><text fill="#000000" font-family="sans-serif" font-size="14" lengthAdjust="spacing" textLength="93" x="956" y="116.7285">SystemService</text><line style="stroke:#181818;stroke-width:0.5;" x1="928" x2="1051" y1="127" y2="127"/><line style="stroke:#181818;stroke-width:0.5;" x1="928" x2="1051" y1="135" y2="135"/><text fill="#000000" font-family="sans-serif" font-size="14" lengthAdjust="spacing" textLength="46" x="933" y="153.5332">install()</text></g><!--class WinService--><g id="elem_WinService"><rect codeLine="90" fill="#F1F1F1" height="48" id="WinService" rx="2.5" ry="2.5" style="stroke:#181818;stroke-width:0.5;" width="103" x="869" y="318"/><ellipse cx="884" cy="334" fill="#ADD1B2" rx="11" ry="11" style="stroke:#181818;stroke-width:1.0;"/><path d="M886.7656,329.875 Q886.9219,329.6563 887.1094,329.5469 Q887.2969,329.4375 887.5156,329.4375 Q887.8906,329.4375 888.125,329.6953 Q888.3594,329.9531 888.3594,330.5625 L888.3594,332.0156 Q888.3594,332.625 888.125,332.8906 Q887.8906,333.1563 887.5156,333.1563 Q887.1719,333.1563 886.9688,332.9531 Q886.7656,332.7656 886.6563,332.25 Q886.6094,331.8906 886.4219,331.7031 Q886.0938,331.3281 885.4844,331.1094 Q884.875,330.8906 884.25,330.8906 Q883.4844,330.8906 882.8516,331.2188 Q882.2188,331.5469 881.7266,332.2969 Q881.2344,333.0469 881.2344,334.0781 L881.2344,335.1719 Q881.2344,336.4063 882.125,337.2266 Q883.0156,338.0469 884.6094,338.0469 Q885.5469,338.0469 886.2031,337.7969 Q886.5938,337.6406 887.0156,337.2031 Q887.2813,336.9375 887.4297,336.8594 Q887.5781,336.7813 887.7813,336.7813 Q888.1094,336.7813 888.3672,337.0391 Q888.625,337.2969 888.625,337.6406 Q888.625,337.9844 888.2813,338.3906 Q887.7813,338.9688 886.9844,339.2969 Q885.9063,339.75 884.6094,339.75 Q883.0938,339.75 881.8906,339.125 Q880.9063,338.625 880.2188,337.5547 Q879.5313,336.4844 879.5313,335.2031 L879.5313,334.0469 Q879.5313,332.7188 880.1484,331.5703 Q880.7656,330.4219 881.8594,329.8047 Q882.9531,329.1875 884.1875,329.1875 Q884.9219,329.1875 885.5703,329.3516 Q886.2188,329.5156 886.7656,329.875 Z " fill="#000000"/><text fill="#000000" font-family="sans-serif" font-size="14" lengthAdjust="spacing" textLength="71" x="898" y="339.7285">WinService</text><line style="stroke:#181818;stroke-width:0.5;" x1="870" x2="971" y1="350" y2="350"/><line style="stroke:#181818;stroke-width:0.5;" x1="870" x2="971" y1="358" y2="358"/></g><!--class LinuxService--><g id="elem_LinuxService"><rect codeLine="91" fill="#F1F1F1" height="48" id="LinuxService" rx="2.5" ry="2.5" style="stroke:#181818;stroke-width:0.5;" width="112" x="1007.5" y="318"/><ellipse cx="1022.5" cy="334" fill="#ADD1B2" rx="11" ry="11" style="stroke:#181818;stroke-width:1.0;"/><path d="M1025.2656,329.875 Q1025.4219,329.6563 1025.6094,329.5469 Q1025.7969,329.4375 1026.0156,329.4375 Q1026.3906,329.4375 1026.625,329.6953 Q1026.8594,329.9531 1026.8594,330.5625 L1026.8594,332.0156 Q1026.8594,332.625 1026.625,332.8906 Q1026.3906,333.1563 1026.0156,333.1563 Q1025.6719,333.1563 1025.4688,332.9531 Q1025.2656,332.7656 1025.1563,332.25 Q1025.1094,331.8906 1024.9219,331.7031 Q1024.5938,331.3281 1023.9844,331.1094 Q1023.375,330.8906 1022.75,330.8906 Q1021.9844,330.8906 1021.3516,331.2188 Q1020.7188,331.5469 1020.2266,332.2969 Q1019.7344,333.0469 1019.7344,334.0781 L1019.7344,335.1719 Q1019.7344,336.4063 1020.625,337.2266 Q1021.5156,338.0469 1023.1094,338.0469 Q1024.0469,338.0469 1024.7031,337.7969 Q1025.0938,337.6406 1025.5156,337.2031 Q1025.7813,336.9375 1025.9297,336.8594 Q1026.0781,336.7813 1026.2813,336.7813 Q1026.6094,336.7813 1026.8672,337.0391 Q1027.125,337.2969 1027.125,337.6406 Q1027.125,337.9844 1026.7813,338.3906 Q1026.2813,338.9688 1025.4844,339.2969 Q1024.4063,339.75 1023.1094,339.75 Q1021.5938,339.75 1020.3906,339.125 Q1019.4063,338.625 1018.7188,337.5547 Q1018.0313,336.4844 1018.0313,335.2031 L1018.0313,334.0469 Q1018.0313,332.7188 1018.6484,331.5703 Q1019.2656,330.4219 1020.3594,329.8047 Q1021.4531,329.1875 1022.6875,329.1875 Q1023.4219,329.1875 1024.0703,329.3516 Q1024.7188,329.5156 1025.2656,329.875 Z " fill="#000000"/><text fill="#000000" font-family="sans-serif" font-size="14" lengthAdjust="spacing" textLength="80" x="1036.5" y="339.7285">LinuxService</text><line style="stroke:#181818;stroke-width:0.5;" x1="1008.5" x2="1118.5" y1="350" y2="350"/><line style="stroke:#181818;stroke-width:0.5;" x1="1008.5" x2="1118.5" y1="358" y2="358"/></g><!--reverse link SystemService to WinService--><g id="link_SystemService_WinService"><path codeLine="93" d="M973.4493,178.3163 C959.3893,221.5163 940.33,280.08 927.99,317.99 " fill="none" id="SystemService-backto-WinService" style="stroke:#181818;stroke-width:1.0;"/><polygon fill="none" points="979.02,161.2,967.7439,176.4594,979.1547,180.1732,979.02,161.2" style="stroke:#181818;stroke-width:1.0;"/></g><!--reverse link SystemService to LinuxService--><g id="link_SystemService_LinuxService"><path codeLine="94" d="M1006.6723,178.1944 C1021.7523,221.3944 1042.24,280.08 1055.47,317.99 " fill="none" id="SystemService-backto-LinuxService" style="stroke:#181818;stroke-width:1.0;"/><polygon fill="none" points="1000.74,161.2,1001.0075,180.1718,1012.3371,176.2169,1000.74,161.2" style="stroke:#181818;stroke-width:1.0;"/></g><!--reverse link TMember to TUser--><g id="link_TMember_TUser"><path codeLine="96" d="M111.8293,536.6784 C111.4493,565.0884 111.15,587.82 110.81,613.19 " fill="none" id="TMember-backto-TUser" style="stroke:#181818;stroke-width:1.0;"/><polygon fill="none" points="112.07,518.68,105.8298,536.5981,117.8287,536.7586,112.07,518.68" style="stroke:#181818;stroke-width:1.0;"/></g><!--reverse link TaalcToken to Currency--><g id="link_TaalcToken_Currency"><path codeLine="97" d="M248.0672,179.0949 C243.3772,222.2949 237.11,280.08 233,317.99 " fill="none" id="TaalcToken-backto-Currency" style="stroke:#181818;stroke-width:1.0;"/><polygon fill="none" points="250.01,161.2,242.1023,178.4473,254.0322,179.7424,250.01,161.2" style="stroke:#181818;stroke-width:1.0;"/></g><!--reverse link TaalcToken to TaalcNft--><g id="link_TaalcToken_TaalcNft"><path codeLine="98" d="M276.156,177.5094 C294.816,217.4694 318.83,268.91 337.49,308.85 " fill="none" id="TaalcToken-backto-TaalcNft" style="stroke:#181818;stroke-width:1.0;"/><polygon fill="none" points="268.54,161.2,270.7195,180.0481,281.5924,174.9708,268.54,161.2" style="stroke:#181818;stroke-width:1.0;"/></g><!--link TMessage to TChat--><g id="link_TMessage_TChat"><path codeLine="99" d="M433.48,205.24 C442.83,244.89 452.2334,284.7401 458.5934,311.7201 " fill="none" id="TMessage-to-TChat" style="stroke:#181818;stroke-width:1.0;"/><polygon fill="#181818" points="459.97,317.56,461.7983,307.8823,458.8228,312.6934,454.0117,309.7179,459.97,317.56" style="stroke:#181818;stroke-width:1.0;"/></g><!--link TMessage to TaalcNft--><g id="link_TMessage_TaalcNft"><path codeLine="100" d="M392.84,205.24 C382.26,240.85 371.9395,275.5887 363.7895,303.0087 " fill="none" id="TMessage-to-TaalcNft" style="stroke:#181818;stroke-width:1.0;"/><polygon fill="#181818" points="362.08,308.76,368.4784,301.2726,363.5045,303.9672,360.81,298.9934,362.08,308.76" style="stroke:#181818;stroke-width:1.0;"/></g><!--link TaalcNft to NftState--><g id="link_TaalcNft_NftState"><path codeLine="101" d="M352.5,375.11 C352.5,392.72 352.5,408.94 352.5,428.75 " fill="none" id="TaalcNft-to-NftState" style="stroke:#181818;stroke-width:1.0;"/><polygon fill="#181818" points="352.5,434.75,356.5,425.75,352.5,429.75,348.5,425.75,352.5,434.75" style="stroke:#181818;stroke-width:1.0;"/></g><!--reverse link Currency to Wallet--><g id="link_Currency_Wallet"><path codeLine="103" d="M230.5,372.05 C230.5,390.61 230.5,411.37 230.5,434.76 " fill="none" id="Currency-backto-Wallet" style="stroke:#181818;stroke-width:1.0;"/><polygon fill="#181818" points="230.5,366.05,226.5,375.05,230.5,371.05,234.5,375.05,230.5,366.05" style="stroke:#181818;stroke-width:1.0;"/></g><!--reverse link TMember to Wallet--><g id="link_TMember_Wallet"><path codeLine="104" d="M164.59,485.5 C176.67,485.5 182.75,485.5 194.83,485.5 " fill="none" id="TMember-backto-Wallet" style="stroke:#181818;stroke-width:1.0;"/><polygon fill="#181818" points="158.59,485.5,167.59,489.5,163.59,485.5,167.59,481.5,158.59,485.5" style="stroke:#181818;stroke-width:1.0;"/></g><!--link Transaction to TransactionBatch--><g id="link_Transaction_TransactionBatch"><path codeLine="105" d="M94.91,196.08 C90.18,237.81 85.0757,282.9182 81.7857,311.9482 " fill="none" id="Transaction-to-TransactionBatch" style="stroke:#181818;stroke-width:1.0;"/><polygon fill="#181818" points="81.11,317.91,86.098,309.4177,81.6731,312.9418,78.1489,308.5168,81.11,317.91" style="stroke:#181818;stroke-width:1.0;"/></g><!--link Transaction to Currency--><g id="link_Transaction_Currency"><path codeLine="106" d="M143,196.08 C168.2,237.81 195.9285,283.7438 213.4585,312.7738 " fill="none" id="Transaction-to-Currency" style="stroke:#181818;stroke-width:1.0;"/><polygon fill="#181818" points="216.56,317.91,215.3318,308.138,213.9754,313.6298,208.4836,312.2734,216.56,317.91" style="stroke:#181818;stroke-width:1.0;"/></g><!--link TOffer to OfferType--><g id="link_TOffer_OfferType"><path codeLine="108" d="M623.17,191.97 C634.52,210.38 646.97,230.52 658.5,249 C673.19,272.55 686.9204,294.3206 698.6904,312.9106 " fill="none" id="TOffer-to-OfferType" style="stroke:#181818;stroke-width:1.0;"/><polygon fill="#181818" points="701.9,317.98,700.4652,308.2362,699.2253,313.7555,693.706,312.5157,701.9,317.98" style="stroke:#181818;stroke-width:1.0;"/></g><!--link TOffer to OfferState--><g id="link_TOffer_OfferState"><path codeLine="109" d="M584.5,249.25 C584.5,275.41 584.5,294.4 584.5,311.67 " fill="none" id="TOffer-to-OfferState" style="stroke:#181818;stroke-width:1.0;"/><polygon fill="#181818" points="584.5,317.67,588.5,308.67,584.5,312.67,580.5,308.67,584.5,317.67" style="stroke:#181818;stroke-width:1.0;"/></g><!--link TOffer to TaalcNft--><g id="link_TOffer_TaalcNft"><path codeLine="110" d="M545.91,179.31 C527.55,201.78 504.6,227.88 481.5,249 C454.5,273.68 425.7428,294.2528 399.5328,311.4928 " fill="none" id="TOffer-to-TaalcNft" style="stroke:#181818;stroke-width:1.0;"/><polygon fill="#181818" points="394.52,314.79,404.2374,313.186,398.6973,312.0423,399.841,306.5023,394.52,314.79" style="stroke:#181818;stroke-width:1.0;"/></g><!--link Wallet to TokensBag--><g id="link_Wallet_TokensBag"><path codeLine="112" d="M231.16,536.03 C231.42,555.32 231.475,559.1515 231.715,577.5315 " fill="none" id="Wallet-to-TokensBag" style="stroke:#181818;stroke-width:1.0;"/><polygon fill="none" points="231.95,595.53,237.7145,577.4532,225.7155,577.6099,231.95,595.53" style="stroke:#181818;stroke-width:1.0;"/></g><!--SRC=[RLGzSzim3DtvApIsW_v1BuEp9ktWz3BqUZgQWcGs4gaZmJO-nV-z9419j9Ki0HwWXuSFMWtI- -hLkZTmiwZYdqVfyCjNik4TL438daSxPLCgrDP4vog4KCJn8kMW3XRdwueuQJndCZLkG7EIgCw4TiwE7BRvtnkONJxg4SHdr8T4L1HDN_k3xBbayE38UD8UVr7mTq7pqwUs2-0PnjCo2OG1UYV7HhTRngiS1a1E62cPJ1MS0wCkF9tH1eFtiw7Y_A6HDyqyW_UoXpc5A6x_cONNWKJBDYQMndOTbBxfiF3KMMQtZxA9CDO14yRgUuT7b0WiGVjc2gT1-pEqN3FkHBUjDZsvEPZSJUYFL7jUjzQiqqMxsIImmSi4V3NXz0SKxgSqEQrWEJbaYxQSZ3OucRQRvqpp8Jjhv9rGNoGgTtQ3lKG916NrZt4syxQKnonclfPRYbFY1fTnRUqVBnvXF8Bx6uNdAPgeVHZe8UJxq6R9MA0dRSBx1eeRdkhRHrqNNtqMBGc4o3VA8RfWiTqNeqjhky3IebXkhghh1vxC7RGcPeFGTIQ2dq5LXod2Qxa57Q33HC9AHV5QcVpkzUuILaB19qVWkjCTo9eAT5M_Age_7hQVXly0]--></g></svg>